<svg id="Слой_1" data-name="Слой 1" xmlns="http://www.w3.org/2000/svg" xmlns:xlink="http://www.w3.org/1999/xlink" viewBox="0 0 3554.04 2555.15"><defs><style>.cls-1{fill:url(#radial-gradient);}.cls-2{fill:url(#radial-gradient-2);}.cls-3{fill:url(#radial-gradient-3);}.cls-4{fill:url(#radial-gradient-4);}.cls-5{fill:url(#radial-gradient-5);}</style><radialGradient id="radial-gradient" cx="4075.9" cy="3364.06" r="4523.48" gradientUnits="userSpaceOnUse"><stop offset="0" stop-color="#498444"/><stop offset="0.59" stop-color="#498444"/><stop offset="0.59" stop-color="#5da343"/><stop offset="1" stop-color="#498444"/></radialGradient><radialGradient id="radial-gradient-2" cx="4076.19" cy="3364.06" r="4523.98" xlink:href="#radial-gradient"/><radialGradient id="radial-gradient-3" cx="4076.14" cy="3363.42" r="4523.48" xlink:href="#radial-gradient"/><radialGradient id="radial-gradient-4" cx="4076.23" cy="3364.07" r="4524.05" xlink:href="#radial-gradient"/><radialGradient id="radial-gradient-5" cx="4076.18" cy="3364.19" r="4523.92" xlink:href="#radial-gradient"/></defs><path class="cls-1" d="M1491.39,2448c-139.47,0-252.45,113.22-252.45,252.44,0,139.47,113,252.45,252.45,252.45,139.21,0,252.32-113,252.32-252.45C1743.71,2561.21,1630.6,2448,1491.39,2448Z" transform="translate(-79.91 -397.73)"/><path class="cls-2" d="M2546.58,2448c-139.34,0-252.32,113.22-252.32,252.44,0,139.47,113,252.45,252.32,252.45,139.59,0,252.7-113,252.7-252.45C2799.28,2561.21,2686.17,2448,2546.58,2448Z" transform="translate(-79.91 -397.73)"/><path class="cls-3" d="M1803.48,2648.09h431a319.92,319.92,0,0,1,24.87-80.57H1778.48A305,305,0,0,1,1803.48,2648.09Z" transform="translate(-79.91 -397.73)"/><path class="cls-4" d="M2758.07,1867.37l-119.78,380.52H2323.34l69.3-471.11h152.09c-24.75-15-48.39-31.32-71.4-48.39h-73.51l8.17-54.57c-14.85-13.61-29-28.1-42.45-42.69l-14.36,97.26H1964.84V1211.25l184.52-1.49c-5-26.35-8.91-53.08-11.63-80.18l-1315.58,9.65L656.46,728H325.3c-16.82-49.74-63.47-85.88-119-85.88-69.67,0-126.36,56.43-126.36,126.22,0,69.55,56.69,126.23,126.36,126.23,55.56,0,102.21-36.26,119-85.77H602l594.24,1474.71L949.86,2648.09h229.31a328.69,328.69,0,0,1,24.63-80.57H1101.58l161.25-239.08H2697.19L2837,1885.06C2810,1880.23,2783.68,1874.66,2758.07,1867.37ZM854.33,1219.55l566.27-4.1,85.75,512.94h-447Zm414.43,1028.34-189.83-471.11H1514.4l78.7,471.11Zm647.7,0H1642.11l-78.71-471.11h353.06Zm0-519.5H1555.24L1469.48,1215l447-3.33Zm48.38,519.5V1776.78h379l-69.3,471.11Z" transform="translate(-79.91 -397.73)"/><path class="cls-5" d="M3077.34,404.53c-355.28-51.47-684.57,194.91-736.18,549.82-51.23,355.28,194.9,684.7,549.94,736.17s684.57-194.78,736.06-549.81S3432.38,455.89,3077.34,404.53Zm333.88,839.14H3186V1469H2793.71V1243.67H2568.36V851.27h225.35V626.16H3186V851.27h225.23Z" transform="translate(-79.91 -397.73)"/></svg>