<svg id="Слой_1" data-name="Слой 1" xmlns="http://www.w3.org/2000/svg" viewBox="0 0 2637.87 3539">
    <defs>
        <style>.cls-1{fill:none;stroke:#fff8ee;stroke-linejoin:round;stroke-width:89px;}.cls-2{fill:#fff8ee;}</style>
    </defs>
    <path class="cls-1"
          d="M3128.86,1896.16c-90.63-27.23-203.88,8.44-291,45.34-157.89,66.87-280.49,225.83-386.35,395.64L2404.12,618.07c0-101.84-42-203.61-143.59-210.18-111.36-7.21-172.17,92.94-172.17,202.75l-67.87,1313.07-61.27-1597C1959.22,223,1895.86,149,1792.09,149h-6.61c-103.77,0-156.89,99.95-156.89,203.73l-45.13,1550.54L1471,589.33c0-98.05-46.83-193.18-144.89-193.18h-27.32c-98,0-143.56,106.27-143.56,204.33l-37.42,1313-78-986.17c0-98.61-41-185.74-139.58-185.74H874.94c-98.61,0-141.59,115-141.59,213.6L709.2,2821.93c0,2.65,0,5.32,0,8,2.54,427,356.42,769.08,783.46,769.08h298.14c300.11,0,576.38-168.65,708.56-438.07,174.58-355.83,289.09-772,654.23-974.25C3253.91,2171.82,3337.39,1958.82,3128.86,1896.16Z"
          transform="translate(-664.7 -104.5)"/>
    <path class="cls-2"
          d="M1876,2260.67c-127.9,0-235,87.81-265.11,206.34-30.11-118.53-137.22-206.34-265.12-206.34-151.24,0-273.84,122.61-273.84,273.85,0,283.49,539,665.52,539,665.52s539-370.79,539-665.52C2149.8,2383.28,2027.19,2260.67,1876,2260.67Z"
          transform="translate(-664.7 -104.5)"/>
</svg>
