<svg id="Слой_1" data-name="Слой 1" xmlns="http://www.w3.org/2000/svg" xmlns:xlink="http://www.w3.org/1999/xlink"
     viewBox="0 0 2645.12 3468.26">
    <defs>
        <style>
            .cls-1{fill:url(#radial-gradient);}.cls-2{fill:url(#radial-gradient-2);}.cls-3{fill:url(#radial-gradient-3);}.cls-4{fill:url(#radial-gradient-4);}.cls-5{fill:url(#radial-gradient-5);}.cls-6{fill:url(#radial-gradient-6);}.cls-7{fill:url(#radial-gradient-7);}.cls-8{fill:url(#radial-gradient-8);}
        </style>
        <radialGradient id="radial-gradient" cx="3258.1" cy="3698.87" r="4352.01" gradientUnits="userSpaceOnUse">
            <stop offset="0" stop-color="#498444"/>
            <stop offset="0.49" stop-color="#498444"/>
            <stop offset="0.49" stop-color="#5da343"/>
            <stop offset="1" stop-color="#498444"/>
        </radialGradient>
        <radialGradient id="radial-gradient-2" cx="3258.11" cy="3698.87" r="4351.93" xlink:href="#radial-gradient"/>
        <radialGradient id="radial-gradient-3" cx="2722.68" cy="3612.79" r="4351.88" xlink:href="#radial-gradient"/>
        <radialGradient id="radial-gradient-4" cx="3257.99" cy="3698.91" r="4351.6" xlink:href="#radial-gradient"/>
        <radialGradient id="radial-gradient-5" cx="3257.84" cy="3697.97" r="4350.6" xlink:href="#radial-gradient"/>
        <radialGradient id="radial-gradient-6" cx="3257.87" cy="3697.14" r="4349.51" xlink:href="#radial-gradient"/>
        <radialGradient id="radial-gradient-7" cx="3258.39" cy="3703.41" r="4357.69" xlink:href="#radial-gradient"/>
        <radialGradient id="radial-gradient-8" cx="3258.1" cy="3698.84" r="4351.98" xlink:href="#radial-gradient"/>
    </defs>
    <path class="cls-1"
          d="M3129,3451.23H2927.9V2958.41a51.62,51.62,0,0,0-51.65-51.48H2286.63a51.48,51.48,0,0,0,0,103h538.15v492.95a51.55,51.55,0,0,0,51.47,51.47H3129a51.54,51.54,0,0,0,0-103.07Z"
          transform="translate(-535.42 -86.04)"/>
    <path class="cls-2"
          d="M1480.83,2958.41a51.49,51.49,0,0,0-51.41-51.48H839.63a51.41,51.41,0,0,0-51.35,51.48v492.82H587a51.54,51.54,0,1,0,0,103.07H839.63a51.61,51.61,0,0,0,51.59-51.47V3009.88h538.2A51.49,51.49,0,0,0,1480.83,2958.41Z"
          transform="translate(-535.42 -86.04)"/>
    <polygon class="cls-3" points="947.9 3274.55 854.25 3437.48 1751.22 3437.48 1657.51 3274.55 947.9 3274.55"/>
    <path class="cls-4"
          d="M1646.26,3112.35l48.27,189h291.09s65.66-117.62,65.66-160.46c0-42.65-112.69-145.18-112.69-145.18s6.91,77-16.16,77c-22.9,0-192-153.7-192-153.7s32.3,226.84,16.15,243.05C1730.39,3178.08,1646.26,3112.35,1646.26,3112.35Z"
          transform="translate(-535.42 -86.04)"/>
    <path class="cls-5" d="M1750.27,1438.27a87.09,87.09,0,1,0,87-87A87.07,87.07,0,0,0,1750.27,1438.27Z"
          transform="translate(-535.42 -86.04)"/>
    <path class="cls-6" d="M1971.42,1181.62a70.11,70.11,0,1,0-70.11-70.17A70.25,70.25,0,0,0,1971.42,1181.62Z"
          transform="translate(-535.42 -86.04)"/>
    <path class="cls-7" d="M1783.17,855.76A34.2,34.2,0,1,0,1749,821.68,34,34,0,0,0,1783.17,855.76Z"
          transform="translate(-535.42 -86.04)"/>
    <path class="cls-8"
          d="M837.09,2544.44s0,246,163.29,246H2733.2c168.49,0,168.49-255.59,168.49-255.59L2183.57,1377.69V264.83c40.41-2.6,71.71-40.88,71.71-89.21,0-50.28-33.54-89.58-76.21-89.58H1536c-42.71,0-76.14,39.3-76.14,89.58,0,48.33,31,86.61,71.52,89.21V1378.29Zm685-252.32a88.22,88.22,0,1,1,88.33-88.39A88.3,88.3,0,0,1,1522.08,2292.12Zm379.23-220.45a150.22,150.22,0,1,1,150-150.27C2051.34,2004.46,1984.19,2071.67,1901.31,2071.67Zm-291.62-672V164.32H2105.3v1236l714.51,1150.84c-13.84,70.75-48.27,159-85.37,160.92L2028.56,1574.94H1505.68Z"
          transform="translate(-535.42 -86.04)"/>
</svg>
