<?xml version="1.0" encoding="UTF-8" standalone="no"?>
<!-- Created with Inkscape (http://www.inkscape.org/) -->

<svg
   version="1.1"
   id="svg2"
   width="850"
   height="180"
   viewBox="0 0 849.99991 180"
   xmlns="http://www.w3.org/2000/svg"
   xmlns:svg="http://www.w3.org/2000/svg">
  <defs
     id="defs6">
    <rect
       x="226.79688"
       y="352.51562"
       width="709.65106"
       height="182.8073"
       id="rect1" />
    <rect
       x="242.52605"
       y="47.526043"
       width="591.01044"
       height="222.96875"
       id="rect21" />
    <clipPath
       clipPathUnits="userSpaceOnUse"
       id="clipPath16">
      <path
         d="M 0,600 H 800 V 0 H 0 Z"
         id="path14" />
    </clipPath>
  </defs>
  <g
     id="g8"
     transform="matrix(1.3333333,0,0,-1.3333333,0,800)">
    <g
       id="g4">
      <g
         id="g12"
         clip-path="url(#clipPath16)"
         transform="matrix(0.30751628,0,0,0.30751628,-79.158178,452.8407)">
        <g
           id="g18"
           transform="translate(285.9004,242.0801)">
          <path
             d="m 0,0 c -3.333,4.248 -12.75,36.248 10.334,61.248 -33.615,30.751 -12.759,95.891 39.523,96.394 2.143,31.273 29.809,56.023 57.393,57.606 h 67.043 c 30.54,-3.666 44.29,-22.833 49.374,-36.567 H 142.75 v -25.183 h 91.167 c 39.916,-0.25 50.25,-34.407 50.25,-34.407 H 142.75 V 93.415 H 286.833 C 287.25,80.414 276,64.332 267.109,58.873 L 142.75,58.874 V 33.217 l 138.583,0.001 c 5.167,-0.22 5.167,-30.553 -0.5,-33.219 z"
             style="fill:#ef3336;fill-opacity:1;fill-rule:nonzero;stroke:none"
             id="path20" />
        </g>
        <g
           id="g22"
           transform="translate(293.6509,217.8281)">
          <path
             d="m 0,0 h 265.5 c 0,0 -10.333,-27 -51,-36.667 H 47.5 C 8.167,-25.667 0,0 0,0"
             style="fill:#ef3336;fill-opacity:1;fill-rule:nonzero;stroke:none"
             id="path24" />
        </g>
        <g
           id="g26"
           transform="translate(458.6504,124.8281)">
          <path
             d="m 0,0 c 0,-2 -1.125,-2.75 -2.125,-2.75 l -62.688,-10e-4 c -1.062,0 -2.195,1.25 -2.25,2.688 v 29.751 c 0,1.687 1,2.937 2.563,2.937 H -3.125 C -1.313,32.625 0,31.75 0,29.688 Z"
             style="fill:#ef3336;fill-opacity:1;fill-rule:nonzero;stroke:none"
             id="path28" />
        </g>
        <g
           id="g30"
           transform="translate(458.6504,64.0781)">
          <path
             d="m 0,0 c 0,-2 -1.125,-2.75 -2.125,-2.75 l -62.688,-10e-4 c -1.062,0 -2.195,1.25 -2.25,2.688 v 29.751 c 0,1.687 1,2.937 2.563,2.937 H -3.125 C -1.313,32.625 0,31.75 0,29.688 Z"
             style="fill:#ef3336;fill-opacity:1;fill-rule:nonzero;stroke:none"
             id="path32" />
        </g>
        <g
           id="g34"
           transform="translate(285.9004,242.0801)">
          <path
             d="m 0,0 c -3.333,4.248 -12.75,36.248 10.334,61.248 -33.615,30.751 -12.759,95.891 39.523,96.394 2.143,31.273 29.809,56.023 57.393,57.606 h 35.503 L 142.75,178.681 V 153.498 119.091 93.415 58.874 33.217 l 0.003,-33.218 z"
             style="fill:#315bb0;fill-opacity:1;fill-rule:nonzero;stroke:none"
             id="path36" />
        </g>
        <g
           id="g38"
           transform="translate(319.25,356.6665)">
          <path
             d="M 0,0 5.167,5.333 C 5.917,-0.417 11.5,-3.25 14.75,-2.833 L 9.417,-8.583 C 3.083,-12.917 -3.25,-6.833 0,0"
             style="fill:#ffffff;fill-opacity:1;fill-rule:nonzero;stroke:none"
             id="path40" />
        </g>
        <g
           id="g42"
           transform="translate(328.6748,366.7251)">
          <path
             d="m 0,0 9.783,10.941 c 5.876,3.917 13.709,-1.416 9.775,-9.132 L 9.909,-8.566 C 4.825,-9.642 -1.425,-4.725 0,0"
             style="fill:#ffffff;fill-opacity:1;fill-rule:nonzero;stroke:none"
             id="path44" />
        </g>
        <g
           id="g46"
           transform="translate(378.9165,403.9995)">
          <path
             d="M 0,0 5.167,5.333 C 5.917,-0.417 11.5,-3.25 14.75,-2.833 L 9.417,-8.583 C 3.083,-12.917 -3.25,-6.833 0,0"
             style="fill:#ffffff;fill-opacity:1;fill-rule:nonzero;stroke:none"
             id="path48" />
        </g>
        <g
           id="g50"
           transform="translate(388.3413,414.0581)">
          <path
             d="m 0,0 9.783,10.941 c 5.876,3.917 13.709,-1.416 9.775,-9.132 L 9.909,-8.566 C 4.825,-9.642 -1.425,-4.725 0,0"
             style="fill:#ffffff;fill-opacity:1;fill-rule:nonzero;stroke:none"
             id="path52" />
        </g>
        <g
           id="g54"
           transform="translate(379.252,342.2383)">
          <path
             d="M 0,0 5.167,5.333 C 5.917,-0.417 11.5,-3.25 14.75,-2.833 L 9.417,-8.583 C 3.083,-12.917 -3.25,-6.833 0,0"
             style="fill:#ffffff;fill-opacity:1;fill-rule:nonzero;stroke:none"
             id="path56" />
        </g>
        <g
           id="g58"
           transform="translate(388.6768,352.2969)">
          <path
             d="m 0,0 9.783,10.941 c 5.876,3.917 13.708,-1.416 9.775,-9.132 L 9.909,-8.566 C 4.825,-9.642 -1.425,-4.725 0,0"
             style="fill:#ffffff;fill-opacity:1;fill-rule:nonzero;stroke:none"
             id="path60" />
        </g>
        <g
           id="g62"
           transform="translate(318.168,293.0527)">
          <path
             d="M 0,0 5.167,5.334 C 5.917,-0.416 11.5,-3.25 14.75,-2.832 L 9.417,-8.582 C 3.083,-12.916 -3.25,-6.832 0,0"
             style="fill:#ffffff;fill-opacity:1;fill-rule:nonzero;stroke:none"
             id="path64" />
        </g>
        <g
           id="g66"
           transform="translate(327.5928,303.1118)">
          <path
             d="m 0,0 9.783,10.941 c 5.876,3.917 13.709,-1.416 9.775,-9.132 L 9.909,-8.566 C 4.825,-9.641 -1.425,-4.725 0,0"
             style="fill:#ffffff;fill-opacity:1;fill-rule:nonzero;stroke:none"
             id="path68" />
        </g>
        <g
           id="g70"
           transform="translate(379.084,278.125)">
          <path
             d="M 0,0 5.167,5.334 C 5.917,-0.416 11.5,-3.25 14.75,-2.832 L 9.417,-8.582 C 3.083,-12.916 -3.25,-6.832 0,0"
             style="fill:#ffffff;fill-opacity:1;fill-rule:nonzero;stroke:none"
             id="path72" />
        </g>
        <g
           id="g74"
           transform="translate(388.5088,288.1836)">
          <path
             d="m 0,0 9.783,10.941 c 5.876,3.918 13.708,-1.416 9.775,-9.132 L 9.909,-8.565 C 4.825,-9.641 -1.425,-4.725 0,0"
             style="fill:#ffffff;fill-opacity:1;fill-rule:nonzero;stroke:none"
             id="path76" />
        </g>
        <g
           id="g78"
           transform="translate(319.8721,124.561)" />
        <g
           id="g82"
           transform="translate(281.1943,156.2744)" />
        <g
           id="g86"
           transform="translate(241.2793,217.2344)" />
        <g
           id="g90"
           transform="translate(234.873,232.7754)" />
        <g
           id="g94"
           transform="translate(192.376,263.4668)" />
        <g
           id="g98"
           transform="translate(223.9805,311.8145)" />
        <g
           id="g102"
           transform="translate(221.2959,380.3091)" />
        <g
           id="g106"
           transform="translate(255.2363,407.8032)" />
        <g
           id="g110"
           transform="translate(314.5537,467.7671)" />
        <g
           id="g114"
           transform="translate(327.7188,497.1782)" />
        <g
           id="g118"
           transform="translate(385.9463,498.6162)" />
        <g
           id="g122"
           transform="translate(443.1318,501.9229)" />
        <g
           id="g126"
           transform="translate(478.6475,506.7754)" />
        <g
           id="g130"
           transform="translate(521.4482,481.0361)" />
        <g
           id="g134"
           transform="translate(593.375,446.7793)" />
        <g
           id="g138"
           transform="translate(618.3652,401.6934)" />
        <g
           id="g142"
           transform="translate(648.5469,391.6411)" />
        <g
           id="g146"
           transform="translate(629.2803,335.6196)" />
        <g
           id="g150"
           transform="translate(642.4697,312.1538)" />
        <g
           id="g154"
           transform="translate(630.8369,263.7632)" />
        <g
           id="g158"
           transform="translate(606.0645,197.4839)" />
        <g
           id="g162"
           transform="translate(594.8408,178.2261)" />
        <g
           id="g166"
           transform="translate(545.2754,116.54)" />
        <g
           id="g170"
           transform="translate(520.7285,116.2739)" />
      </g>
      <text
         xml:space="preserve"
         transform="matrix(0.75000002,0,0,-0.75000002,-69.656251,640.8301)"
         id="text21"
         style="font-size:93.3333px;white-space:pre;shape-inside:url(#rect21);fill:#ffffff"><tspan
           x="242.52539"
           y="133.11202"
           id="tspan3"><tspan
             style="font-family:'Pragmatica Condensed';-inkscape-font-specification:'Pragmatica Condensed, '"
             id="tspan2">HEALTHYWAY</tspan></tspan></text>
      <text
         xml:space="preserve"
         transform="matrix(0.75000002,0,0,-0.75000002,-57.32422,802.03518)"
         id="text1"
         style="font-style:normal;font-variant:normal;font-weight:normal;font-stretch:normal;font-size:93.3333px;font-family:'Pragmatica Condensed';-inkscape-font-specification:'Pragmatica Condensed, ';white-space:pre;shape-inside:url(#rect1);fill:#ffffff"><tspan
           x="226.79688"
           y="438.10226"
           id="tspan4">PRODUCTION INC.</tspan></text>
    </g>
  </g>
</svg>
