<svg id="Слой_1" data-name="Слой 1" xmlns="http://www.w3.org/2000/svg" viewBox="0 0 2857.84 3291.6"><defs><style>.cls-1{fill:#fff8ee;}</style></defs><rect class="cls-1" x="242.65" y="1511.6" width="2372.55" height="316.34"/><path class="cls-1" d="M415.33,194.83c0,1019.12,1428.92,1703.92,1428.92,1703.92S1499.16,194.83,415.33,194.83Z" transform="translate(-415.33 -194.83)"/><path class="cls-1" d="M3273.18,194.83c0,1019.12-1428.93,1703.92-1428.93,1703.92S2189.35,194.83,3273.18,194.83Z" transform="translate(-415.33 -194.83)"/><path class="cls-1" d="M2815.15,1787.7,2329,3481.25H1359.5L873.36,1787.7H2815.15m6.88-5.19H866.48l489.11,1703.92h977.33L2822,1782.51Z" transform="translate(-415.33 -194.83)"/><path class="cls-1" d="M2510,2850.75l-181,630.5H1359.5l-181-630.5H2510m6.88-5.18H1171.64l184,640.86h977.32l184-640.86Z" transform="translate(-415.33 -194.83)"/></svg>