<?xml version="1.0" encoding="utf-8"?>
<!-- Generator: Adobe Illustrator 26.0.1, SVG Export Plug-In . SVG Version: 6.00 Build 0)  -->
<svg version="1.1" id="Слой_1" xmlns="http://www.w3.org/2000/svg" xmlns:xlink="http://www.w3.org/1999/xlink" x="0px" y="0px"
	 viewBox="0 0 3685.04 2834.65" style="enable-background:new 0 0 3685.04 2834.65;" xml:space="preserve">
<style type="text/css">
	.st0{filter:url(#Adobe_OpacityMaskFilter);}
	.st1{fill:url(#SVGID_00000060719395242574832950000009624447087846975405_);}
	.st2{mask:url(#SVGID_1_);fill:#C6DB96;}
	.st3{filter:url(#Adobe_OpacityMaskFilter_00000105421998649108769940000004823900151086669753_);}
	.st4{fill:url(#SVGID_00000095305597205588510160000003775556935231896737_);}
	.st5{mask:url(#SVGID_00000058583940751335594800000004101209179319827901_);fill:#C6DB96;}
</style>
<defs>
	<filter id="Adobe_OpacityMaskFilter" filterUnits="userSpaceOnUse" x="269.74" y="431.91" width="2744.93" height="2402.74">
		<feColorMatrix  type="matrix" values="1 0 0 0 0  0 1 0 0 0  0 0 1 0 0  0 0 0 1 0"/>
	</filter>
</defs>
<mask maskUnits="userSpaceOnUse" x="269.74" y="431.91" width="2744.93" height="2402.74" id="SVGID_1_">
	<g class="st0">
		
			<radialGradient id="SVGID_00000059996637220233391050000017201754424986470829_" cx="2078.5898" cy="1398.4207" r="1393.7859" gradientTransform="matrix(-0.2634 0.9647 -0.9647 -0.2634 3663.9126 27.5175)" gradientUnits="userSpaceOnUse">
			<stop  offset="0" style="stop-color:#FFFFFF"/>
			<stop  offset="0.2325" style="stop-color:#A19EA3"/>
			<stop  offset="0.5089" style="stop-color:#504E53"/>
			<stop  offset="0.7382" style="stop-color:#212126"/>
			<stop  offset="0.9081" style="stop-color:#08090C"/>
			<stop  offset="1" style="stop-color:#020203"/>
		</radialGradient>
		<path style="fill:url(#SVGID_00000059996637220233391050000017201754424986470829_);" d="M1400.2,3008.96
			c-742.59-202.75-1180.21-969.12-977.44-1711.71c202.77-742.6,969.12-1180.2,1711.72-977.44
			c742.6,202.78,1180.21,969.14,977.45,1711.75C2909.17,2774.14,2142.81,3211.74,1400.2,3008.96z"/>
	</g>
</mask>
<path class="st2" d="M2756.04,1078.29l-91.46-87.55c2.79-3.93,3.86-9,2.41-13.98c-2.52-8.68-11.62-13.69-20.31-11.16
	c-8.02,2.34-12.81,10.32-11.48,18.37l-119.79,34.94c-0.1-0.66-0.17-1.3-0.35-1.94c-2.55-8.69-11.66-13.69-20.33-11.15
	c-2.88,0.84-5.3,2.46-7.24,4.5l-91-87.09c3.91-4.09,5.63-10.04,3.93-15.86c-1.6-5.47-5.8-9.47-10.87-11.04l30.27-123.81
	c1.95,0.18,3.93,0.03,5.9-0.56c7.39-2.16,12.04-9.02,11.73-16.37L2559,720.15c3.68,6.35,11.32,9.64,18.68,7.48
	c8.69-2.52,13.68-11.61,11.13-20.29c-1.37-4.76-4.78-8.36-8.97-10.27l30.05-122.89c1.84,0.11,3.66-0.04,5.51-0.57
	c8.69-2.54,13.7-11.62,11.16-20.31c-2.53-8.69-11.64-13.68-20.31-11.13c-2.54,0.73-4.7,2.06-6.5,3.74l-91.02-87.08
	c3.41-4.04,4.78-9.64,3.21-15.1c-2.53-8.7-11.64-13.68-20.31-11.16c-8.69,2.53-13.66,11.63-11.14,20.32l-120.78,35.23
	c-2.53-8.68-11.61-13.68-20.31-11.16c-8.68,2.55-13.65,11.64-11.11,20.33c1.6,5.51,5.84,9.49,10.94,11.06l-29.9,122.28
	c-2.44-0.45-4.98-0.42-7.5,0.34c-8.68,2.52-13.65,11.63-11.13,20.31l-120.65,35.18c-2.53-8.67-11.63-13.68-20.3-11.14
	c-2.91,0.85-5.32,2.47-7.24,4.5l-91.03-87.08c3.92-4.1,5.66-10.04,3.96-15.87c-2.54-8.69-11.64-13.68-20.34-11.15
	c-8.66,2.54-13.65,11.63-11.11,20.33l-120.78,35.23c-2.54-8.68-11.62-13.68-20.31-11.15c-8.67,2.54-13.67,11.63-11.14,20.31
	c1.49,5.15,5.32,8.92,9.96,10.68l-29.92,122.45c-2.09-0.25-4.31-0.08-6.45,0.54c-8.68,2.53-13.67,11.63-11.15,20.33l-123.18,35.93
	c-3.21-7.53-11.55-11.67-19.58-9.32c-2.18,0.63-4.13,1.7-5.78,3.05l-91.13-87.21c2.93-3.97,4.1-9.2,2.61-14.3
	c-2.54-8.69-11.63-13.68-20.32-11.15c-8.04,2.34-12.83,10.34-11.49,18.39l-121.15,35.33c-3.21-7.51-11.53-11.67-19.56-9.32
	c-8.68,2.53-13.68,11.62-11.15,20.3c1.5,5.18,5.35,8.98,10.05,10.72l-29.95,122.42c-2.13-0.24-4.35-0.1-6.55,0.54
	c-8.02,2.33-12.81,10.31-11.47,18.38l-122.53,35.74c-3.2-7.51-11.54-11.68-19.57-9.34c-8.69,2.54-13.67,11.63-11.14,20.32
	c1.62,5.5,5.82,9.48,10.9,11.06l-30.32,124.05c-2.15-0.26-4.4-0.14-6.61,0.52c-8.04,2.33-12.82,10.3-11.49,18.36l-121.17,35.34
	c-3.19-7.51-11.51-11.65-19.57-9.31c-8.67,2.54-13.64,11.64-11.11,20.32c1.51,5.25,5.49,9.12,10.29,10.82l-29.91,122.38
	c-2.22-0.31-4.54-0.19-6.84,0.48c-8.03,2.33-12.81,10.32-11.48,18.36l-121.36,35.41c-3.22-7.53-11.53-11.67-19.57-9.34
	c-2.35,0.68-4.4,1.89-6.13,3.41l-92.26-88.29c3.64-4.07,5.17-9.83,3.54-15.46c-1.53-5.27-5.52-9.15-10.33-10.84l29.91-122.45
	c2.27,0.34,4.66,0.25,7.01-0.44c8.67-2.53,13.65-11.61,11.13-20.31c-2.53-8.68-11.63-13.67-20.31-11.14
	c-2.35,0.69-4.4,1.88-6.14,3.39l-91.08-87.15c3.19-4,4.44-9.41,2.91-14.69c-2.52-8.69-11.63-13.68-20.32-11.15
	c-8.04,2.34-12.8,10.32-11.47,18.38l-121.17,35.35c-3.23-7.52-11.54-11.67-19.57-9.33c-8.67,2.55-13.65,11.64-11.13,20.33
	c1.46,4.98,5.13,8.69,9.57,10.51l-29.97,122.6c-1.98-0.18-4.04-0.04-6.05,0.57c-8.03,2.33-12.82,10.3-11.49,18.36l-122.03,35.6
	c-3.21-7.51-11.55-11.65-19.57-9.31c-8.67,2.53-13.65,11.64-11.14,20.31c1.53,5.17,5.37,8.97,10.04,10.7l-29.95,122.45
	c-2.13-0.25-4.35-0.11-6.52,0.54c-8.68,2.52-13.67,11.63-11.12,20.3c2.53,8.68,11.63,13.67,20.3,11.12c2.2-0.64,4.14-1.69,5.8-3.04
	l92.19,88.22c-3.46,4.06-4.88,9.7-3.28,15.21c1.51,5.16,5.35,8.96,10.04,10.71l-29.96,122.44c-2.12-0.26-4.35-0.12-6.53,0.53
	c-8.68,2.53-13.67,11.62-11.14,20.32c2.54,8.68,11.64,13.65,20.32,11.11c2.19-0.62,4.15-1.68,5.8-3.03l91.17,87.26
	c-2.89,3.96-4.04,9.14-2.55,14.22c2.51,8.69,11.61,13.68,20.29,11.15c8.05-2.34,12.82-10.32,11.5-18.34l120.91-35.29
	c3.22,7.49,11.53,11.64,19.56,9.28c1.96-0.56,3.69-1.5,5.23-2.66l93.3,89.29c-3.89,4.1-5.62,10.06-3.92,15.87
	c1.6,5.48,5.83,9.46,10.89,11.04l-29.82,121.97c-2.23-0.3-4.55-0.21-6.85,0.46c-8.04,2.35-12.83,10.33-11.5,18.39l-121.15,35.34
	c-3.22-7.52-11.52-11.67-19.56-9.31c-8.66,2.53-13.66,11.63-11.13,20.34c1.49,5.13,5.35,8.93,10.02,10.68l-29.91,122.42
	c-2.15-0.25-4.35-0.07-6.56,0.55c-8.67,2.52-13.65,11.64-11.14,20.33c2.55,8.68,11.64,13.67,20.33,11.15
	c2.19-0.67,4.13-1.72,5.8-3.1l91.17,87.25c-2.91,3.97-4.07,9.14-2.57,14.23c1.58,5.47,5.74,9.44,10.74,11.07l-30.79,125.89
	c-1.82-0.09-3.68,0.05-5.52,0.58c-8.69,2.53-13.67,11.64-11.13,20.33c2.52,8.68,11.62,13.65,20.3,11.14
	c2.53-0.74,4.7-2.11,6.49-3.78l90.96,87.04c-3.46,4.07-4.89,9.73-3.28,15.23c1.49,5.17,5.33,8.96,10.02,10.7l-29.93,122.44
	c-2.14-0.26-4.34-0.11-6.54,0.55c-8.67,2.53-13.66,11.62-11.12,20.32c2.53,8.67,11.62,13.66,20.3,11.13
	c2.17-0.66,4.14-1.72,5.8-3.06l91.18,87.25c-2.91,3.95-4.07,9.14-2.57,14.22c2.52,8.7,11.63,13.67,20.31,11.16
	c8.02-2.33,12.81-10.32,11.49-18.4l120.92-35.25c3.2,7.5,11.53,11.66,19.55,9.29c8.68-2.51,13.67-11.62,11.14-20.31
	c-1.48-5.12-5.3-8.87-9.88-10.66l29.95-122.51c2.13,0.24,4.35,0.1,6.52-0.52c8.05-2.34,12.82-10.33,11.48-18.4l122.97-35.86
	c3.22,7.51,11.53,11.67,19.59,9.3c8.67-2.54,13.67-11.62,11.13-20.29c-1.64-5.64-6.06-9.66-11.29-11.16l30.24-123.7
	c2.1,0.19,4.27,0.07,6.4-0.58c8.04-2.33,12.82-10.32,11.5-18.35l120.9-35.28c3.22,7.51,11.53,11.67,19.59,9.27
	c8.68-2.51,13.65-11.62,11.11-20.29c-1.49-5.11-5.27-8.89-9.9-10.68l29.95-122.51c2.14,0.26,4.37,0.09,6.53-0.55
	c8.69-2.52,13.68-11.62,11.14-20.3c-2.54-8.69-11.62-13.66-20.3-11.14c-2.2,0.63-4.14,1.69-5.81,3.07l-91.13-87.22
	c2.96-3.96,4.12-9.16,2.62-14.27c-2.54-8.71-11.63-13.71-20.32-11.16c-8.02,2.33-12.8,10.31-11.48,18.35l-121.15,35.37
	c-3.23-7.52-11.53-11.66-19.56-9.34c-2.43,0.7-4.52,1.95-6.25,3.52l-90.68-86.76c3.62-4.09,5.15-9.83,3.51-15.48
	c-1.72-5.93-6.59-10.1-12.22-11.34l30.52-124.85c2.45,0.47,5.03,0.45,7.59-0.3c8.38-2.45,13.26-11.03,11.29-19.43l120.73-35.2
	c2.85,8.14,11.58,12.75,19.97,10.3c8.69-2.55,13.67-11.62,11.14-20.31c-1.63-5.55-5.91-9.57-11.06-11.08l29.91-122.36
	c2.5,0.48,5.11,0.47,7.71-0.29c8.4-2.45,13.28-11.02,11.32-19.42l120.24-35.06c3.2,7.49,11.51,11.63,19.57,9.3
	c8.66-2.53,13.65-11.62,11.11-20.32c-1.46-5.04-5.17-8.76-9.67-10.57l29.73-121.61c2.21,0.3,4.49,0.17,6.76-0.49
	c8.68-2.53,13.67-11.62,11.15-20.3c-2.53-8.68-11.64-13.68-20.32-11.15c-1.89,0.55-3.59,1.47-5.09,2.59l-93.07-89.07
	c3.25-4.04,4.57-9.55,3.01-14.89c-1.47-5.01-5.12-8.73-9.65-10.55l30.01-122.63c2.02,0.2,4.15,0.05,6.21-0.55
	c8.69-2.53,13.68-11.63,11.14-20.3l138.69-40.45l34.1-139.56c2.25,0.33,4.56,0.23,6.91-0.45c8.04-2.34,12.82-10.29,11.51-18.34
	l120.92-35.27c3.2,7.49,11.5,11.62,19.55,9.27c2.45-0.71,4.55-1.98,6.35-3.59l92.48,88.54c-3.45,4.06-4.88,9.71-3.25,15.23
	c1.48,5.15,5.32,8.96,10,10.7l-29.93,122.43c-2.14-0.26-4.35-0.1-6.56,0.54c-8.66,2.53-13.66,11.63-11.11,20.31l-121.64,35.49
	c-3.21-7.51-11.53-11.64-19.55-9.31c-8.67,2.54-13.67,11.63-11.13,20.33c1.46,5.09,5.26,8.86,9.85,10.63l-29.9,122.35
	c-1.98-0.15-3.98-0.02-6.01,0.57c-8.68,2.54-13.66,11.63-11.13,20.33c2.53,8.67,11.61,13.66,20.3,11.13
	c2.02-0.58,3.79-1.56,5.36-2.77l92.08,88.11c-3.45,4.06-4.9,9.7-3.29,15.22c1.5,5.17,5.35,8.97,10,10.7l-29.91,122.43
	c-2.13-0.26-4.35-0.1-6.53,0.54c-8.02,2.35-12.81,10.32-11.49,18.38l-122.52,35.74c-3.22-7.5-11.54-11.67-19.57-9.32
	c-8.67,2.54-13.67,11.62-11.12,20.32c1.59,5.49,5.81,9.48,10.88,11.05l-29.68,121.39c-1.76-0.09-3.58,0.05-5.37,0.58
	c-8.69,2.53-13.68,11.63-11.15,20.32c2.55,8.66,11.65,13.66,20.31,11.13c1.8-0.53,3.39-1.39,4.84-2.42l90.28,86.41
	c-3.4,4.04-4.82,9.69-3.22,15.14c2.52,8.68,11.62,13.68,20.29,11.14c8.07-2.33,12.84-10.29,11.52-18.34l123.67-36.09
	c3.2,7.5,11.52,11.64,19.56,9.3c1.48-0.44,2.82-1.13,4.07-1.91l92.75,88.77c-2.54,3.86-3.48,8.73-2.11,13.55
	c1.5,5.11,5.32,8.92,9.97,10.66l-29.95,122.45c-2.1-0.23-4.3-0.07-6.46,0.55c-8.68,2.52-13.66,11.61-11.13,20.32l-120.99,35.29
	c-3.23-7.53-11.54-11.65-19.56-9.3c-8.68,2.52-13.67,11.64-11.15,20.29c1.39,4.71,4.7,8.28,8.79,10.21l-30.58,125.06
	c-1.63-0.02-3.29,0.1-4.95,0.58c-8.69,2.51-13.66,11.64-11.13,20.31c2.52,8.68,11.62,13.65,20.3,11.14
	c2.33-0.67,4.38-1.87,6.09-3.35l90.37,86.44c-2.43,3.85-3.3,8.63-1.94,13.36c2.53,8.65,11.62,13.62,20.29,11.11
	c8.07-2.36,12.86-10.34,11.48-18.44l117.82-34.37c3.21,7.53,11.54,11.67,19.55,9.32c8.69-2.55,13.68-11.64,11.16-20.29
	c-1.33-4.56-4.46-8.06-8.36-10.04l30.85-126.16c2.27,0.33,4.63,0.24,6.97-0.48c7.39-2.13,12.04-8.98,11.74-16.37l121.56-35.44
	c3.68,6.36,11.33,9.66,18.69,7.53c8.68-2.56,13.68-11.65,11.14-20.32c-1.49-5.17-5.31-8.94-9.96-10.68l29.95-122.53
	c2.16,0.27,4.4,0.1,6.61-0.53c8.04-2.34,12.83-10.3,11.49-18.37l121.03-35.32c3.23,7.52,11.54,11.67,19.57,9.3
	c1.85-0.52,3.49-1.39,4.97-2.47l91.88,87.92c-2.77,3.95-3.84,9.01-2.41,14.03c2.53,8.69,11.64,13.63,20.32,11.11
	c7.71-2.24,12.46-9.64,11.66-17.39l122.11-35.6c3.22,7.53,11.52,11.63,19.56,9.32c2.2-0.65,4.15-1.72,5.8-3.08l91.16,87.24
	c-2.89,3.99-4.02,9.18-2.56,14.26c2.54,8.68,11.64,13.65,20.31,11.14c8.04-2.34,12.83-10.3,11.49-18.35l120.92-35.29
	c3.22,7.5,11.51,11.64,19.56,9.29c8.68-2.54,13.68-11.61,11.16-20.3c-1.51-5.11-5.29-8.89-9.93-10.65l29.97-122.55
	c2.1,0.26,4.35,0.1,6.54-0.52c8.03-2.35,12.81-10.31,11.49-18.36l123.1-35.92c3.23,7.5,11.55,11.64,19.55,9.28
	c8.7-2.52,13.69-11.6,11.16-20.29c-1.66-5.68-6.12-9.71-11.42-11.18l29.68-121.37c2.02,0.2,4.14,0.03,6.19-0.57
	c8.69-2.53,13.68-11.62,11.14-20.29c-2.52-8.71-11.62-13.68-20.3-11.15c-2.08,0.59-3.94,1.61-5.54,2.86l-90.28-86.39
	c3.69-4.08,5.28-9.89,3.61-15.55c-2.52-8.68-11.61-13.67-20.3-11.15c-8.03,2.35-12.82,10.33-11.48,18.37l-123.14,35.92
	c-3.19-7.51-11.52-11.66-19.57-9.31c-1.83,0.55-3.46,1.42-4.95,2.5l-92.52-88.53c2.97-3.99,4.13-9.2,2.63-14.3
	c-2.54-8.69-11.64-13.69-20.33-11.17c-8.02,2.35-12.81,10.32-11.49,18.38l-121.86,35.55c-3.21-7.51-11.52-11.66-19.55-9.32
	c-2.18,0.64-4.14,1.71-5.79,3.07l-91.14-87.21c2.95-3.97,4.11-9.21,2.62-14.3c-2.53-8.68-11.64-13.68-20.33-11.15
	c-8.02,2.34-12.8,10.31-11.47,18.36l-121.16,35.35c-3.22-7.51-11.53-11.66-19.56-9.31c-1.91,0.55-3.61,1.49-5.11,2.6l-92.58-88.58
	c2.95-3.97,4.11-9.2,2.6-14.3c-2.52-8.69-11.63-13.69-20.3-11.13c-8.03,2.32-12.82,10.29-11.48,18.38l-121.87,35.55
	c-3.22-7.51-11.51-11.67-19.57-9.34c-2.19,0.65-4.14,1.69-5.8,3.05l-91.12-87.19c2.92-3.97,4.1-9.2,2.6-14.29
	c-1.58-5.48-5.77-9.46-10.8-11.06l30.84-126.19c2.08,0.23,4.25,0.07,6.37-0.55c8.06-2.34,12.84-10.29,11.52-18.36l120.9-35.26
	c3.23,7.51,11.54,11.64,19.56,9.3c8.68-2.53,13.67-11.62,11.15-20.31c-1.49-5.11-5.28-8.88-9.9-10.66l29.96-122.52
	c2.12,0.23,4.33,0.09,6.52-0.54c8.03-2.34,12.81-10.29,11.49-18.36l123.69-36.08c3.69,6.36,11.33,9.64,18.69,7.49
	c1.49-0.43,2.82-1.11,4.08-1.88l91.75,87.79c-2.04,3.69-2.69,8.16-1.41,12.52c2.53,8.7,11.63,13.67,20.3,11.13
	c7.38-2.14,12.04-9.02,11.74-16.36l121.54-35.45c3.69,6.35,11.33,9.64,18.69,7.48c1.27-0.37,2.43-0.89,3.5-1.51l94.22,90.17
	c-2.54,3.85-3.48,8.74-2.07,13.53c1.49,5.14,5.29,8.93,9.94,10.68l-29.93,122.45c-2.1-0.25-4.29-0.1-6.46,0.54
	c-8.67,2.54-13.66,11.63-11.14,20.31c2.55,8.69,11.64,13.67,20.33,11.12c1.47-0.43,2.8-1.1,4.06-1.88l91.74,87.81
	c-2.03,3.69-2.69,8.15-1.41,12.52c2.52,8.69,11.63,13.67,20.3,11.14c7.37-2.16,12.04-9.03,11.75-16.37l121.55-35.47
	c3.68,6.37,11.32,9.66,18.69,7.51c8.68-2.54,13.69-11.63,11.13-20.31c-1.49-5.14-5.3-8.93-9.96-10.68l29.95-122.51
	c2.16,0.27,4.39,0.11,6.61-0.53c8.67-2.55,13.67-11.61,11.14-20.31c-2.54-8.69-11.62-13.68-20.32-11.15
	c-2.88,0.84-5.3,2.47-7.24,4.5l-91.02-87.09c3.92-4.09,5.65-10.04,3.95-15.86c-1.6-5.49-5.83-9.48-10.89-11.06l29.83-122
	c2.24,0.33,4.56,0.23,6.89-0.45c8.68-2.54,13.67-11.62,11.13-20.31c-2.54-8.68-11.61-13.67-20.3-11.15
	C2759.79,1075.64,2757.77,1076.81,2756.04,1078.29z M2575.58,1305.17c2.13,0.26,4.33,0.1,6.52-0.53
	c7.38-2.16,12.04-9.03,11.73-16.38l121.8-35.53c3.68,6.37,11.32,9.65,18.67,7.5c1.53-0.43,2.87-1.13,4.14-1.92l91.68,87.75
	c-2.1,3.7-2.78,8.23-1.49,12.65c1.49,5.1,5.28,8.87,9.89,10.66l-29.92,122.53c-2.17-0.26-4.38-0.12-6.57,0.51
	c-8.67,2.55-13.65,11.64-11.11,20.33l-120.55,35.16c-2.54-8.7-11.63-13.67-20.31-11.15c-2.96,0.84-5.4,2.51-7.35,4.61l-91.04-87.12
	c3.94-4.08,5.69-10.06,4-15.92c-1.5-5.16-5.37-8.97-10.04-10.71L2575.58,1305.17z M2179.19,1114.95l-123.2,35.93
	c-3.22-7.5-11.54-11.65-19.57-9.3c-2.12,0.61-3.97,1.62-5.59,2.9l-91.2-87.27c2.82-3.94,3.94-9.08,2.47-14.09
	c-1.46-5.01-5.15-8.74-9.64-10.57l31-126.85c1.88,0.16,3.81,0,5.72-0.56c6.7-1.95,11.15-7.77,11.71-14.32l122.72-35.79
	c3.99,5.2,10.88,7.72,17.57,5.78c1.16-0.34,2.24-0.81,3.27-1.37l93.48,89.45c-1.85,3.6-2.42,7.87-1.17,12.06
	c1.41,4.88,4.94,8.54,9.28,10.39l-29.99,122.73c-1.91-0.13-3.83-0.01-5.76,0.56C2181.63,1097.16,2176.65,1106.26,2179.19,1114.95z
	 M2219.91,2110.44l-121.04,35.33c-3.2-7.54-11.53-11.68-19.57-9.34c-2.29,0.67-4.32,1.85-6.03,3.32l-91.08-87.17
	c3.07-4,4.32-9.37,2.8-14.6c-1.51-5.22-5.47-9.07-10.22-10.79l33.47-136.97l135.88-39.62c3.2,7.5,11.51,11.63,19.55,9.28
	c2.11-0.61,3.98-1.63,5.6-2.89l91.23,87.31c-2.79,3.93-3.88,9.02-2.43,14.01c1.46,5,5.13,8.7,9.6,10.53l-30,122.68
	c-2.04-0.22-4.18-0.08-6.29,0.53C2223.38,2094.41,2218.6,2102.38,2219.91,2110.44z M2184.07,1679.72c-3.35,4.05-4.7,9.62-3.11,15.03
	c1.39,4.74,4.73,8.32,8.88,10.23l-30.04,122.89c-1.74-0.08-3.52,0.05-5.28,0.56c-7.36,2.15-12.01,9.03-11.74,16.39l-136.17,39.73
	l-102.43-98.04c2.61-3.88,3.63-8.85,2.21-13.71c-1.42-4.87-4.94-8.52-9.24-10.38l30.02-122.8c1.91,0.16,3.85,0.03,5.81-0.54
	c8.04-2.34,12.82-10.31,11.5-18.37l121.87-35.54c3.18,7.52,11.51,11.63,19.55,9.3c2.21-0.66,4.18-1.73,5.85-3.1L2184.07,1679.72z
	 M2450.44,1745.58c-2.97,3.99-4.15,9.25-2.64,14.38c1.5,5.15,5.29,8.92,9.95,10.69l-29.95,122.5c-2.15-0.26-4.39-0.11-6.6,0.53
	c-8.03,2.32-12.81,10.3-11.5,18.36l-120.9,35.26c-3.22-7.49-11.54-11.63-19.58-9.3c-2.23,0.66-4.2,1.75-5.89,3.16l-91.15-87.21
	c2.97-3.98,4.16-9.22,2.64-14.37c-1.48-5.15-5.31-8.93-9.97-10.68l29.95-122.46c2.11,0.25,4.3,0.07,6.48-0.55
	c8.02-2.34,12.82-10.31,11.48-18.34l121.15-35.35c3.22,7.5,11.53,11.64,19.57,9.3c2.21-0.66,4.18-1.71,5.84-3.1L2450.44,1745.58z
	 M2719.11,1811.66c-3.41,4.07-4.82,9.7-3.24,15.18c1.41,4.79,4.83,8.38,9.05,10.27L2694.89,1960c-1.85-0.13-3.74,0.02-5.6,0.57
	c-7.36,2.13-12.01,9.02-11.72,16.38l-121.8,35.51c-3.68-6.35-11.32-9.64-18.69-7.49c-1.82,0.55-3.44,1.41-4.9,2.45l-92.89-88.88
	c2.64-3.9,3.63-8.84,2.22-13.7c-1.43-4.89-4.94-8.53-9.25-10.39l30.02-122.81c1.91,0.16,3.86,0.01,5.81-0.55
	c8.06-2.33,12.86-10.29,11.49-18.36l121.86-35.53c3.23,7.52,11.54,11.64,19.56,9.3c2.23-0.64,4.19-1.74,5.87-3.12L2719.11,1811.66z
	 M2963.07,2024.59c-1.64-0.02-3.3,0.11-4.98,0.57c-8,2.34-12.8,10.34-11.48,18.38l-123.11,35.92c-3.23-7.52-11.53-11.66-19.57-9.3
	c-2.11,0.62-3.98,1.63-5.59,2.88l-91.2-87.27c2.82-3.93,3.92-9.05,2.47-14.07c-1.47-5.03-5.13-8.75-9.67-10.57l29.98-122.62
	c2.04,0.23,4.17,0.07,6.28-0.55c8.05-2.33,12.83-10.31,11.5-18.36l123.13-35.92c3.2,7.52,11.52,11.65,19.55,9.32
	c1.66-0.5,3.14-1.29,4.5-2.2l90.53,86.65c-3.12,4-4.36,9.36-2.82,14.6c1.51,5.25,5.47,9.11,10.24,10.81L2963.07,2024.59z
	 M2517.17,2184.44c2.97-3.96,4.13-9.22,2.64-14.35c-1.5-5.13-5.31-8.93-9.96-10.68l29.93-122.47c2.11,0.25,4.3,0.09,6.47-0.55
	c8.05-2.34,12.83-10.29,11.5-18.36l121.14-35.33c3.21,7.51,11.53,11.65,19.57,9.29c2.22-0.63,4.18-1.72,5.85-3.09l91.11,87.18
	c-2.98,3.99-4.15,9.24-2.64,14.38c1.49,5.13,5.31,8.92,9.96,10.68l-29.95,122.51c-2.16-0.28-4.4-0.14-6.61,0.53
	c-8.02,2.33-12.82,10.32-11.49,18.36l-120.92,35.25c-3.23-7.49-11.52-11.61-19.56-9.3c-2.24,0.67-4.21,1.77-5.89,3.16
	L2517.17,2184.44z M2248.49,2118.36c3.43-4.03,4.83-9.67,3.23-15.15c-1.38-4.78-4.8-8.39-9.05-10.29l30.06-122.9
	c1.86,0.13,3.77,0,5.67-0.56c7.37-2.16,12.02-9.02,11.72-16.38l121.57-35.45c3.7,6.35,11.32,9.65,18.68,7.49
	c1.88-0.54,3.53-1.46,5.02-2.53l92.86,88.85c-2.71,3.91-3.73,8.92-2.3,13.84c1.44,4.91,4.99,8.58,9.36,10.42l-29.98,122.69
	c-1.93-0.15-3.88,0-5.83,0.56c-8.02,2.34-12.81,10.33-11.48,18.37l-121.9,35.55c-2.9-8.09-11.59-12.65-19.95-10.22
	c-2.34,0.69-4.38,1.86-6.11,3.36L2248.49,2118.36z M1624.6,2303.25c2.51,0.5,5.15,0.5,7.78-0.29c8.04-2.31,12.83-10.28,11.5-18.33
	l121.49-35.46c3.68,6.38,11.32,9.66,18.69,7.51c1.39-0.42,2.66-1.02,3.86-1.74l91.84,87.87c-1.95,3.66-2.53,8.03-1.29,12.31
	c1.44,4.97,5.07,8.67,9.51,10.51l-30.77,125.95c-2.64-0.6-5.45-0.64-8.23,0.14c-8.04,2.33-12.81,10.32-11.49,18.37l-117.84,34.37
	c-3.23-7.46-11.5-11.58-19.52-9.23c-2.62,0.75-4.84,2.16-6.69,3.94l-90.22-86.36c2.78-3.95,3.87-9.01,2.41-14.01
	c-1.66-5.66-6.13-9.72-11.44-11.16L1624.6,2303.25z M1815.13,2103.23c2.13,0.26,4.33,0.07,6.53-0.55
	c7.35-2.15,12.01-9.01,11.72-16.36l121.79-35.55c3.67,6.37,11.32,9.65,18.69,7.52c1.5-0.46,2.86-1.15,4.13-1.93l91.68,87.75
	c-2.12,3.7-2.77,8.21-1.49,12.63c1.49,5.12,5.27,8.91,9.91,10.66l-29.96,122.55c-2.14-0.29-4.36-0.12-6.54,0.52
	c-8.68,2.51-13.65,11.6-11.13,20.3l-120.53,35.15c-2.53-8.68-11.63-13.67-20.32-11.14c-2.94,0.86-5.38,2.51-7.33,4.59l-91.04-87.12
	c3.94-4.11,5.68-10.06,3.98-15.91c-1.51-5.13-5.34-8.93-10.03-10.7L1815.13,2103.23z M1713.77,1986.75
	c3.93-4.1,5.7-10.07,3.99-15.91c-1.5-5.17-5.34-8.94-10.01-10.7l29.84-122.14c1.87,0.11,3.78-0.03,5.68-0.58
	c7.38-2.13,12-9.03,11.73-16.36l121.55-35.46c3.69,6.34,11.31,9.66,18.68,7.51c1.88-0.55,3.54-1.46,5.03-2.55l103.37,98.94
	l-33.42,136.76c-1.82-0.08-3.68,0.03-5.52,0.55c-8.05,2.37-12.84,10.31-11.5,18.39l-121.15,35.34c-3.21-7.52-11.55-11.64-19.57-9.32
	c-2.52,0.76-4.69,2.1-6.49,3.75L1713.77,1986.75z M1469.44,1773.24c1.83,0.11,3.67-0.04,5.52-0.58c8.06-2.34,12.83-10.3,11.5-18.36
	l122.53-35.72c3.21,7.51,11.53,11.63,19.56,9.28c2.11-0.61,3.98-1.62,5.59-2.91l91.24,87.31c-2.81,3.97-3.89,9.03-2.42,14.05
	c1.45,4.98,5.1,8.7,9.58,10.51l-29.9,122.31c-1.71-0.07-3.46,0.07-5.22,0.58c-8.03,2.34-12.8,10.31-11.48,18.39l-123.68,36.05
	c-3.22-7.5-11.53-11.66-19.57-9.31c-1.86,0.55-3.49,1.44-4.95,2.5l-90.27-86.37c3.5-4.08,4.94-9.76,3.35-15.29
	c-1.63-5.52-5.9-9.54-11.05-11.09L1469.44,1773.24z M1659.66,1574.43c2.13,0.23,4.29,0.07,6.47-0.57
	c8.03-2.33,12.82-10.28,11.48-18.34l121.17-35.34c3.22,7.5,11.53,11.65,19.56,9.28c2.21-0.62,4.17-1.72,5.83-3.08l91.13,87.2
	c-2.97,3.97-4.14,9.23-2.64,14.35c1.48,5.14,5.3,8.91,9.95,10.69l-29.95,122.5c-2.16-0.28-4.38-0.11-6.61,0.54
	c-8.02,2.34-12.81,10.29-11.48,18.38l-120.91,35.26c-3.23-7.51-11.55-11.65-19.57-9.31c-2.24,0.65-4.23,1.76-5.89,3.16l-91.17-87.23
	c2.99-3.97,4.15-9.2,2.68-14.35c-1.5-5.15-5.33-8.94-9.97-10.7L1659.66,1574.43z M1722.49,1254.32c3.7,6.33,11.33,9.65,18.69,7.5
	c1.63-0.47,3.05-1.24,4.36-2.11l91.67,87.69c-2.19,3.77-2.94,8.34-1.63,12.86c1.52,5.18,5.39,9,10.09,10.73l-30.9,126.45
	c-1.85-0.1-3.72,0.03-5.6,0.58c-7.37,2.16-12.01,9.04-11.71,16.39l-121.81,35.53c-3.68-6.36-11.32-9.67-18.69-7.52
	c-1.83,0.53-3.45,1.41-4.91,2.46l-92.19-88.21c3.2-4.03,4.51-9.46,2.96-14.8c-1.55-5.31-5.57-9.22-10.45-10.89l29.86-122.16
	c2.16,0.26,4.41,0.13,6.62-0.51c8.05-2.35,12.83-10.29,11.5-18.37L1722.49,1254.32z M1772.3,1108.37c2.13,0.24,4.3,0.09,6.45-0.54
	c8.05-2.34,12.84-10.29,11.5-18.36l121.17-35.34c3.21,7.51,11.53,11.64,19.55,9.3c2.22-0.64,4.17-1.73,5.84-3.12l91.14,87.22
	c-2.99,3.97-4.15,9.22-2.67,14.37c1.51,5.14,5.31,8.92,9.96,10.68l-29.95,122.51c-2.16-0.27-4.38-0.12-6.61,0.52
	c-8.02,2.35-12.81,10.32-11.48,18.38l-120.9,35.26c-3.24-7.5-11.56-11.64-19.59-9.3c-2.24,0.65-4.22,1.75-5.89,3.17l-91.16-87.25
	c2.99-3.97,4.15-9.23,2.67-14.34c-1.53-5.15-5.32-8.94-9.97-10.7L1772.3,1108.37z M1671.79,989.95c2.66-3.9,3.66-8.85,2.24-13.73
	c-1.43-4.86-4.93-8.5-9.26-10.36l30.03-122.8c1.91,0.15,3.86-0.01,5.82-0.57c8.03-2.35,12.82-10.3,11.48-18.35l123.71-36.08
	c3.69,6.37,11.32,9.65,18.69,7.51c1.39-0.42,2.64-1.05,3.85-1.76l91.85,87.89c-1.95,3.64-2.54,8.02-1.28,12.31
	c1.43,4.97,5.06,8.67,9.51,10.5l-31.03,126.91c-1.84-0.12-3.71,0.01-5.59,0.56c-7.37,2.15-12.03,9.03-11.73,16.39l-121.79,35.53
	c-3.69-6.37-11.32-9.67-18.7-7.51c-1.83,0.53-3.44,1.4-4.9,2.44L1671.79,989.95z M874.73,1356.52l121.35-35.4
	c3.22,7.51,11.53,11.64,19.56,9.31c2.22-0.65,4.17-1.72,5.84-3.1l91.15,87.25c-2.91,3.97-4.08,9.17-2.58,14.28
	c1.48,5.1,5.27,8.87,9.85,10.64l-30.6,125.22c-1.43,0.02-2.88,0.16-4.36,0.6c-6.99,2.03-11.48,8.33-11.69,15.27l-122.45,35.7
	c-3.88-5.73-11.08-8.59-18.07-6.57c-1.87,0.54-3.55,1.43-5.03,2.54l-104.26-99.78l33.48-137.06c2.04,0.23,4.18,0.06,6.31-0.56
	C871.26,1372.51,876.05,1364.57,874.73,1356.52z M1357.52,1629.24c-2.21-0.31-4.54-0.2-6.84,0.46
	c-8.03,2.34-12.82,10.31-11.48,18.39l-120.45,35.14c-3.5-6.88-11.48-10.56-19.18-8.31c-2.15,0.63-4.08,1.65-5.7,2.99l-91.15-87.23
	c2.88-3.96,4.04-9.13,2.57-14.22c-1.62-5.47-5.79-9.46-10.83-11.05l30.52-124.88c1.78,0.11,3.6-0.01,5.36-0.55
	c7.41-2.14,12.05-9.04,11.75-16.36l121.54-35.46c3.7,6.34,11.33,9.65,18.7,7.49c1.96-0.57,3.7-1.51,5.27-2.7l93.03,89.02
	c-3.36,4.06-4.73,9.64-3.12,15.07c1.47,5.06,5.19,8.78,9.72,10.59L1357.52,1629.24z M1167.23,1828.36
	c-1.76-0.09-3.58,0.06-5.36,0.59c-7.69,2.23-12.44,9.63-11.69,17.3l-121.12,35.34c-3.51-6.88-11.48-10.55-19.17-8.32
	c-2.29,0.66-4.3,1.82-6.01,3.26l-91.11-87.2c3.01-3.98,4.23-9.29,2.72-14.48c-1.62-5.57-5.95-9.6-11.11-11.09l29.88-122.3
	c2.47,0.48,5.07,0.47,7.67-0.29c8.39-2.45,13.27-11.01,11.29-19.42l120.97-35.27c2.84,8.13,11.57,12.74,19.95,10.31
	c2.17-0.65,4.1-1.69,5.74-3.02l91.15,87.22c-2.9,3.96-4.05,9.15-2.56,14.24c1.36,4.7,4.71,8.27,8.82,10.21L1167.23,1828.36z
	 M1077.74,2146.42c-2.68,3.92-3.71,8.91-2.28,13.85c1.42,4.88,5,8.57,9.36,10.43l-29.97,122.68c-1.93-0.17-3.89-0.02-5.83,0.57
	c-8.06,2.32-12.84,10.28-11.5,18.36l-136.38,39.77l-103.3-98.86c3.28-4.07,4.61-9.54,3.04-14.93c-1.36-4.68-4.67-8.21-8.74-10.18
	l30.07-122.97c1.72,0.08,3.52-0.05,5.25-0.57c7.39-2.15,12.04-9.03,11.75-16.38l123.29-35.96c3.2,7.52,11.49,11.65,19.55,9.28
	c1.7-0.48,3.23-1.31,4.62-2.25L1077.74,2146.42z M1322.31,2358.62c-2.16-0.24-4.38-0.09-6.61,0.55
	c-8.04,2.34-12.81,10.3-11.49,18.36l-120.9,35.28c-3.2-7.51-11.54-11.67-19.57-9.3c-2.24,0.65-4.23,1.74-5.9,3.15l-91.16-87.22
	c2.98-3.99,4.15-9.23,2.66-14.37c-1.49-5.11-5.31-8.92-9.95-10.66l29.93-122.47c2.11,0.25,4.3,0.09,6.48-0.53
	c8.04-2.37,12.81-10.29,11.49-18.38l121.14-35.32c3.24,7.49,11.53,11.64,19.57,9.28c2.19-0.65,4.17-1.72,5.84-3.1l91.12,87.19
	c-2.97,3.98-4.15,9.22-2.66,14.37c1.5,5.12,5.32,8.92,9.97,10.68L1322.31,2358.62z M1132.34,2558.66c-1.69-0.04-3.41,0.07-5.12,0.58
	c-8.02,2.33-12.81,10.32-11.49,18.35l-122.97,35.87c-3.21-7.48-11.52-11.64-19.55-9.29c-2.12,0.62-3.99,1.63-5.61,2.95l-91.17-87.29
	c2.84-3.96,3.94-9.05,2.47-14.1c-1.47-5.04-5.16-8.78-9.68-10.59l33.59-137.37l136.7-39.88c3.71,6.33,11.33,9.66,18.68,7.48
	c1.61-0.46,3.05-1.19,4.37-2.05l91.65,87.71c-2.18,3.72-2.91,8.32-1.61,12.78c1.53,5.19,5.38,9.01,10.09,10.79L1132.34,2558.66z
	 M709.07,2570.97c2.12,0.26,4.28,0.07,6.46-0.57c8.04-2.32,12.83-10.28,11.5-18.34l121.13-35.34c3.25,7.5,11.56,11.64,19.58,9.29
	c2.22-0.64,4.2-1.72,5.86-3.08l91.1,87.18c-2.97,3.99-4.14,9.22-2.65,14.37c1.51,5.11,5.32,8.91,9.95,10.68l-29.94,122.53
	c-2.15-0.29-4.4-0.12-6.6,0.52c-8.03,2.32-12.81,10.28-11.5,18.36l-120.9,35.27c-3.25-7.52-11.53-11.64-19.59-9.29
	c-2.22,0.64-4.2,1.74-5.89,3.15l-91.15-87.22c2.99-3.99,4.15-9.25,2.66-14.37c-1.47-5.11-5.31-8.94-9.96-10.7L709.07,2570.97z
	 M632.08,2303.49c1.88,0.11,3.79,0,5.68-0.55c7.36-2.16,12.02-9.03,11.73-16.37l121.56-35.46c3.69,6.35,11.32,9.65,18.7,7.49
	c1.87-0.55,3.53-1.42,5.02-2.52l103.37,98.93l-33.98,139c-1.85-0.12-3.72,0-5.58,0.52c-7.36,2.18-12.02,9.07-11.72,16.4
	l-121.79,35.54c-3.7-6.36-11.35-9.66-18.7-7.5c-1.83,0.52-3.43,1.43-4.9,2.46l-91.38-87.4c2.56-3.89,3.51-8.78,2.12-13.58
	c-1.6-5.45-5.83-9.46-10.89-11.04L632.08,2303.49z M554.18,2039.94c2.1,0.22,4.27,0.05,6.45-0.57c8.03-2.35,12.82-10.29,11.49-18.38
	l121.16-35.3c3.23,7.49,11.53,11.63,19.56,9.28c2.22-0.63,4.17-1.73,5.85-3.11l91.11,87.21c-2.98,3.98-4.14,9.21-2.67,14.37
	c1.53,5.11,5.32,8.9,9.97,10.66l-29.94,122.51c-2.17-0.27-4.4-0.11-6.62,0.53c-8.02,2.34-12.79,10.31-11.48,18.38l-120.9,35.26
	c-3.25-7.5-11.54-11.65-19.58-9.3c-2.25,0.63-4.23,1.75-5.91,3.15l-91.15-87.23c2.99-3.96,4.15-9.21,2.66-14.33
	c-1.49-5.17-5.31-8.96-9.96-10.7L554.18,2039.94z M744.23,1841.76c1.82,0.06,3.65-0.05,5.52-0.58c8.02-2.33,12.81-10.31,11.48-18.36
	l123.9-36.12c3.44,6.98,11.48,10.7,19.22,8.45c1.56-0.46,2.93-1.18,4.23-2.03l91.69,87.75c-2.14,3.72-2.81,8.25-1.53,12.7
	c1.4,4.77,4.79,8.33,8.96,10.25l-30.72,125.65c-1.36,0.04-2.75,0.21-4.12,0.59c-7.35,2.16-12.01,9.03-11.71,16.39l-123.3,35.97
	c-3.21-7.51-11.53-11.65-19.57-9.31c-2.11,0.6-3.99,1.63-5.6,2.91l-91.17-87.29c2.83-3.95,3.93-9.04,2.47-14.06
	c-1.48-5.02-5.15-8.78-9.66-10.57L744.23,1841.76z M642.93,1722.18c3.29-4.05,4.62-9.56,3.03-14.95c-1.35-4.67-4.65-8.22-8.72-10.15
	l30.06-123c1.73,0.07,3.52-0.06,5.26-0.57c7.37-2.15,12.02-9,11.74-16.37l136.16-39.71l103.35,98.88c-2.62,3.9-3.62,8.86-2.2,13.72
	c1.31,4.48,4.39,7.96,8.23,9.93l-30.11,123.15c-1.5,0-3.03,0.13-4.56,0.59c-7.69,2.26-12.44,9.63-11.68,17.31l-124.21,36.24
	c-3.7-6.36-11.34-9.67-18.71-7.5c-1.49,0.42-2.84,1.12-4.12,1.93L642.93,1722.18z M399.26,1508.88c2.11,0.23,4.28,0.06,6.46-0.56
	c8.05-2.35,12.82-10.29,11.51-18.35l121.14-35.32c3.22,7.49,11.52,11.62,19.56,9.26c2.2-0.64,4.16-1.7,5.84-3.09l91.12,87.2
	c-2.96,3.98-4.15,9.25-2.64,14.37c1.5,5.13,5.32,8.93,9.95,10.69l-29.92,122.5c-2.17-0.26-4.4-0.11-6.62,0.52
	c-8.04,2.35-12.82,10.33-11.49,18.39l-120.9,35.27c-3.23-7.51-11.54-11.68-19.58-9.33c-2.24,0.64-4.22,1.77-5.89,3.19l-91.15-87.24
	c2.97-3.97,4.15-9.21,2.65-14.37c-1.49-5.13-5.3-8.91-9.96-10.68L399.26,1508.88z M321.81,1243.37c2.12,0.26,4.29,0.08,6.46-0.56
	c8.04-2.34,12.83-10.3,11.5-18.35l122.04-35.6c3.19,7.51,11.51,11.63,19.54,9.29c1.94-0.57,3.66-1.49,5.19-2.63l91.37,87.43
	c-2.58,3.89-3.56,8.82-2.15,13.65c1.41,4.83,4.89,8.46,9.15,10.33l-30.54,124.96c-1.86-0.11-3.74,0.03-5.62,0.58
	c-7.36,2.16-12.02,9.05-11.71,16.4l-121.81,35.52c-3.67-6.34-11.31-9.68-18.71-7.52c-1.82,0.52-3.42,1.41-4.91,2.45l-92.45-88.45
	c2.98-3.98,4.16-9.23,2.66-14.38c-1.5-5.14-5.31-8.94-9.97-10.68L321.81,1243.37z M745.01,1231.41c-2.02-0.22-4.09-0.04-6.12,0.54
	c-8.05,2.34-12.84,10.31-11.5,18.37l-120.92,35.27c-3.2-7.52-11.52-11.65-19.57-9.31c-2.39,0.69-4.48,1.93-6.22,3.5l-91.08-87.17
	c3.18-4.02,4.47-9.45,2.9-14.76c-1.55-5.3-5.55-9.2-10.39-10.88l29.92-122.36c2.24,0.33,4.6,0.23,6.91-0.45
	c8.05-2.35,12.82-10.32,11.5-18.37l121.15-35.33c3.24,7.5,11.54,11.63,19.56,9.3c2.04-0.61,3.88-1.6,5.46-2.83l91.26,87.32
	c-2.77,3.93-3.83,8.99-2.39,13.97c1.45,4.96,5.09,8.65,9.51,10.48L745.01,1231.41z M845.29,1349.77c-2.74,3.94-3.82,9-2.37,13.97
	c1.44,4.98,5.06,8.66,9.52,10.5l-33.63,137.53l-135.87,39.64c-3.18-7.51-11.53-11.67-19.56-9.34c-2.12,0.63-4,1.62-5.6,2.92
	l-91.19-87.25c2.84-3.97,3.94-9.08,2.47-14.12c-1.46-5.03-5.15-8.76-9.67-10.57l30.52-124.77c2.01,0.2,4.1,0.06,6.15-0.55
	c7.38-2.15,12.03-9.03,11.73-16.37l121.57-35.46c3.68,6.34,11.31,9.66,18.69,7.5c1.69-0.49,3.21-1.31,4.59-2.27L845.29,1349.77z
	 M1047.06,1176.98c1.99,0.21,4.11,0.05,6.16-0.55c8.03-2.34,12.82-10.29,11.49-18.35l121.16-35.33c3.22,7.51,11.53,11.63,19.55,9.29
	c2.31-0.67,4.34-1.84,6.06-3.3l91.07,87.16c-3.09,3.99-4.33,9.37-2.8,14.61c1.53,5.23,5.45,9.08,10.24,10.79l-29.94,122.47
	c-2.24-0.31-4.58-0.22-6.9,0.45c-8.03,2.35-12.82,10.31-11.49,18.38l-120.91,35.26c-3.22-7.5-11.54-11.65-19.56-9.3
	c-2.15,0.61-4.07,1.64-5.68,2.97l-91.23-87.28c2.85-3.96,3.96-9.08,2.51-14.1c-1.48-5.05-5.18-8.8-9.69-10.6L1047.06,1176.98z
	 M1237.08,976.65c1.84,0.11,3.68-0.03,5.52-0.56c8.04-2.34,12.83-10.3,11.5-18.35l122.54-35.73c3.17,7.49,11.5,11.63,19.52,9.28
	c2.15-0.6,3.99-1.63,5.62-2.89l91.23,87.31c-2.78,3.95-3.88,9.04-2.43,14.04c1.46,5.01,5.13,8.71,9.62,10.52l-33.62,137.47
	l-137,39.97c-3.7-6.36-11.33-9.67-18.7-7.52c-1.51,0.44-2.84,1.12-4.11,1.93l-91.67-87.74c2.07-3.72,2.77-8.23,1.45-12.65
	c-1.46-5.1-5.26-8.88-9.86-10.66L1237.08,976.65z M1682.95,817c-2.97,3.99-4.16,9.25-2.66,14.38c1.49,5.13,5.32,8.92,9.97,10.67
	l-29.95,122.53c-2.15-0.28-4.4-0.14-6.6,0.5c-8.06,2.34-12.83,10.33-11.49,18.38l-120.93,35.28c-3.19-7.5-11.51-11.67-19.57-9.33
	c-2.24,0.66-4.21,1.76-5.91,3.18l-91.13-87.23c2.99-3.98,4.15-9.23,2.64-14.37c-1.47-5.12-5.29-8.93-9.94-10.68l29.96-122.46
	c2.11,0.24,4.28,0.08,6.44-0.54c8.02-2.35,12.82-10.31,11.5-18.34l121.13-35.35c3.23,7.5,11.54,11.62,19.57,9.28
	c2.23-0.65,4.19-1.72,5.85-3.1L1682.95,817z M2140.08,682.99c-2.09,3.71-2.76,8.24-1.47,12.65c1.48,5.11,5.28,8.88,9.88,10.66
	l-29.95,122.53c-2.13-0.26-4.35-0.1-6.52,0.53c-8.66,2.54-13.66,11.63-11.14,20.31l-120.52,35.17
	c-2.56-8.69-11.64-13.69-20.34-11.16c-2.91,0.87-5.39,2.52-7.32,4.63l-91.04-87.14c3.92-4.08,5.67-10.05,3.96-15.9
	c-1.48-5.16-5.34-8.97-10.01-10.72l29.94-122.42c2.14,0.26,4.34,0.09,6.53-0.55c7.35-2.16,12.03-9.02,11.73-16.37l121.77-35.52
	c3.69,6.35,11.35,9.65,18.68,7.49c1.55-0.44,2.86-1.15,4.15-1.92L2140.08,682.99z M2576.09,695.88c-2.46-0.46-5.02-0.43-7.57,0.32
	c-8.67,2.52-13.65,11.63-11.13,20.32l-120.53,35.16c-2.54-8.69-11.64-13.68-20.33-11.15c-2.55,0.74-4.76,2.13-6.59,3.85
	l-91.03-87.12c3.43-4.04,4.83-9.68,3.22-15.15c-1.4-4.79-4.8-8.4-9.02-10.3l30.02-122.83c1.81,0.1,3.64-0.04,5.46-0.56
	c7.39-2.16,12.03-9.04,11.74-16.39l121.77-35.53c3.71,6.36,11.32,9.66,18.7,7.5c1.87-0.54,3.54-1.44,5.03-2.53l91.37,87.45
	c-2.52,3.88-3.47,8.76-2.08,13.55c1.6,5.48,5.81,9.48,10.89,11.05L2576.09,695.88z M2385.63,895.69c-1.82-0.13-3.68,0-5.53,0.55
	c-8.03,2.33-12.81,10.32-11.48,18.38l-121.16,35.33c-3.23-7.51-11.53-11.65-19.57-9.31c-2.53,0.74-4.68,2.07-6.48,3.75l-92.51-88.52
	c3.57-4.07,5.06-9.77,3.44-15.36c-1.43-4.89-4.98-8.54-9.32-10.41l30.02-122.76c1.93,0.16,3.91,0.01,5.89-0.56
	c7.36-2.15,12.04-9.02,11.72-16.38l121.68-35.49c3.7,6.36,11.33,9.65,18.67,7.5c1.77-0.51,3.35-1.36,4.78-2.33l91.52,87.56
	c-2.37,3.82-3.24,8.56-1.88,13.21c1.57,5.35,5.61,9.27,10.51,10.93L2385.63,895.69z M2485.08,1013.49
	c-2.1,3.71-2.77,8.24-1.49,12.66c1.49,5.11,5.27,8.89,9.92,10.65l-29.98,122.54c-2.13-0.26-4.34-0.12-6.53,0.52
	c-8.66,2.54-13.63,11.63-11.11,20.33l-120.54,35.15c-2.54-8.68-11.63-13.68-20.31-11.14c-2.95,0.85-5.4,2.49-7.35,4.58l-91.03-87.1
	c3.93-4.1,5.67-10.07,3.98-15.92c-1.52-5.15-5.36-8.95-10.04-10.73l29.95-122.42c2.13,0.26,4.34,0.1,6.52-0.54
	c7.37-2.15,12.02-9.02,11.72-16.39l121.81-35.51c3.67,6.35,11.32,9.64,18.68,7.5c1.52-0.45,2.87-1.15,4.14-1.94L2485.08,1013.49z
	 M2753.42,1081.23c-2.79,3.95-3.89,9.06-2.44,14.07c1.45,5,5.13,8.72,9.61,10.53l-29.92,122.41c-1.82-0.11-3.67,0.01-5.52,0.54
	c-8.05,2.35-12.82,10.33-11.5,18.38l-121.15,35.35c-3.22-7.51-11.53-11.67-19.56-9.32c-2.53,0.75-4.7,2.07-6.49,3.75l-93.58-89.54
	c4.26-4.1,6.22-10.31,4.46-16.38c-1.38-4.7-4.7-8.26-8.83-10.19l30.07-122.96c1.75,0.08,3.55-0.05,5.34-0.57
	c6.69-1.96,11.14-7.81,11.69-14.32l120.7-35.21c3.22,7.53,11.53,11.63,19.56,9.3c2.33-0.67,4.38-1.87,6.08-3.37L2753.42,1081.23z"/>
<defs>
	
		<filter id="Adobe_OpacityMaskFilter_00000079446191212524727540000007056312644350043582_" filterUnits="userSpaceOnUse" x="852.82" y="0" width="2564.76" height="1912.68">
		<feColorMatrix  type="matrix" values="1 0 0 0 0  0 1 0 0 0  0 0 1 0 0  0 0 0 1 0"/>
	</filter>
</defs>
<mask maskUnits="userSpaceOnUse" x="852.82" y="0" width="2564.76" height="1912.68" id="SVGID_00000169542698934138736880000014240643852754521516_">
	<g style="filter:url(#Adobe_OpacityMaskFilter_00000079446191212524727540000007056312644350043582_);">
		
			<radialGradient id="SVGID_00000044152368568192885340000002357590960080286108_" cx="1289.9784" cy="1250.4784" r="1393.7899" gradientTransform="matrix(-0.5631 0.8264 -0.8264 -0.5631 4003.2847 663.6455)" gradientUnits="userSpaceOnUse">
			<stop  offset="0" style="stop-color:#FFFFFF"/>
			<stop  offset="0.2325" style="stop-color:#A19EA3"/>
			<stop  offset="0.5089" style="stop-color:#504E53"/>
			<stop  offset="0.7382" style="stop-color:#212126"/>
			<stop  offset="0.9081" style="stop-color:#08090C"/>
			<stop  offset="1" style="stop-color:#020203"/>
		</radialGradient>
		<path style="fill:url(#SVGID_00000044152368568192885340000002357590960080286108_);" d="M1458.7,2177.4
			C822.54,1743.99,658.19,876.9,1091.64,240.75c433.41-636.15,1300.48-800.5,1936.65-367.08
			c636.17,433.43,800.5,1300.51,367.06,1936.67C2961.95,2446.48,2094.86,2610.85,1458.7,2177.4z"/>
	</g>
</mask>
<path style="mask:url(#SVGID_00000169542698934138736880000014240643852754521516_);fill:#C6DB96;" d="M3369.13,793.15
	l-57.99-112.55c3.9-2.81,6.57-7.25,6.83-12.43c0.43-9.03-6.54-16.73-15.59-17.16c-8.34-0.4-15.45,5.58-16.83,13.63l-124.65-5.95
	c0.13-0.65,0.27-1.28,0.3-1.96c0.44-9.03-6.55-16.72-15.58-17.15c-3-0.13-5.82,0.61-8.31,1.9l-57.69-111.96
	c5.02-2.6,8.57-7.67,8.87-13.72c0.26-5.7-2.41-10.84-6.69-13.98l68.92-107.21c1.77,0.8,3.7,1.3,5.76,1.4
	c7.7,0.36,14.34-4.62,16.44-11.67l126.47,6.05c1.41,7.21,7.56,12.8,15.24,13.16c9.03,0.45,16.71-6.52,17.12-15.56
	c0.25-4.94-1.79-9.45-5.15-12.63l68.42-106.42c1.7,0.7,3.46,1.16,5.38,1.26c9.07,0.43,16.74-6.53,17.17-15.57
	c0.42-9.04-6.56-16.72-15.57-17.15c-2.65-0.13-5.11,0.43-7.36,1.44l-57.71-111.98c4.52-2.71,7.65-7.57,7.94-13.24
	c0.42-9.06-6.56-16.73-15.59-17.16c-9.01-0.43-16.68,6.55-17.14,15.59l-125.66-5.99c0.44-9.04-6.55-16.72-15.58-17.16
	c-9.03-0.42-16.69,6.56-17.12,15.6c-0.29,5.74,2.42,10.88,6.74,14.03l-68.08,105.89c-2.15-1.22-4.57-2.01-7.21-2.13
	c-9.01-0.44-16.69,6.55-17.11,15.58l-125.53-6c0.4-9.02-6.57-16.71-15.6-17.14c-3.02-0.13-5.82,0.61-8.3,1.89l-57.73-111.96
	c5.04-2.6,8.61-7.65,8.9-13.71c0.44-9.05-6.54-16.72-15.57-17.16c-9.03-0.43-16.7,6.55-17.13,15.61l-125.65-6.01
	c0.4-9.04-6.57-16.73-15.6-17.16c-9.02-0.43-16.7,6.54-17.13,15.58c-0.25,5.36,2.13,10.16,5.93,13.35l-68.14,106.04
	c-1.92-0.92-4.07-1.49-6.29-1.59c-9.04-0.44-16.71,6.54-17.17,15.58l-128.16-6.11c-0.59-8.16-7.11-14.8-15.48-15.2
	c-2.27-0.12-4.46,0.26-6.48,1.01L2385.2,82.84c4.08-2.8,6.88-7.35,7.13-12.68c0.45-9.04-6.54-16.72-15.58-17.15
	c-8.34-0.39-15.49,5.6-16.82,13.64l-126.08-6.02c-0.59-8.15-7.11-14.8-15.48-15.17c-9.03-0.45-16.7,6.53-17.16,15.57
	c-0.25,5.38,2.16,10.23,6.03,13.4l-68.16,106.01c-1.94-0.92-4.08-1.51-6.37-1.61c-8.35-0.4-15.47,5.59-16.84,13.63l-127.49-6.07
	c-0.59-8.15-7.11-14.81-15.47-15.2c-9.03-0.44-16.72,6.54-17.13,15.58c-0.28,5.72,2.42,10.86,6.69,14l-69.04,107.43
	c-1.95-0.96-4.12-1.56-6.42-1.66c-8.36-0.4-15.46,5.58-16.84,13.62l-126.07-6.02c-0.59-8.14-7.11-14.76-15.47-15.17
	c-9.03-0.42-16.72,6.56-17.12,15.59c-0.28,5.47,2.22,10.4,6.19,13.57l-68.11,105.99c-2-1.01-4.23-1.65-6.63-1.77
	c-8.34-0.4-15.47,5.58-16.82,13.63l-126.29-6.03c-0.58-8.16-7.08-14.79-15.48-15.2c-2.45-0.11-4.76,0.37-6.89,1.23l-58.51-113.51
	c4.76-2.67,8.08-7.61,8.37-13.46c0.26-5.5-2.22-10.45-6.24-13.61l68.15-106.04c2.05,1.05,4.32,1.74,6.77,1.86
	c9.03,0.44,16.7-6.52,17.15-15.57c0.4-9.03-6.57-16.72-15.6-17.15c-2.44-0.12-4.76,0.34-6.91,1.2l-57.74-112.04
	c4.31-2.74,7.26-7.45,7.51-12.94c0.46-9.04-6.52-16.72-15.56-17.15c-8.36-0.4-15.47,5.57-16.85,13.63l-126.07-6.02
	c-0.6-8.16-7.1-14.79-15.48-15.2c-9.02-0.41-16.69,6.57-17.14,15.61c-0.24,5.19,2.01,9.88,5.63,13.05l-68.23,106.17
	c-1.82-0.81-3.81-1.35-5.92-1.44c-8.34-0.41-15.46,5.56-16.84,13.62l-126.95-6.06c-0.59-8.15-7.13-14.78-15.48-15.18
	c-9.03-0.43-16.72,6.56-17.15,15.58c-0.25,5.38,2.15,10.21,6,13.38L942.26,260.8c-1.93-0.93-4.09-1.52-6.35-1.61
	c-9.03-0.44-16.71,6.56-17.13,15.59c-0.43,9.02,6.53,16.7,15.57,17.11c2.3,0.11,4.47-0.24,6.49-0.99l58.46,113.42
	c-4.59,2.71-7.78,7.6-8.06,13.31c-0.24,5.37,2.13,10.22,6.02,13.4l-68.18,106.02c-1.92-0.94-4.08-1.53-6.34-1.63
	c-9.05-0.43-16.72,6.54-17.16,15.59c-0.44,9.04,6.56,16.7,15.59,17.13c2.25,0.12,4.45-0.24,6.47-0.99l57.8,112.18
	c-4.01,2.81-6.78,7.33-7.04,12.61c-0.45,9.03,6.55,16.71,15.57,17.14c8.36,0.42,15.5-5.57,16.83-13.59l125.83,6
	c0.6,8.14,7.11,14.75,15.48,15.14c2.03,0.11,3.97-0.22,5.8-0.82l59.16,114.81c-5,2.61-8.59,7.68-8.88,13.73
	c-0.28,5.69,2.43,10.84,6.71,13.97l-67.89,105.62c-2.02-1.01-4.24-1.67-6.62-1.79c-8.38-0.39-15.5,5.59-16.88,13.64l-126.06-6.02
	c-0.59-8.15-7.11-14.77-15.48-15.17c-9-0.43-16.69,6.55-17.13,15.61c-0.25,5.35,2.16,10.18,6.02,13.37l-68.16,106.02
	c-1.94-0.94-4.07-1.49-6.36-1.61c-9.02-0.44-16.72,6.55-17.15,15.58c-0.43,9.05,6.54,16.72,15.58,17.16
	c2.29,0.09,4.47-0.29,6.49-1.04l57.81,112.18c-4.05,2.81-6.83,7.33-7.06,12.63c-0.28,5.66,2.37,10.77,6.58,13.92l-70.11,109.05
	c-1.7-0.68-3.51-1.15-5.41-1.24c-9.03-0.45-16.71,6.54-17.13,15.58c-0.45,9.04,6.53,16.71,15.58,17.14c2.6,0.14,5.11-0.42,7.35-1.45
	l57.68,111.91c-4.59,2.71-7.78,7.59-8.06,13.33c-0.26,5.37,2.14,10.21,5.99,13.39l-68.15,106.01c-1.93-0.93-4.06-1.49-6.35-1.6
	c-9.02-0.42-16.7,6.53-17.15,15.58c-0.43,9.02,6.57,16.71,15.57,17.14c2.28,0.11,4.48-0.28,6.49-1.01l57.83,112.18
	c-4.07,2.8-6.81,7.32-7.07,12.61c-0.44,9.04,6.54,16.71,15.58,17.15c8.34,0.42,15.47-5.58,16.84-13.61l125.82,6.01
	c0.59,8.13,7.14,14.75,15.48,15.15c9.03,0.45,16.7-6.53,17.14-15.57c0.26-5.34-2.11-10.13-5.88-13.31l68.18-106.08
	c1.95,0.93,4.09,1.5,6.36,1.61c8.37,0.42,15.48-5.57,16.86-13.62l127.93,6.11c0.6,8.15,7.12,14.75,15.5,15.16
	c9,0.44,16.7-6.54,17.11-15.56c0.29-5.84-2.56-11.1-7.02-14.23l68.86-107.14c1.9,0.88,3.99,1.46,6.22,1.56
	c8.37,0.4,15.47-5.58,16.85-13.62l125.82,6c0.59,8.16,7.12,14.78,15.48,15.17c9.05,0.44,16.71-6.54,17.14-15.57
	c0.26-5.33-2.12-10.12-5.89-13.31l68.19-106.11c1.93,0.94,4.11,1.52,6.37,1.61c9.03,0.45,16.7-6.54,17.12-15.58
	c0.44-9.05-6.52-16.72-15.57-17.15c-2.28-0.1-4.46,0.26-6.48,1.01l-57.79-112.11c4.1-2.8,6.89-7.34,7.14-12.67
	c0.46-9.06-6.53-16.72-15.57-17.16c-8.37-0.39-15.47,5.59-16.86,13.63l-126.05-6.01c-0.62-8.14-7.13-14.77-15.48-15.17
	c-2.51-0.12-4.91,0.38-7.05,1.29l-57.51-111.55c4.76-2.68,8.08-7.62,8.37-13.48c0.3-6.19-2.96-11.7-7.89-14.71l69.52-108.12
	c2.15,1.24,4.59,2.06,7.26,2.19c8.73,0.42,16.14-6.1,17.01-14.69l125.61,6.01c0.03,8.63,6.78,15.83,15.51,16.24
	c9.05,0.42,16.73-6.54,17.15-15.58c0.28-5.77-2.47-10.97-6.86-14.09l68.12-105.95c2.2,1.27,4.69,2.11,7.4,2.23
	c8.73,0.43,16.12-6.1,17.01-14.69l125.1,5.98c0.58,8.14,7.1,14.76,15.48,15.16c9.02,0.43,16.7-6.54,17.14-15.58
	c0.26-5.25-2.04-9.98-5.72-13.16l67.7-105.31c1.99,1.01,4.2,1.63,6.56,1.74c9.03,0.43,16.71-6.53,17.16-15.56
	c0.42-9.04-6.54-16.73-15.59-17.16c-1.97-0.1-3.88,0.21-5.66,0.78l-59.02-114.52c4.4-2.74,7.44-7.54,7.7-13.09
	c0.24-5.22-2.01-9.93-5.69-13.11l68.28-106.2c1.86,0.85,3.91,1.41,6.07,1.51c9.03,0.43,16.71-6.54,17.15-15.57l144.3,6.89
	l77.68-120.86c2.01,1.04,4.23,1.7,6.68,1.83c8.36,0.39,15.44-5.58,16.83-13.61l125.83,6.01c0.59,8.13,7.1,14.73,15.46,15.13
	c2.56,0.13,4.95-0.38,7.16-1.32l58.67,113.82c-4.59,2.71-7.78,7.59-8.05,13.33c-0.25,5.36,2.13,10.21,5.97,13.39l-68.12,106.01
	c-1.94-0.94-4.09-1.51-6.38-1.62c-9.02-0.43-16.71,6.56-17.12,15.59l-126.57-6.04c-0.58-8.14-7.12-14.76-15.45-15.16
	c-9.03-0.43-16.71,6.56-17.15,15.59c-0.24,5.29,2.08,10.08,5.86,13.26l-68.11,105.96c-1.81-0.78-3.77-1.32-5.86-1.43
	c-9.05-0.42-16.7,6.56-17.14,15.61c-0.41,9.03,6.54,16.69,15.57,17.13c2.1,0.11,4.09-0.23,5.96-0.87l58.4,113.28
	c-4.59,2.71-7.79,7.59-8.07,13.32c-0.25,5.37,2.15,10.22,5.97,13.37l-68.13,106.03c-1.94-0.93-4.08-1.5-6.36-1.61
	c-8.36-0.39-15.48,5.58-16.86,13.62l-127.48-6.08c-0.59-8.14-7.12-14.78-15.47-15.17c-9.03-0.44-16.71,6.54-17.13,15.59
	c-0.29,5.7,2.39,10.85,6.68,13.98l-67.57,105.13c-1.64-0.66-3.4-1.12-5.27-1.2c-9.05-0.44-16.7,6.54-17.15,15.59
	c-0.4,9.02,6.56,16.7,15.58,17.13c1.87,0.08,3.66-0.21,5.35-0.71l57.25,111.08c-4.53,2.73-7.7,7.61-7.98,13.3
	c-0.42,9.04,6.52,16.7,15.57,17.12c8.37,0.41,15.48-5.55,16.86-13.6l128.69,6.15c0.6,8.13,7.09,14.75,15.46,15.15
	c1.55,0.07,3.02-0.13,4.47-0.47l58.8,114.11c-3.66,2.83-6.15,7.12-6.4,12.13c-0.23,5.33,2.13,10.18,5.95,13.33l-68.17,106.03
	c-1.89-0.91-4.02-1.48-6.29-1.6c-9.02-0.42-16.71,6.57-17.14,15.6l-125.89-6.01c-0.61-8.16-7.11-14.77-15.47-15.17
	c-9.01-0.42-16.71,6.56-17.15,15.6c-0.23,4.88,1.74,9.3,4.99,12.48l-69.62,108.29c-1.53-0.56-3.13-0.96-4.88-1.09
	c-9.02-0.41-16.71,6.58-17.13,15.6c-0.42,9.05,6.53,16.73,15.57,17.16c2.43,0.11,4.74-0.34,6.86-1.19l57.29,111.15
	c-3.54,2.86-5.92,7.08-6.17,11.99c-0.42,9.02,6.55,16.69,15.58,17.11c8.4,0.41,15.51-5.6,16.86-13.69l122.59,5.85
	c0.58,8.13,7.1,14.78,15.46,15.18c9.03,0.42,16.71-6.55,17.16-15.58c0.22-4.72-1.62-9.04-4.65-12.18l70.22-109.27
	c2.04,1.06,4.31,1.75,6.75,1.84c7.69,0.38,14.31-4.61,16.44-11.66l126.45,6.06c1.42,7.18,7.57,12.81,15.24,13.17
	c9.03,0.44,16.72-6.53,17.15-15.57c0.28-5.36-2.12-10.19-5.93-13.33l68.18-106.13c1.97,0.96,4.12,1.56,6.42,1.67
	c8.38,0.39,15.49-5.58,16.85-13.63l125.94,6.01c0.6,8.16,7.12,14.79,15.48,15.15c1.93,0.11,3.75-0.19,5.5-0.71l58.25,113.05
	c-3.89,2.82-6.56,7.27-6.81,12.48c-0.45,9.01,6.54,16.68,15.59,17.11c8.02,0.38,14.93-5.07,16.69-12.64l127.03,6.07
	c0.58,8.15,7.12,14.75,15.46,15.16c2.29,0.1,4.51-0.26,6.5-1.01l57.81,112.16c-4.04,2.82-6.81,7.35-7.08,12.64
	c-0.42,9.05,6.56,16.71,15.59,17.15c8.37,0.39,15.5-5.57,16.85-13.64l125.83,6.02c0.58,8.14,7.09,14.76,15.46,15.15
	c9.05,0.45,16.7-6.52,17.16-15.54c0.24-5.34-2.12-10.14-5.9-13.31l68.19-106.12c1.93,0.94,4.09,1.5,6.36,1.63
	c8.38,0.39,15.48-5.58,16.86-13.63l128.11,6.11c0.59,8.16,7.12,14.77,15.45,15.16c9.05,0.43,16.72-6.54,17.16-15.57
	c0.27-5.9-2.62-11.17-7.17-14.28l67.57-105.1c1.86,0.82,3.88,1.37,6.04,1.47c9.04,0.44,16.73-6.54,17.15-15.56
	c0.46-9.06-6.53-16.71-15.57-17.16c-2.17-0.1-4.24,0.25-6.17,0.92l-57.25-111.08c4.82-2.65,8.21-7.62,8.48-13.53
	c0.43-9.02-6.53-16.71-15.58-17.14c-8.34-0.39-15.46,5.59-16.82,13.63l-128.12-6.12c-0.6-8.14-7.13-14.77-15.48-15.17
	c-1.93-0.09-3.74,0.22-5.51,0.74l-58.67-113.83c4.09-2.8,6.9-7.34,7.15-12.67c0.4-9.03-6.56-16.72-15.59-17.16
	c-8.36-0.4-15.47,5.58-16.83,13.63l-126.8-6.04c-0.59-8.16-7.11-14.79-15.46-15.18c-2.28-0.1-4.48,0.27-6.47,1.02l-57.8-112.13
	c4.07-2.8,6.87-7.36,7.13-12.67c0.44-9.03-6.54-16.72-15.59-17.15c-8.34-0.4-15.45,5.57-16.82,13.62l-126.08-6.02
	c-0.59-8.14-7.09-14.78-15.46-15.16c-1.99-0.1-3.89,0.23-5.67,0.79l-58.71-113.87c4.09-2.82,6.89-7.38,7.13-12.69
	c0.45-9.04-6.54-16.74-15.58-17.14c-8.36-0.41-15.47,5.56-16.82,13.62l-126.82-6.05c-0.58-8.15-7.08-14.78-15.48-15.19
	c-2.25-0.1-4.45,0.26-6.46,1.02l-57.79-112.11c4.08-2.81,6.89-7.38,7.13-12.67c0.29-5.7-2.39-10.83-6.63-13.98l70.23-109.28
	c1.9,0.89,4,1.45,6.21,1.56c8.38,0.4,15.5-5.57,16.86-13.62l125.81,6.02c0.62,8.15,7.11,14.75,15.49,15.16
	c9.02,0.43,16.69-6.54,17.14-15.57c0.25-5.32-2.1-10.12-5.89-13.3l68.22-106.11c1.93,0.92,4.06,1.51,6.34,1.62
	c8.35,0.4,15.45-5.56,16.84-13.62l128.69,6.14c1.42,7.21,7.58,12.81,15.23,13.17c1.57,0.08,3.05-0.13,4.47-0.45l58.18,112.87
	c-3.13,2.83-5.2,6.85-5.4,11.39c-0.44,9.06,6.55,16.71,15.56,17.13c7.69,0.37,14.33-4.62,16.43-11.65l126.47,6.05
	c1.41,7.2,7.57,12.79,15.24,13.16c1.31,0.06,2.58-0.06,3.8-0.29l59.76,115.93c-3.67,2.82-6.14,7.13-6.38,12.11
	c-0.26,5.34,2.1,10.16,5.92,13.34l-68.16,106.03c-1.91-0.91-4.06-1.49-6.29-1.59c-9.02-0.43-16.71,6.54-17.15,15.58
	c-0.43,9.03,6.55,16.71,15.59,17.12c1.54,0.08,3.01-0.12,4.45-0.46l58.19,112.89c-3.14,2.82-5.2,6.84-5.4,11.38
	c-0.45,9.05,6.51,16.7,15.56,17.14c7.68,0.36,14.34-4.62,16.42-11.65l126.48,6.03c1.41,7.22,7.56,12.81,15.23,13.18
	c9.05,0.42,16.73-6.54,17.14-15.58c0.27-5.34-2.11-10.18-5.92-13.34l68.18-106.09c1.96,0.95,4.1,1.53,6.41,1.64
	c9.04,0.42,16.71-6.52,17.15-15.57c0.43-9.04-6.53-16.72-15.57-17.16c-3.01-0.15-5.83,0.61-8.32,1.89l-57.71-111.97
	c5.03-2.58,8.61-7.65,8.9-13.71c0.27-5.71-2.43-10.86-6.7-14l67.91-105.65c2.01,1.04,4.25,1.7,6.65,1.82
	c9.04,0.43,16.72-6.53,17.16-15.57c0.42-9.03-6.56-16.72-15.58-17.15C3373.52,791.86,3371.23,792.31,3369.13,793.15z
	 M3124.63,948.94c1.95,0.94,4.08,1.51,6.36,1.62c7.68,0.36,14.32-4.62,16.42-11.67l126.72,6.05c1.42,7.21,7.57,12.79,15.24,13.16
	c1.56,0.08,3.08-0.13,4.54-0.48l58.12,112.81c-3.21,2.82-5.31,6.88-5.52,11.48c-0.25,5.32,2.09,10.11,5.88,13.31l-68.2,106.1
	c-1.94-0.93-4.08-1.53-6.36-1.63c-9.02-0.42-16.69,6.56-17.14,15.6l-125.42-5.99c0.43-9.04-6.54-16.71-15.58-17.15
	c-3.06-0.16-5.91,0.61-8.43,1.96l-57.73-112.01c5.06-2.57,8.67-7.66,8.96-13.75c0.25-5.36-2.15-10.22-6.01-13.39L3124.63,948.94z
	 M2811.74,640.05l-128.18-6.12c-0.58-8.14-7.1-14.76-15.44-15.16c-2.21-0.11-4.3,0.24-6.25,0.93l-57.84-112.21
	c3.96-2.81,6.7-7.29,6.93-12.52c0.27-5.21-2.01-9.94-5.68-13.13l70.63-109.86c1.72,0.76,3.59,1.25,5.6,1.34
	c6.95,0.34,13.05-3.73,15.72-9.72l127.68,6.09c2.09,6.22,7.77,10.84,14.73,11.18c1.21,0.06,2.4-0.03,3.56-0.23l59.26,115.01
	c-2.91,2.81-4.85,6.66-5.04,11.02c-0.25,5.08,1.9,9.69,5.41,12.86l-68.3,106.28c-1.76-0.75-3.62-1.26-5.63-1.35
	C2819.84,624.03,2812.18,631.02,2811.74,640.05z M2526.25,1594.58l-125.94-6c-0.58-8.16-7.1-14.79-15.46-15.18
	c-2.41-0.11-4.68,0.34-6.79,1.18l-57.75-112.07c4.22-2.78,7.15-7.44,7.42-12.89c0.26-5.43-2.21-10.36-6.15-13.53l76.23-118.61
	l141.38,6.76c0.59,8.14,7.09,14.75,15.48,15.14c2.18,0.12,4.27-0.24,6.22-0.9l57.86,112.24c-3.92,2.81-6.61,7.28-6.87,12.46
	c-0.25,5.2,2,9.9,5.65,13.08l-68.29,106.23c-1.87-0.88-3.93-1.42-6.12-1.53C2534.74,1580.56,2527.62,1586.55,2526.25,1594.58z
	 M2632.54,1175.66c-4.47,2.73-7.56,7.57-7.83,13.2c-0.24,4.93,1.76,9.4,5.07,12.56l-68.41,106.42c-1.63-0.65-3.34-1.1-5.19-1.18
	c-7.64-0.37-14.29,4.62-16.42,11.68l-141.69-6.76l-64.95-126.04c3.75-2.83,6.32-7.18,6.55-12.25c0.25-5.07-1.88-9.66-5.35-12.82
	l68.34-106.34c1.76,0.77,3.64,1.27,5.68,1.37c8.37,0.39,15.49-5.57,16.84-13.63l126.79,6.06c0.58,8.15,7.12,14.75,15.47,15.16
	c2.31,0.1,4.51-0.27,6.54-1.03L2632.54,1175.66z M2862.98,1324.64c-4.1,2.81-6.93,7.4-7.17,12.73c-0.27,5.35,2.09,10.16,5.9,13.35
	l-68.19,106.09c-1.93-0.94-4.11-1.54-6.41-1.65c-8.33-0.4-15.46,5.58-16.83,13.63l-125.81-6.02c-0.6-8.14-7.13-14.76-15.49-15.16
	c-2.32-0.1-4.54,0.29-6.6,1.07l-57.81-112.13c4.11-2.79,6.94-7.37,7.19-12.73c0.25-5.34-2.13-10.16-5.95-13.33l68.16-106.04
	c1.92,0.92,4.05,1.47,6.31,1.59c8.36,0.38,15.5-5.57,16.84-13.61l126.06,6.01c0.59,8.14,7.1,14.76,15.48,15.16
	c2.29,0.1,4.5-0.26,6.52-1.02L2862.98,1324.64z M3095.5,1474.56c-4.55,2.73-7.72,7.6-8,13.3c-0.23,4.99,1.85,9.49,5.21,12.65
	l-68.4,106.42c-1.69-0.73-3.53-1.2-5.47-1.29c-7.66-0.38-14.3,4.62-16.42,11.67l-126.73-6.07c-1.41-7.2-7.55-12.81-15.23-13.19
	c-1.9-0.06-3.71,0.24-5.44,0.75l-58.9-114.28c3.75-2.83,6.32-7.17,6.57-12.24c0.24-5.08-1.9-9.65-5.36-12.83l68.33-106.34
	c1.76,0.77,3.66,1.27,5.69,1.37c8.36,0.4,15.5-5.56,16.85-13.63l126.77,6.06c0.6,8.16,7.14,14.77,15.48,15.16
	c2.3,0.11,4.51-0.29,6.56-1.03L3095.5,1474.56z M3256.87,1755.31c-1.54-0.56-3.15-0.98-4.89-1.07c-8.34-0.4-15.49,5.58-16.84,13.62
	l-128.1-6.11c-0.59-8.14-7.1-14.78-15.49-15.17c-2.18-0.09-4.29,0.25-6.22,0.91l-57.83-112.18c3.95-2.82,6.67-7.3,6.92-12.51
	c0.24-5.23-2.01-9.95-5.69-13.14l68.25-106.19c1.88,0.88,3.92,1.42,6.12,1.53c8.35,0.4,15.47-5.57,16.86-13.62l128.1,6.11
	c0.59,8.14,7.1,14.77,15.46,15.17c1.73,0.08,3.38-0.19,4.96-0.62l57.39,111.39c-4.24,2.77-7.16,7.46-7.41,12.91
	c-0.27,5.47,2.2,10.38,6.18,13.57L3256.87,1755.31z M2783.22,1761.33c4.1-2.8,6.92-7.38,7.19-12.71c0.25-5.36-2.13-10.2-5.95-13.35
	l68.17-106.06c1.9,0.93,4.02,1.48,6.29,1.6c8.38,0.39,15.48-5.56,16.86-13.62l126.05,6.02c0.59,8.14,7.13,14.75,15.48,15.15
	c2.3,0.11,4.5-0.27,6.56-1.01l57.75,112.08c-4.1,2.8-6.93,7.41-7.17,12.75c-0.26,5.34,2.12,10.14,5.93,13.33l-68.2,106.11
	c-1.95-0.96-4.1-1.57-6.41-1.66c-8.34-0.41-15.47,5.57-16.84,13.62l-125.8-6.02c-0.6-8.13-7.13-14.74-15.47-15.16
	c-2.35-0.13-4.57,0.29-6.61,1.06L2783.22,1761.33z M2550.7,1611.4c4.56-2.71,7.71-7.58,7.97-13.27c0.24-4.99-1.8-9.51-5.19-12.7
	l68.42-106.43c1.71,0.75,3.57,1.24,5.54,1.33c7.69,0.36,14.3-4.62,16.42-11.67l126.48,6.06c1.44,7.21,7.55,12.81,15.22,13.16
	c1.96,0.1,3.84-0.22,5.59-0.76l58.86,114.24c-3.83,2.83-6.43,7.22-6.67,12.32c-0.26,5.12,1.93,9.74,5.47,12.93l-68.29,106.23
	c-1.76-0.76-3.67-1.26-5.69-1.36c-8.34-0.39-15.46,5.59-16.83,13.63l-126.84-6.07c-0.11-8.58-6.85-15.73-15.53-16.14
	c-2.44-0.11-4.73,0.33-6.89,1.2L2550.7,1611.4z M1900.6,1583.14c2.2,1.31,4.71,2.16,7.43,2.29c8.38,0.39,15.5-5.57,16.86-13.61
	l126.43,6.03c1.4,7.22,7.54,12.81,15.22,13.19c1.46,0.05,2.85-0.13,4.23-0.42L2129,1703.6c-3.04,2.82-5.02,6.76-5.24,11.21
	c-0.25,5.19,1.98,9.86,5.58,13.05l-70.1,109.06c-2.3-1.44-4.94-2.39-7.82-2.53c-8.36-0.39-15.48,5.57-16.86,13.63l-122.61-5.85
	c-0.62-8.11-7.1-14.7-15.46-15.08c-2.72-0.14-5.27,0.47-7.6,1.53l-57.2-111.02c3.93-2.82,6.6-7.27,6.83-12.46
	c0.28-5.9-2.61-11.2-7.17-14.29L1900.6,1583.14z M2145.83,1456.03c1.92,0.95,4.09,1.49,6.35,1.62c7.68,0.35,14.3-4.64,16.43-11.66
	l126.71,6.02c1.41,7.24,7.56,12.82,15.24,13.19c1.58,0.08,3.07-0.15,4.52-0.49l58.15,112.82c-3.2,2.82-5.32,6.88-5.53,11.48
	c-0.27,5.31,2.08,10.13,5.87,13.29l-68.19,106.13c-1.94-0.96-4.09-1.52-6.37-1.63c-9.01-0.45-16.69,6.52-17.14,15.56l-125.4-5.98
	c0.44-9.05-6.54-16.71-15.58-17.15c-3.05-0.16-5.91,0.61-8.43,1.97l-57.73-112.01c5.06-2.6,8.65-7.68,8.95-13.75
	c0.24-5.38-2.14-10.21-6-13.4L2145.83,1456.03z M2087.91,1312.91c5.06-2.6,8.65-7.67,8.95-13.76c0.26-5.36-2.14-10.2-5.99-13.38
	l67.99-105.77c1.7,0.72,3.56,1.21,5.53,1.31c7.69,0.38,14.31-4.63,16.43-11.65l126.48,6.02c1.42,7.2,7.54,12.81,15.22,13.18
	c1.95,0.09,3.83-0.22,5.57-0.77l65.55,127.2l-76.12,118.44c-1.68-0.69-3.49-1.17-5.41-1.28c-8.35-0.39-15.46,5.58-16.84,13.64
	l-126.07-6.02c-0.58-8.14-7.12-14.78-15.47-15.19c-2.62-0.12-5.1,0.46-7.36,1.44L2087.91,1312.91z M1926.39,1031.49
	c1.68,0.7,3.47,1.16,5.38,1.26c8.39,0.4,15.51-5.57,16.86-13.62l127.51,6.11c0.59,8.13,7.12,14.74,15.47,15.14
	c2.19,0.1,4.28-0.24,6.22-0.94l57.86,112.25c-3.94,2.84-6.62,7.29-6.86,12.5c-0.25,5.2,1.99,9.9,5.64,13.07l-68.11,105.91
	c-1.58-0.63-3.28-1.07-5.08-1.17c-8.37-0.38-15.47,5.58-16.86,13.66l-128.69-6.16c-0.6-8.15-7.1-14.78-15.48-15.16
	c-1.94-0.11-3.75,0.23-5.5,0.73l-57.22-111.04c4.62-2.72,7.83-7.61,8.12-13.36c0.28-5.75-2.46-10.94-6.8-14.08L1926.39,1031.49z
	 M2170.94,905.42c1.95,0.91,4.07,1.47,6.33,1.57c8.35,0.41,15.48-5.54,16.85-13.6l126.06,6.01c0.61,8.14,7.11,14.78,15.49,15.15
	c2.28,0.13,4.49-0.27,6.5-1.02l57.8,112.11c-4.1,2.79-6.93,7.38-7.17,12.71c-0.28,5.35,2.12,10.17,5.91,13.35l-68.17,106.09
	c-1.96-0.96-4.13-1.53-6.43-1.64c-8.35-0.4-15.47,5.56-16.83,13.63l-125.82-6.01c-0.6-8.14-7.13-14.78-15.49-15.17
	c-2.32-0.11-4.55,0.28-6.59,1.07l-57.81-112.15c4.11-2.78,6.92-7.35,7.19-12.7c0.25-5.35-2.13-10.19-5.92-13.36L2170.94,905.42z
	 M2334.55,623.2c1.43,7.18,7.56,12.81,15.23,13.17c1.69,0.08,3.28-0.18,4.81-0.58l58.12,112.75c-3.28,2.85-5.47,6.93-5.69,11.63
	c-0.24,5.39,2.16,10.26,6.05,13.43l-70.39,109.52c-1.7-0.71-3.53-1.2-5.48-1.29c-7.66-0.36-14.32,4.64-16.41,11.68l-126.74-6.05
	c-1.42-7.22-7.55-12.83-15.24-13.19c-1.91-0.1-3.7,0.2-5.45,0.73l-58.44-113.42c4.34-2.77,7.34-7.49,7.59-13.03
	c0.28-5.52-2.27-10.54-6.33-13.7l68-105.78c1.96,0.95,4.12,1.56,6.43,1.67c8.36,0.39,15.49-5.56,16.85-13.63L2334.55,623.2z
	 M2429.17,501.4c1.91,0.92,4.01,1.49,6.26,1.59c8.38,0.41,15.49-5.54,16.87-13.62l126.07,6.03c0.58,8.14,7.11,14.76,15.46,15.15
	c2.31,0.11,4.51-0.28,6.54-1.04l57.79,112.12c-4.11,2.79-6.92,7.37-7.2,12.72c-0.24,5.36,2.13,10.16,5.95,13.33l-68.18,106.09
	c-1.96-0.95-4.12-1.55-6.42-1.65c-8.35-0.39-15.49,5.58-16.87,13.63l-125.8-6.01c-0.61-8.14-7.13-14.77-15.48-15.17
	c-2.34-0.11-4.56,0.28-6.62,1.08l-57.81-112.17c4.13-2.77,6.94-7.36,7.2-12.68c0.25-5.37-2.13-10.19-5.94-13.36L2429.17,501.4z
	 M2372.66,356.71c3.77-2.82,6.34-7.17,6.59-12.25c0.23-5.06-1.9-9.64-5.38-12.81l68.35-106.34c1.76,0.75,3.65,1.26,5.68,1.36
	c8.35,0.38,15.48-5.57,16.83-13.61l128.71,6.15c1.41,7.22,7.56,12.82,15.24,13.18c1.45,0.07,2.86-0.12,4.21-0.4l58.24,112.99
	c-3.03,2.81-5.02,6.75-5.22,11.22c-0.27,5.17,1.97,9.84,5.58,13.02l-70.64,109.91c-1.71-0.72-3.54-1.2-5.5-1.3
	c-7.65-0.37-14.3,4.63-16.41,11.67l-126.72-6.04c-1.43-7.22-7.56-12.83-15.25-13.19c-1.9-0.09-3.7,0.2-5.42,0.73L2372.66,356.71z
	 M1499.69,443.91l126.26,6.02c0.6,8.15,7.14,14.76,15.48,15.17c2.32,0.1,4.51-0.26,6.52-1.04l57.82,112.18
	c-4.06,2.81-6.85,7.35-7.1,12.66c-0.27,5.31,2.08,10.11,5.85,13.26l-69.7,108.45c-1.35-0.46-2.78-0.79-4.29-0.86
	c-7.27-0.36-13.58,4.14-16.03,10.62l-127.4-6.09c-1.82-6.69-7.69-11.74-14.97-12.09c-1.93-0.1-3.81,0.2-5.58,0.77l-66.13-128.29
	l76.29-118.68c1.85,0.87,3.94,1.41,6.14,1.52C1491.21,457.9,1498.33,451.95,1499.69,443.91z M1867.44,858.92
	c-2.01-1.03-4.23-1.68-6.62-1.79c-8.37-0.4-15.48,5.58-16.86,13.63l-125.31-5.97c-1.08-7.65-7.42-13.71-15.42-14.1
	c-2.25-0.1-4.39,0.23-6.39,0.97l-57.8-112.16c4.02-2.8,6.8-7.3,7.05-12.6c0.26-5.68-2.36-10.82-6.62-13.97l69.5-108.13
	c1.65,0.68,3.39,1.16,5.25,1.23c7.68,0.38,14.32-4.63,16.43-11.65l126.48,6.04c1.43,7.2,7.55,12.81,15.23,13.17
	c2.05,0.1,4.01-0.24,5.86-0.85l58.99,114.45c-4.5,2.74-7.59,7.59-7.85,13.23c-0.26,5.25,2.05,10,5.74,13.18L1867.44,858.92z
	 M1622.67,985.25c-1.63-0.66-3.39-1.1-5.25-1.19c-7.99-0.39-14.91,5.05-16.69,12.55l-126.03-5.99c-1.06-7.65-7.42-13.73-15.41-14.11
	c-2.36-0.11-4.66,0.33-6.75,1.12l-57.76-112.1c4.16-2.79,7.02-7.41,7.28-12.81c0.29-5.8-2.49-11.01-6.89-14.11l68.05-105.91
	c2.18,1.26,4.65,2.1,7.35,2.22c8.74,0.41,16.12-6.1,17.01-14.69l125.84,6.02c0.05,8.63,6.79,15.81,15.52,16.24
	c2.24,0.09,4.42-0.26,6.4-1l57.8,112.14c-4.02,2.81-6.8,7.35-7.05,12.63c-0.24,4.89,1.75,9.36,5.03,12.51L1622.67,985.25z
	 M1434.55,1256.87c-3.8,2.83-6.41,7.2-6.66,12.33c-0.26,5.1,1.93,9.73,5.46,12.91l-68.28,106.25c-1.75-0.79-3.65-1.28-5.69-1.37
	c-8.35-0.39-15.48,5.58-16.82,13.62l-141.91-6.78l-65.51-127.09c4.43-2.76,7.47-7.53,7.74-13.12c0.25-4.87-1.73-9.29-4.96-12.47
	l68.46-106.5c1.62,0.65,3.34,1.1,5.17,1.18c7.66,0.37,14.31-4.64,16.43-11.66l128.28,6.11c0.57,8.15,7.08,14.76,15.46,15.16
	c1.78,0.08,3.47-0.19,5.11-0.63L1434.55,1256.87z M1596.72,1537.12c-1.95-0.95-4.11-1.53-6.41-1.64
	c-8.38-0.39-15.48,5.58-16.85,13.63l-125.8-6c-0.59-8.16-7.12-14.77-15.5-15.17c-2.31-0.11-4.56,0.28-6.61,1.07l-57.8-112.14
	c4.12-2.82,6.93-7.39,7.19-12.73c0.25-5.34-2.13-10.16-5.93-13.32l68.15-106.06c1.91,0.92,4.06,1.5,6.31,1.61
	c8.36,0.4,15.46-5.56,16.83-13.63l126.06,6.03c0.61,8.15,7.1,14.76,15.49,15.16c2.27,0.1,4.49-0.28,6.53-1.02l57.78,112.1
	c-4.12,2.79-6.94,7.37-7.19,12.71c-0.23,5.34,2.14,10.18,5.93,13.37L1596.72,1537.12z M1351.99,1664.42
	c-1.58-0.59-3.23-1.03-5.02-1.12c-8.35-0.39-15.48,5.57-16.82,13.62l-127.97-6.1c-0.59-8.13-7.11-14.75-15.46-15.17
	c-2.2-0.1-4.29,0.25-6.26,0.95l-57.82-112.19c3.97-2.81,6.68-7.29,6.93-12.54c0.26-5.22-2.02-9.94-5.7-13.12l76.48-118.98
	l142.24,6.77c1.43,7.2,7.56,12.83,15.22,13.18c1.66,0.07,3.28-0.16,4.79-0.55l58.14,112.75c-3.3,2.83-5.49,6.94-5.69,11.61
	c-0.25,5.38,2.18,10.26,6.04,13.45L1351.99,1664.42z M947.77,1538.3c1.9,0.92,4.05,1.47,6.3,1.57c8.36,0.44,15.48-5.54,16.87-13.59
	l126.04,6.01c0.6,8.16,7.13,14.75,15.47,15.17c2.31,0.09,4.52-0.28,6.55-1.03l57.78,112.1c-4.12,2.82-6.94,7.38-7.19,12.72
	c-0.25,5.35,2.12,10.16,5.91,13.34l-68.16,106.1c-1.94-0.94-4.13-1.54-6.42-1.66c-8.35-0.39-15.47,5.58-16.84,13.63l-125.81-6.01
	c-0.6-8.16-7.12-14.77-15.48-15.16c-2.34-0.13-4.56,0.28-6.6,1.04l-57.82-112.14c4.12-2.78,6.92-7.38,7.17-12.7
	c0.28-5.34-2.11-10.17-5.92-13.36L947.77,1538.3z M962.04,1260.33c1.71,0.72,3.58,1.22,5.54,1.31c7.68,0.39,14.3-4.63,16.44-11.67
	l126.46,6.04c1.42,7.22,7.58,12.83,15.25,13.18c1.94,0.11,3.81-0.2,5.56-0.75l65.56,127.19l-77.37,120.37
	c-1.72-0.71-3.53-1.2-5.48-1.3c-7.65-0.35-14.3,4.64-16.42,11.68l-126.72-6.04c-1.42-7.22-7.56-12.82-15.25-13.19
	c-1.88-0.08-3.7,0.23-5.41,0.74l-57.95-112.4c3.68-2.84,6.15-7.13,6.41-12.13c0.27-5.69-2.44-10.86-6.7-14L962.04,1260.33z
	 M974.15,985.77c1.91,0.9,4.04,1.47,6.29,1.57c8.35,0.39,15.48-5.56,16.85-13.62l126.06,6.04c0.61,8.14,7.12,14.76,15.47,15.15
	c2.31,0.12,4.51-0.28,6.56-1.04l57.77,112.11c-4.12,2.81-6.93,7.37-7.21,12.72c-0.24,5.35,2.16,10.15,5.95,13.34l-68.17,106.09
	c-1.97-0.96-4.13-1.53-6.44-1.65c-8.34-0.39-15.45,5.59-16.83,13.65l-125.8-6.02c-0.62-8.14-7.14-14.76-15.5-15.17
	c-2.31-0.12-4.56,0.3-6.61,1.07l-57.8-112.16c4.11-2.78,6.92-7.36,7.18-12.69c0.26-5.36-2.12-10.19-5.94-13.36L974.15,985.77z
	 M1218.36,860.24c1.69,0.67,3.48,1.16,5.41,1.25c8.34,0.41,15.48-5.56,16.83-13.61l128.9,6.15c0.99,7.73,7.35,13.87,15.42,14.26
	c1.63,0.07,3.15-0.16,4.65-0.53l58.15,112.81c-3.22,2.82-5.35,6.88-5.58,11.51c-0.24,4.96,1.8,9.43,5.12,12.6l-69.92,108.81
	c-1.33-0.4-2.67-0.72-4.11-0.77c-7.63-0.38-14.28,4.62-16.4,11.67l-128.28-6.13c-0.6-8.14-7.13-14.77-15.49-15.16
	c-2.19-0.12-4.3,0.23-6.25,0.94l-57.8-112.21c3.96-2.82,6.67-7.29,6.92-12.5c0.25-5.23-2.02-9.97-5.7-13.14L1218.36,860.24z
	 M1161.52,714.2c4.42-2.75,7.45-7.54,7.73-13.14c0.24-4.86-1.72-9.29-4.98-12.45l68.48-106.51c1.61,0.63,3.33,1.08,5.17,1.16
	c7.65,0.37,14.28-4.59,16.41-11.65l141.69,6.77l65.53,127.14c-3.75,2.83-6.31,7.2-6.56,12.25c-0.22,4.66,1.57,8.95,4.54,12.06
	l-68.54,106.66c-1.43-0.49-2.92-0.87-4.5-0.94c-8-0.37-14.91,5.05-16.68,12.56l-129.24-6.17c-1.44-7.22-7.56-12.83-15.27-13.18
	c-1.52-0.09-3.05,0.14-4.5,0.48L1161.52,714.2z M1000.52,433.21c1.92,0.91,4.03,1.46,6.28,1.57c8.39,0.39,15.48-5.55,16.87-13.6
	l126.04,6.03c0.6,8.12,7.14,14.74,15.49,15.12c2.28,0.11,4.5-0.25,6.52-1.02l57.78,112.12c-4.09,2.8-6.92,7.39-7.17,12.71
	c-0.25,5.35,2.12,10.18,5.94,13.36l-68.2,106.07c-1.95-0.95-4.11-1.53-6.41-1.66c-8.37-0.39-15.48,5.6-16.86,13.66l-125.8-6.01
	c-0.59-8.15-7.12-14.8-15.48-15.2c-2.32-0.11-4.56,0.3-6.61,1.09l-57.81-112.15c4.1-2.8,6.93-7.37,7.2-12.73
	c0.25-5.34-2.12-10.16-5.94-13.34L1000.52,433.21z M1013.7,156.95c1.92,0.92,4.03,1.46,6.3,1.58c8.37,0.39,15.48-5.58,16.85-13.62
	l126.98,6.06c0.58,8.14,7.1,14.76,15.46,15.15c2.01,0.11,3.94-0.21,5.76-0.8l57.94,112.41c-3.7,2.84-6.23,7.18-6.47,12.21
	c-0.23,5.02,1.86,9.59,5.3,12.74l-69.57,108.23c-1.72-0.71-3.55-1.2-5.51-1.29c-7.65-0.36-14.29,4.65-16.41,11.69l-126.73-6.04
	c-1.39-7.21-7.54-12.85-15.24-13.2c-1.89-0.1-3.7,0.21-5.44,0.73L944.3,289.06c4.12-2.8,6.94-7.37,7.19-12.74
	c0.26-5.34-2.11-10.17-5.93-13.33L1013.7,156.95z M1417.73,283.37c-1.82-0.86-3.81-1.36-5.94-1.48c-8.37-0.4-15.49,5.58-16.87,13.63
	l-125.8-6.01c-0.59-8.14-7.12-14.76-15.49-15.17c-2.48-0.12-4.85,0.37-7.03,1.28l-57.75-112.07c4.35-2.75,7.32-7.47,7.57-13
	c0.27-5.51-2.24-10.5-6.3-13.67l68.12-105.96c2.02,1.04,4.27,1.72,6.69,1.84c8.37,0.39,15.48-5.59,16.86-13.63l126.07,6.02
	c0.59,8.14,7.1,14.75,15.46,15.16c2.14,0.09,4.17-0.25,6.09-0.89l57.85,112.26c-3.9,2.82-6.55,7.26-6.8,12.44
	c-0.24,5.17,2,9.83,5.59,13L1417.73,283.37z M1474.05,427.94c-3.87,2.84-6.52,7.27-6.77,12.43c-0.26,5.19,1.98,9.84,5.59,13.03
	l-76.56,119.09l-141.37-6.73c-0.58-8.15-7.11-14.79-15.49-15.21c-2.18-0.08-4.28,0.24-6.23,0.94l-57.81-112.17
	c3.96-2.83,6.67-7.31,6.92-12.54c0.26-5.23-2.01-9.97-5.69-13.15l69.46-108.05c1.85,0.84,3.86,1.39,5.99,1.48
	c7.67,0.36,14.33-4.62,16.42-11.65l126.49,6.03c1.42,7.21,7.56,12.81,15.23,13.18c1.76,0.08,3.47-0.19,5.1-0.63L1474.05,427.94z
	 M1721.08,330.23c1.83,0.84,3.86,1.38,6.02,1.49c8.33,0.39,15.47-5.57,16.82-13.62l126.07,6.02c0.6,8.15,7.11,14.75,15.47,15.15
	c2.41,0.12,4.7-0.32,6.78-1.16L1950,450.18c-4.22,2.76-7.15,7.44-7.41,12.9c-0.26,5.44,2.2,10.36,6.17,13.53l-68.19,106.05
	c-2.01-1.02-4.25-1.69-6.64-1.8c-8.36-0.39-15.5,5.56-16.87,13.63l-125.81-6.02c-0.59-8.14-7.11-14.78-15.47-15.16
	c-2.23-0.11-4.38,0.24-6.35,0.95l-57.84-112.22c3.96-2.82,6.7-7.3,6.95-12.51c0.26-5.25-2.03-9.99-5.71-13.16L1721.08,330.23z
	 M1965.95,202.66c1.69,0.7,3.5,1.17,5.4,1.26c8.35,0.41,15.48-5.56,16.83-13.6l127.5,6.09c0.6,8.13,7.11,14.74,15.47,15.14
	c2.2,0.11,4.29-0.24,6.24-0.91l57.86,112.24c-3.92,2.83-6.63,7.29-6.89,12.48c-0.24,5.22,2.01,9.91,5.67,13.09l-76.52,119.05
	l-142.56-6.81c-1.43-7.21-7.56-12.83-15.24-13.18c-1.58-0.08-3.07,0.13-4.51,0.48l-58.15-112.8c3.18-2.83,5.3-6.88,5.52-11.48
	c0.26-5.32-2.07-10.12-5.87-13.3L1965.95,202.66z M2439.51,196.81c-4.12,2.81-6.95,7.4-7.2,12.73c-0.24,5.35,2.14,10.18,5.95,13.34
	l-68.19,106.11c-1.95-0.96-4.11-1.56-6.42-1.67c-8.37-0.4-15.5,5.59-16.84,13.63l-125.82-5.99c-0.58-8.14-7.1-14.79-15.48-15.2
	c-2.34-0.1-4.55,0.3-6.61,1.09l-57.8-112.15c4.11-2.79,6.93-7.38,7.18-12.72c0.25-5.33-2.12-10.17-5.92-13.34l68.17-106.04
	c1.91,0.92,4.01,1.47,6.28,1.58c8.35,0.39,15.48-5.56,16.85-13.6l126.06,6.01c0.59,8.13,7.13,14.74,15.47,15.14
	c2.3,0.11,4.51-0.25,6.53-1.02L2439.51,196.81z M2915.36,218.89c-3.2,2.82-5.29,6.88-5.51,11.48c-0.27,5.32,2.09,10.11,5.88,13.3
	l-68.21,106.11c-1.93-0.94-4.07-1.51-6.34-1.62c-9.02-0.43-16.71,6.55-17.14,15.58l-125.41-5.98c0.42-9.03-6.54-16.73-15.6-17.16
	c-3.04-0.13-5.92,0.62-8.44,1.98l-57.71-112.02c5.04-2.58,8.64-7.66,8.94-13.75c0.26-5.36-2.13-10.22-6-13.39l68.15-106.02
	c1.94,0.94,4.07,1.49,6.36,1.61c7.68,0.37,14.32-4.61,16.42-11.66l126.73,6.05c1.42,7.21,7.57,12.81,15.22,13.17
	c1.58,0.07,3.08-0.16,4.53-0.48L2915.36,218.89z M3323.43,372.99c-2.17-1.23-4.59-2.04-7.26-2.16c-9.02-0.44-16.68,6.55-17.15,15.57
	l-125.4-5.98c0.41-9.03-6.56-16.71-15.58-17.15c-2.68-0.13-5.21,0.46-7.49,1.5l-57.73-112.01c4.56-2.71,7.74-7.58,8-13.28
	c0.24-4.98-1.83-9.51-5.19-12.68l68.35-106.37c1.68,0.68,3.45,1.15,5.35,1.26c7.68,0.36,14.31-4.63,16.44-11.68l126.71,6.05
	c1.42,7.2,7.55,12.8,15.24,13.17c1.94,0.09,3.81-0.22,5.58-0.76l57.93,112.42c-3.66,2.86-6.14,7.15-6.38,12.14
	c-0.28,5.7,2.4,10.84,6.7,13.99L3323.43,372.99z M3078.32,499.93c-1.68-0.71-3.48-1.21-5.41-1.29c-8.36-0.4-15.47,5.59-16.85,13.64
	l-126.05-6.03c-0.61-8.15-7.13-14.78-15.49-15.17c-2.64-0.12-5.11,0.42-7.35,1.44l-58.66-113.82c4.7-2.68,7.97-7.59,8.26-13.4
	c0.23-5.09-1.93-9.69-5.42-12.88l68.32-106.3c1.79,0.79,3.7,1.3,5.76,1.39c7.68,0.37,14.32-4.61,16.41-11.67l126.6,6.04
	c1.43,7.23,7.56,12.81,15.24,13.17c1.84,0.09,3.61-0.2,5.28-0.65l58.02,112.58c-3.48,2.85-5.84,7.04-6.08,11.88
	c-0.25,5.57,2.3,10.59,6.38,13.75L3078.32,499.93z M3134.01,643.69c-3.21,2.83-5.3,6.89-5.53,11.49c-0.25,5.32,2.11,10.12,5.89,13.3
	l-68.21,106.11c-1.94-0.93-4.08-1.52-6.36-1.63c-9.03-0.42-16.68,6.55-17.14,15.6l-125.41-5.99c0.44-9.03-6.55-16.73-15.57-17.15
	c-3.06-0.15-5.92,0.61-8.44,1.95l-57.72-111.99c5.05-2.59,8.66-7.67,8.94-13.76c0.24-5.35-2.14-10.2-5.99-13.4l68.15-106
	c1.93,0.94,4.09,1.5,6.35,1.61c7.69,0.36,14.31-4.63,16.43-11.67l126.72,6.06c1.41,7.21,7.56,12.79,15.23,13.17
	c1.58,0.08,3.08-0.15,4.54-0.49L3134.01,643.69z M3365.68,795.07c-3.92,2.82-6.63,7.3-6.88,12.5c-0.24,5.21,2.02,9.92,5.66,13.09
	l-68.14,106.01c-1.68-0.7-3.48-1.19-5.39-1.28c-8.37-0.4-15.49,5.58-16.87,13.63l-126.06-6.01c-0.58-8.15-7.09-14.79-15.44-15.19
	c-2.66-0.11-5.11,0.44-7.37,1.44l-59.34-115.11c5.36-2.49,9.24-7.73,9.54-14.04c0.25-4.89-1.75-9.34-5.01-12.51l68.43-106.48
	c1.64,0.66,3.37,1.11,5.25,1.19c6.96,0.34,13.06-3.74,15.7-9.72l125.6,5.99c0.59,8.16,7.1,14.74,15.48,15.16
	c2.4,0.11,4.73-0.35,6.85-1.21L3365.68,795.07z"/>
</svg>
