<svg id="Слой_1" data-name="Слой 1" xmlns="http://www.w3.org/2000/svg" xmlns:xlink="http://www.w3.org/1999/xlink"
     viewBox="0 0 2231.51 2213.9">
    <defs>
        <style>.cls-1{fill:url(#radial-gradient);}.cls-2{mask:url(#mask);}.cls-3{fill:#c6db96;}</style>
        <radialGradient id="radial-gradient" cx="1841.48" cy="1315.69" r="1104.4"
                        gradientTransform="translate(-68.78 94.48) rotate(-2.83)" gradientUnits="userSpaceOnUse">
            <stop offset="0" stop-color="#fff"/>
            <stop offset="0.25" stop-color="#b3b3b3"/>
            <stop offset="0.52" stop-color="#686868"/>
            <stop offset="0.74" stop-color="#303030"/>
            <stop offset="0.91" stop-color="#0e0e0e"/>
            <stop offset="1" stop-color="#010101"/>
        </radialGradient>
        <mask id="mask" x="0" y="-98.49" width="2231.51" height="2312.39" maskUnits="userSpaceOnUse">
            <g transform="translate(-727.13 -311.67)">
                <path class="cls-1"
                      d="M2938.56,1263c30.16,609.21-439.28,1127.51-1048.48,1157.66S762.57,1981.43,732.42,1372.21,1171.69,244.7,1780.9,214.55,2908.41,653.82,2938.56,1263Z"/>
            </g>
        </mask>
    </defs>
    <g class="cls-2">
        <path class="cls-3"
              d="M1150.6,717.32l-43.41,90.45a12.84,12.84,0,0,0-11.12,1.63,12.94,12.94,0,0,0,13.27,22.17l55.8,81.61a14.17,14.17,0,0,0-1.37.75,12.9,12.9,0,0,0,1.78,22.4l-43.18,90a12.91,12.91,0,0,0-18.55,11.86l-100.7,7.68a12.65,12.65,0,0,0-1.87-4.31,12.93,12.93,0,0,0-15.22-4.8l-56.64-82.82a12.95,12.95,0,1,0-22.51-10l-100,7.64a13,13,0,1,0-23.22,10.64,12.62,12.62,0,0,0,4.42,4l-43.19,90a13,13,0,1,0,2.49,22.73l56.28,82.28A13,13,0,1,0,824,1171.59l99.45-7.59a12.76,12.76,0,0,0,2.1,5.57,13,13,0,0,0,18,3.38l56.21,82.2a12.9,12.9,0,0,0,1.79,22.39l-43.17,90a13,13,0,1,0,1.73,22.34l56.27,82.29a13,13,0,1,0,20.25,11.29l99.6-7.6a12.7,12.7,0,0,0,2,4.74,13,13,0,0,0,18,3.37l57.4,83.94a12.94,12.94,0,0,0-2.21,17,12.52,12.52,0,0,0,3.74,3.59L1172,1678.65a12.94,12.94,0,1,0,1.87,23.72l56.44,82.56a12.94,12.94,0,1,0,21.44,10.21l99.58-7.6a13.35,13.35,0,0,0,2,4.8,13,13,0,0,0,16.67,4.13l57.09,83.46a12.95,12.95,0,1,0,21.49,9.51l100.89-7.72a12.88,12.88,0,0,0,18.68,9l56.45,82.55a12.94,12.94,0,1,0,21.46,10l99.54-7.62a12.72,12.72,0,0,0,2.05,5,12.91,12.91,0,0,0,16.66,4.13l56.55,82.69a12.82,12.82,0,0,0,1.86,20.81L1779,2179.5a12.91,12.91,0,0,0-18.14,11.6l-99.59,7.62a13,13,0,1,0-19.41,13.28l-43.21,90.06a12.83,12.83,0,0,0-11.78,1.43,12.94,12.94,0,0,0,13.28,22.17l56.45,82.55a12.94,12.94,0,1,0,21.41,10.6l99.72-7.61a12.69,12.69,0,0,0,1.91,4.42,12.93,12.93,0,0,0,16.66,4.13l56.86,83.13a12.94,12.94,0,1,0,21.44,10.25l99.59-7.62a13,13,0,1,0,23.42-9.87,12.73,12.73,0,0,0-3.71-3.61l43.74-91.18a12.91,12.91,0,0,0,17.86-11.47l99.57-7.58a13,13,0,1,0,23.44-9.87,13.06,13.06,0,0,0-3.72-3.62l43.27-90.15a12.94,12.94,0,1,0-1.92-23.75L2159.75,2172a12.91,12.91,0,0,0,2.18-17,12.36,12.36,0,0,0-3.29-3.28l44.27-92.27a12.92,12.92,0,0,0,18.56-11.87l99.2-7.58a12.77,12.77,0,0,0,2,5,13,13,0,0,0,16.67,4.14l56.46,82.55a12.94,12.94,0,1,0,21.44,10.21l99.57-7.6a13.16,13.16,0,0,0,2,4.79,13,13,0,1,0,21.42-14.67,12.76,12.76,0,0,0-3.74-3.59l43.26-90.16a12.94,12.94,0,0,0,17-12.39l102.43-7.81a13,13,0,1,0,23.22-10.64,12.71,12.71,0,0,0-4.43-4l43.16-89.93a12.92,12.92,0,0,0,17.87-11.46l99.57-7.61a12.73,12.73,0,0,0,2,4.79,13,13,0,1,0,21.43-14.65,13.22,13.22,0,0,0-3.73-3.62l43.25-90.16a12.93,12.93,0,1,0-1.92-23.73l-56.34-82.4a12.94,12.94,0,1,0-21.43-10.33l-99.65,7.63a13.16,13.16,0,0,0-2-4.79,12.94,12.94,0,0,0-16.67-4.14l-57.29-83.77a13,13,0,1,0-21.46-9.18l-100.63,7.68a13.12,13.12,0,0,0-2-4.68,12.94,12.94,0,0,0-16.66-4.13l-56.34-82.38a12.94,12.94,0,1,0-21.45-10.33l-99.65,7.61a13,13,0,1,0-23.44,9.87,13.13,13.13,0,0,0,3.74,3.62l-43.24,90.1a12.94,12.94,0,1,0,1.84,23.73l56.47,82.54a12.83,12.83,0,0,0,2,20.87l-43,89.65a12.9,12.9,0,0,0-18,13.17l-101.55,7.77a12.78,12.78,0,0,0-2.1-5.66,12.94,12.94,0,0,0-17.4-3.72L2127.1,1736a13,13,0,1,0-20.82-9.89l-99.51,7.59a12.86,12.86,0,0,0-19.53-9.48l-56-81.91a12.94,12.94,0,1,0-21.43-10.52l-98.92,7.56a12.72,12.72,0,0,0-2-5,13,13,0,1,0-21.43,14.65,12.72,12.72,0,0,0,3.21,3.21l-44.16,92a12.89,12.89,0,0,0-17.53,11.24l-99.75,7.62a12.79,12.79,0,0,0-1.94-4.56,13,13,0,0,0-18-3.38l-64.63-94.5-113.5,8.68a12.76,12.76,0,0,0-2-5.09,12.94,12.94,0,0,0-16.64-4.16L1356,1577.77a12.91,12.91,0,0,0,2.17-17,12.76,12.76,0,0,0-4.26-3.9l43.89-91.47a12.94,12.94,0,0,0,17.88-11.47l99.56-7.6a13.1,13.1,0,0,0,2,4.8,13,13,0,0,0,18,3.37l56.68,82.87a12.94,12.94,0,1,0,21.43,10.36l99.51-7.61a13.45,13.45,0,0,0,1.9,4.4,13,13,0,0,0,21.44-14.66,12.48,12.48,0,0,0-3.4-3.36l43.68-91a12.91,12.91,0,0,0,17.87-11.44l99.57-7.63a12.83,12.83,0,0,0,2,4.79,13,13,0,0,0,16.68,4.15l57.09,83.46a12.95,12.95,0,1,0,21.49,9.51l98.73-7.55a12.72,12.72,0,0,0,1.75,3.9,13,13,0,1,0,18.42-17.69l42.85-89.28a13,13,0,1,0-1.05-23.49l-57.63-84.27a12.93,12.93,0,0,0,2.19-17,13.45,13.45,0,0,0-2.44-2.6l44-91.71a12.83,12.83,0,0,0,16.3-11.88l99.6-7.6a13.44,13.44,0,0,0,2,4.74,13,13,0,0,0,18,3.36l56.37,82.44a12.94,12.94,0,1,0,21.36,11.29l101.71-7.77a14.09,14.09,0,0,0,1.66,3.6,13,13,0,0,0,21.42-14.66,12.43,12.43,0,0,0-4-3.77l42.87-89.34a12.94,12.94,0,1,0-2.81-24l-54.9-80.27a12.94,12.94,0,1,0-21.31-11.67L2333.77,1051a12.78,12.78,0,0,0-2.05-5.14,13,13,0,0,0-15.23-4.81l-56.63-82.82a13,13,0,1,0-22.58-9.17l-99.65,7.61a12.91,12.91,0,0,0-18.69-9l-56.4-82.48a12.82,12.82,0,0,0-.9-20.15l43.6-90.86a12.95,12.95,0,1,0-1.45-24.19l-56.89-83.18a12.92,12.92,0,0,0,2.2-17,13.12,13.12,0,0,0-3.74-3.62L2088.62,536a12.94,12.94,0,1,0-1.92-23.75l-56.34-82.39a12.94,12.94,0,1,0-21.43-10.33l-99.67,7.61a12.9,12.9,0,0,0-18.67-8.92l-57.37-83.89a12.94,12.94,0,1,0-21.45-9.06l-98.72,7.54a13.39,13.39,0,0,0-2-4.53,13,13,0,1,0-17.91,18.11l-42.83,89.27a12.95,12.95,0,1,0,.67,23.27l57.36,83.9a12.93,12.93,0,0,0-2.18,17,13.17,13.17,0,0,0,3.1,3.13l-43.9,91.47a12.95,12.95,0,1,0,1.85,23.73l56.79,83a12.9,12.9,0,0,0,1.53,20.63L1682.35,872a12.94,12.94,0,1,0,1.85,23.72l56.45,82.55a12.92,12.92,0,0,0-2.18,17,12.6,12.6,0,0,0,3.21,3.22L1697.77,1090a12.95,12.95,0,1,0,1.85,23.74l56.78,83a12.91,12.91,0,0,0,1.53,20.64l-43.22,90.1a12.94,12.94,0,0,0-17.09,12.42L1595,1327.76a12.7,12.7,0,0,0-2-4.67,12.93,12.93,0,0,0-16.67-4.15L1520,1236.56a12.95,12.95,0,1,0-21.45-10.34l-99.65,7.61a13.52,13.52,0,0,0-2-4.77,12.93,12.93,0,0,0-16.67-4.14l-57.62-84.28a12.92,12.92,0,0,0,1-15.9,13.16,13.16,0,0,0-2.42-2.61l43.52-90.72a13,13,0,1,0-2-24.86l-56.63-82.82a12.94,12.94,0,0,0,1-15.92,13.66,13.66,0,0,0-2-2.27l44.71-93.17a12.84,12.84,0,0,0,16.29-11.88l99.59-7.61a12.82,12.82,0,0,0,2,4.74A13,13,0,1,0,1489.13,783a12.71,12.71,0,0,0-2.43-2.58l43.54-90.74a13,13,0,1,0-2.06-24.86L1471.54,582A12.95,12.95,0,1,0,1449,572.8l-99.64,7.6A13,13,0,1,0,1331,594.56l-43.17,90a12.91,12.91,0,0,0-18.56,11.87L1170.07,704a12.66,12.66,0,0,0-2-5.08,13,13,0,1,0-17.43,18.4Zm215.31,80a12.62,12.62,0,0,0-2-4.79,12.93,12.93,0,0,0-15.22-4.8l-56.75-83a12.92,12.92,0,0,0,1-15.91,12,12,0,0,0-2.47-2.64L1334,595.59a12.91,12.91,0,0,0,15.5-12.07l99.65-7.62a12.73,12.73,0,0,0,2,4.8,13,13,0,0,0,18,3.38l56.16,82.12a13,13,0,0,0-3.39,18,12.81,12.81,0,0,0,5.28,4.41l-43.2,90a12.87,12.87,0,0,0-18.56,11.11Zm-45.65,345.39,57.39,83.92a12.94,12.94,0,0,0-2.18,17,12.47,12.47,0,0,0,3.56,3.5l-43.27,90.17a12.85,12.85,0,0,0-16.8,11.49l-103.18,7.87a12.72,12.72,0,0,0-1.83-4.19,13,13,0,0,0-13.66-5.27l-57.18-83.62a13,13,0,0,0,0-14.66,13.4,13.4,0,0,0-1.84-2.12l44.35-92.42a12.86,12.86,0,0,0,14.92-11.65l99.81-7.63a12.87,12.87,0,0,0,19.88,7.58ZM2060,866.93l56.4,82.46a12.88,12.88,0,0,0,1.78,20.78l-43.21,90.06a12.89,12.89,0,0,0-17.3,11.85l-111.4,8.5L1882.94,988a12.93,12.93,0,0,0,2.17-17,13.26,13.26,0,0,0-3.55-3.5l43.28-90.22a12.82,12.82,0,0,0,16.73-11.43l99.78-7.62a12.33,12.33,0,0,0,2,4.58A12.92,12.92,0,0,0,2060,866.93ZM1744.42,1000a12.93,12.93,0,0,0,17.6-10.58l100-7.63a12.33,12.33,0,0,0,1.72,3.84,13,13,0,0,0,15.23,4.8l63.46,92.78-48.61,101.29a12.83,12.83,0,0,0-16.42,11.22l-99.87,7.64A12.8,12.8,0,0,0,1759,1195l-56.78-83a12.92,12.92,0,0,0-1.59-20.67Zm-16-216.85a12.9,12.9,0,0,0,17.08-11.67l99.63-7.61a12.91,12.91,0,0,0,18.69,9l56.33,82.38a12.9,12.9,0,0,0,1.65,20.7l-43.25,90.14a12.84,12.84,0,0,0-17,11.66l-99.6,7.61a12.94,12.94,0,0,0-18.66-8.87l-56.46-82.55a12.93,12.93,0,0,0,2.18-17,12.76,12.76,0,0,0-3.77-3.63ZM1712,564.54a13,13,0,0,0,12.23-1.3,12.86,12.86,0,0,0,5.51-9.34l100-7.64a12.65,12.65,0,0,0,1.8,4.08,12.94,12.94,0,0,0,15.22,4.79l56.74,83a13,13,0,0,0-1,15.93,13.36,13.36,0,0,0,3.06,3.08L1861.42,749A12.82,12.82,0,0,0,1845,760.2l-99.88,7.63a12.72,12.72,0,0,0-1.84-4.24,12.9,12.9,0,0,0-16.67-4.14l-56.77-83a12.94,12.94,0,0,0,2.2-17,13.18,13.18,0,0,0-3.8-3.65Zm100.3-236.16A13.75,13.75,0,0,0,1814,332a13,13,0,0,0,16.67,4.13L1888,420a12.93,12.93,0,0,0,1.37,20.53l-43.26,90.17a12.84,12.84,0,0,0-16.79,11.49l-99.74,7.62a12.54,12.54,0,0,0-2-4.59,12.92,12.92,0,0,0-16.66-4.14l-57.36-83.89a12.92,12.92,0,0,0,2.18-17,12.64,12.64,0,0,0-2.75-2.85l43-89.52a12.9,12.9,0,0,0,17.32-11.86Zm230.21,296.46a12.87,12.87,0,0,0-17.07,11.68l-99.59,7.6a13.26,13.26,0,0,0-2-4.73,12.92,12.92,0,0,0-16.66-4.14l-56.45-82.54a12.93,12.93,0,0,0-1.59-20.67L1892.39,442a12.88,12.88,0,0,0,17.07-11.68l99.65-7.61a12.48,12.48,0,0,0,2,4.84,13,13,0,0,0,16.66,4.14L2084.12,514a12.9,12.9,0,0,0,1.64,20.69Zm16.39,218.62a12.9,12.9,0,0,0-17.75,10.65l-100,7.63a12.41,12.41,0,0,0-1.81-4.13,12.92,12.92,0,0,0-15.22-4.8L1867.54,770a12.8,12.8,0,0,0-2.11-19.08l44.06-91.81A12.81,12.81,0,0,0,1926,647.8l99.78-7.63a12.65,12.65,0,0,0,1.86,4.25,12.94,12.94,0,0,0,16.67,4.13l56.79,83.06a12.85,12.85,0,0,0,1.25,21.3Zm292.87,424.35a12.83,12.83,0,0,0-18.78-9.94l-56.61-82.76a13,13,0,0,0,1-15.93,13.41,13.41,0,0,0-2.27-2.47l43.56-90.81a13,13,0,0,0,9.6-2.06,12.9,12.9,0,0,0,5.56-9.75l102.43-7.84a12.81,12.81,0,0,0,18.81,10.28l54.91,80.28a12.91,12.91,0,0,0-2.14,17,12.66,12.66,0,0,0,4.6,4.07l-42.8,89.22a12.87,12.87,0,0,0-16.75,13Zm-197.56-94.22A13,13,0,0,0,2137,1164l-56.76-83a13,13,0,0,0,1.06-15.93,13.25,13.25,0,0,0-2.48-2.63l43.51-90.66a12.9,12.9,0,0,0,15.48-12.08l99.66-7.61a13,13,0,0,0,20.05,8.18l56.15,82.1a13,13,0,0,0-3.37,18,12.72,12.72,0,0,0,5.26,4.4l-43.19,90a12.86,12.86,0,0,0-18.56,11.11Zm-62.77,105a12.87,12.87,0,0,0-18.56,11.1l-99.34,7.59a13.17,13.17,0,0,0-1.82-4.13,13,13,0,0,0-15.22-4.81l-56.64-82.81a12.78,12.78,0,0,0-2.1-19.08l49.06-102.21,111.24-8.52a12.75,12.75,0,0,0,18.44,8.16l56.45,82.54a13,13,0,0,0-2.18,17,12.81,12.81,0,0,0,4.42,4ZM1990.82,1515.2a12.68,12.68,0,0,0-1.79-4,12.91,12.91,0,0,0-16.66-4.15l-57.08-83.49a12.91,12.91,0,0,0,2.17-17,12.6,12.6,0,0,0-3.56-3.5l43.28-90.21a12.86,12.86,0,0,0,16.74-11.45l99.48-7.6a12.74,12.74,0,0,0,18.39,7.92l57.62,84.25a12.85,12.85,0,0,0,.9,20.18l-42.82,89.23a13,13,0,0,0-18,12.29Zm-196.58-94.32a12.94,12.94,0,0,0-18.65-8.88l-56.46-82.55a12.91,12.91,0,0,0,2.17-17,12.69,12.69,0,0,0-3.75-3.63l43.22-90.11a12.86,12.86,0,0,0,17.06-11.67l99.64-7.61a12.93,12.93,0,0,0,18.7,9l56.34,82.38a12.94,12.94,0,0,0-2.2,17,12.8,12.8,0,0,0,3.83,3.66l-43.24,90.15a12.85,12.85,0,0,0-17.07,11.66Zm-256.55,31.51a13,13,0,0,0,1-15.92,12.1,12.1,0,0,0-2.67-2.76l43.48-90.63a12.88,12.88,0,0,0,15.67-12.2l102.86-7.86a12.79,12.79,0,0,0,17,8.86l56.76,83a12.93,12.93,0,0,0-1.06,15.93,12.78,12.78,0,0,0,3.07,3.11l-43.75,91.15a12.92,12.92,0,0,0-17.5,12l-99.36,7.58a12.88,12.88,0,0,0-18.68-9Zm-122.19-1.58a12.92,12.92,0,0,0-18.66-8.86l-56.45-82.56a12.92,12.92,0,0,0,2.19-17,12.73,12.73,0,0,0-3.79-3.64l43.25-90.1A12.86,12.86,0,0,0,1399.1,1237l99.63-7.62a13.15,13.15,0,0,0,2,4.85,13,13,0,0,0,16.67,4.13l56.33,82.38a13,13,0,0,0-2.18,17,12.24,12.24,0,0,0,3.84,3.65l-43.26,90.16a12.85,12.85,0,0,0-17.07,11.66Zm-64.44,104.87a12.77,12.77,0,0,0-16.4,11.21l-99.89,7.63a12.66,12.66,0,0,0-1.85-4.24,12.94,12.94,0,0,0-16.65-4.14l-57.64-84.29a12.92,12.92,0,0,0,1-15.92,13.38,13.38,0,0,0-2.27-2.47l43.57-90.81a12.9,12.9,0,0,0,15.15-11.82l103.22-7.89a12.51,12.51,0,0,0,1.8,4.09,13,13,0,0,0,15.23,4.8l56.74,83a13,13,0,0,0-1,15.94,12.71,12.71,0,0,0,3,3.08Zm472.37,510L1766.88,1983a12.94,12.94,0,0,0,2.19-17,12.75,12.75,0,0,0-3.77-3.63l43.26-90.14a12.87,12.87,0,0,0,17-11.61l101.85-7.79a12.56,12.56,0,0,0,1.52,3.13,12.92,12.92,0,0,0,14.37,5.06l57,83.41a13,13,0,0,0-.49,15.23,12.49,12.49,0,0,0,3.16,3.16l-49.49,103.11-111.45,8.53a13.23,13.23,0,0,0-2-4.62A12.94,12.94,0,0,0,1823.43,2065.7Zm86.51-430.76a12.84,12.84,0,0,0,18.69,9.17l56.13,82a13,13,0,0,0-1.54,16.5,12.86,12.86,0,0,0,3.66,3.55l-43.25,90.14a12.85,12.85,0,0,0-11.33,1.57,13,13,0,0,0-5.67,10.86l-101.55,7.77a12.44,12.44,0,0,0-1.74-3.91,12.93,12.93,0,0,0-15.22-4.8L1751.48,1765a12.92,12.92,0,0,0,1-15.92,12.78,12.78,0,0,0-3.33-3.31l44.14-92a12.92,12.92,0,0,0,17.69-11.3Zm196.82,94.29a12.81,12.81,0,0,0,1.76,3.89,13,13,0,0,0,15.91,4.53l56.44,82.53a12.93,12.93,0,0,0,2.39,20.21L2140,1930.48a12.94,12.94,0,0,0-17.21,12.62l-99.46,7.61a12.8,12.8,0,0,0-2.1-5.7,13,13,0,0,0-17.42-3.74l-56.35-82.4a12.94,12.94,0,0,0,2.85-17.56,12.78,12.78,0,0,0-3.68-3.58l43.24-90.13a12.86,12.86,0,0,0,16.87-10.74Zm261.58-10.93a12.84,12.84,0,0,0,16.53-11.31l99.79-7.64a12.47,12.47,0,0,0,1.85,4.26,12.94,12.94,0,0,0,16.66,4.12l63.54,92.92-49,102.16a12.9,12.9,0,0,0-17.5,10.47l-100,7.63a12.54,12.54,0,0,0-1.73-3.81,13,13,0,0,0-15.22-4.82l-57.45-84a12.77,12.77,0,0,0-.65-19.94Zm99.6-236.45a12.93,12.93,0,0,0,18.69,9l56.34,82.38a12.9,12.9,0,0,0,1.65,20.71L2501.37,1684a12.87,12.87,0,0,0-17.06,11.66l-99.6,7.63a12.9,12.9,0,0,0-18.67-8.88l-56.44-82.54a12.92,12.92,0,0,0,2.17-17,13.06,13.06,0,0,0-3.75-3.63l43.22-90.11a12.84,12.84,0,0,0,17.06-11.67Zm197.43,93.8a12.7,12.7,0,0,0,18.34,7.84l57.3,83.79a12.87,12.87,0,0,0,1.39,20.52L2699.14,1778a12.88,12.88,0,0,0-16.81,11.5L2570.59,1798l-63.71-93.13a12.71,12.71,0,0,0-1.6-18.69l43.49-90.63a12.76,12.76,0,0,0,10.05-1.94,13,13,0,0,0,5.61-10.23Zm113.5,315.76a12.65,12.65,0,0,0-2-4.73,12.93,12.93,0,0,0-16.66-4.15L2703.74,1800a13,13,0,0,0,2.21-17,13.14,13.14,0,0,0-3.79-3.65l43.23-90.08a12.89,12.89,0,0,0,17.08-11.68l99.64-7.62a13.13,13.13,0,0,0,2,4.85,12.94,12.94,0,0,0,16.66,4.13l56.34,82.38a12.92,12.92,0,0,0-2.18,17,12.54,12.54,0,0,0,3.82,3.66l-43.25,90.14a12.85,12.85,0,0,0-17.06,11.67Zm-182.49,123.85a12.81,12.81,0,0,0-1.82-4.14,13,13,0,0,0-15.22-4.81l-56.64-82.81a13,13,0,0,0,1.05-15.94,12.74,12.74,0,0,0-3.15-3.15l49.06-102.22,113.06-8.64a12.43,12.43,0,0,0,1.79,4.08,13,13,0,0,0,15.22,4.79l56.75,83a12.73,12.73,0,0,0,2,19l-43.34,90.34a12.89,12.89,0,0,0-16.36,12.68Zm-179.31,123.58a13.14,13.14,0,0,0-2-4.72,12.92,12.92,0,0,0-16.66-4.14L2342,2047.43a12.94,12.94,0,0,0,2.18-17,12.7,12.7,0,0,0-3.78-3.64l43.24-90.11a12.83,12.83,0,0,0,17.05-11.66l99.64-7.61a12.93,12.93,0,0,0,18.7,9l56.33,82.38a12.9,12.9,0,0,0,1.65,20.7l-43.25,90.14a12.86,12.86,0,0,0-17.06,11.67ZM2221,2044.49a13.53,13.53,0,0,0-1.79-4,12.92,12.92,0,0,0-16.65-4.13l-57.72-84.4a13,13,0,0,0,1.64-16.57,12.61,12.61,0,0,0-2.57-2.68l43.51-90.68a12.83,12.83,0,0,0,15.44-11.24l102.21-7.8a12.74,12.74,0,0,0,16.69,7.74l57.45,84a12.94,12.94,0,0,0-2.19,17,12.64,12.64,0,0,0,3.57,3.5l-43.28,90.16a12.85,12.85,0,0,0-16.8,11.48Zm-65.12,105.74a12.9,12.9,0,0,0-17.49,10.48l-100,7.63a12.79,12.79,0,0,0-1.73-3.81,12.92,12.92,0,0,0-15.21-4.81L1958,2066.94l49-102.19a12.87,12.87,0,0,0,16.33-10.35l100.17-7.66a12.78,12.78,0,0,0,1.55,3.31,13,13,0,0,0,15.92,4.53l57.87,84.62a13,13,0,0,0-1,15.94,12.13,12.13,0,0,0,2.47,2.63Zm-100.63,236.05a13,13,0,0,0-18.67-8.88l-56.44-82.54a12.9,12.9,0,0,0,2.16-17,12.76,12.76,0,0,0-3.76-3.64l43.24-90.11a12.89,12.89,0,0,0,17.06-11.68l99.64-7.61a12.88,12.88,0,0,0,18.69,9l56.34,82.38a13,13,0,0,0-2.2,17,12.81,12.81,0,0,0,3.84,3.65L2171.91,2367a12.87,12.87,0,0,0-17.07,11.66ZM1874.37,2510a12.59,12.59,0,0,0-2-4.73,12.94,12.94,0,0,0-16.66-4.16L1798.83,2418a12.92,12.92,0,0,0,2.19-17,12.74,12.74,0,0,0-3.26-3.25l43.34-90.36a12.83,12.83,0,0,0,16.34-11.17l101.64-7.77a13.12,13.12,0,0,0,1.81,4.1,13,13,0,0,0,15.24,4.77l56.75,83a12.78,12.78,0,0,0,2,19L1991,2490.7a12.89,12.89,0,0,0-17.07,11.68Zm-113.23-315.78a12.79,12.79,0,0,0,1.91,4.48,13,13,0,0,0,16.67,4.12l56.34,82.39a13,13,0,0,0-2.2,17,12.58,12.58,0,0,0,4.18,3.83l-43.23,90.07a12.94,12.94,0,0,0-17.45,12l-99.53,7.6a12.72,12.72,0,0,0-2-5.12,13,13,0,0,0-16.67-4.12l-56.45-82.55a12.86,12.86,0,0,0-1.28-20.44l43.29-90.21a12.83,12.83,0,0,0,16.66-11.4Zm64.44-104.69a12.84,12.84,0,0,0,16.67-11.4l111.85-8.55,63.32,92.57a13,13,0,0,0-2.21,17,13.23,13.23,0,0,0,3.58,3.5l-43.27,90.15a12.85,12.85,0,0,0-16.82,11.49l-101.48,7.76a12.67,12.67,0,0,0-1.93-4.5,12.94,12.94,0,0,0-15.21-4.81L1783.44,2200a12.72,12.72,0,0,0-1.8-18.83Zm-179.81-109.4a12.86,12.86,0,0,0-18.59-8.65l-56.45-82.54a12.91,12.91,0,0,0-1.79-20.77l43.21-90.06a12.89,12.89,0,0,0,17.3-11.85l99.61-7.6a13.2,13.2,0,0,0,2,5.08,13,13,0,0,0,16.66,4.12l56.34,82.39a12.94,12.94,0,0,0-2.19,17,12.66,12.66,0,0,0,3.64,3.55l-43.27,90.2a12.84,12.84,0,0,0-16.83,11.49Zm-197.67-93.8a12.8,12.8,0,0,0-18.44-8.15l-57.08-83.49a12.94,12.94,0,0,0-1.38-20.51l43.28-90.21a12.82,12.82,0,0,0,16.73-11.45L1543,1664l63.84,93.34a12.94,12.94,0,0,0-1.06,15.93,12.42,12.42,0,0,0,2.46,2.64l-43.49,90.64a13,13,0,0,0-9.89,2,12.85,12.85,0,0,0-5.59,10.07Zm-230-296.46a12.89,12.89,0,0,0,17.07-11.69l99.65-7.62a12.79,12.79,0,0,0,2,4.86,12.92,12.92,0,0,0,16.67,4.12l56.34,82.38a13,13,0,0,0-2.21,17,13.15,13.15,0,0,0,3.85,3.67l-43.24,90.13a12.86,12.86,0,0,0-17.07,11.67l-99.6,7.6a13.09,13.09,0,0,0-2-4.73,12.94,12.94,0,0,0-16.65-4.14l-56.46-82.55a12.93,12.93,0,0,0-1.59-20.65Zm-213.5-311.3a12.93,12.93,0,0,0,15.49-12.07l99.65-7.62a13,13,0,0,0,20,8.17l56.17,82.12a13,13,0,0,0-3.4,18.06,12.79,12.79,0,0,0,5.28,4.38l-43.2,90a12.87,12.87,0,0,0-18.55,11.11l-99.58,7.61a13,13,0,0,0-17.25-9.6l-56.74-83a12.92,12.92,0,0,0,1-15.91,13.54,13.54,0,0,0-2.47-2.64ZM906.91,947a12.75,12.75,0,0,0,2.1,5.63,13,13,0,0,0,18,3.37l56.16,82.13a13,13,0,0,0-3.39,18,12.73,12.73,0,0,0,4.53,4l-43.2,90a12.9,12.9,0,0,0-17.73,10.64l-99.91,7.63a13.12,13.12,0,0,0-1.76-4,13,13,0,0,0-15.23-4.8l-56.75-83a12.82,12.82,0,0,0-2.09-19.09L791,967.32a12.92,12.92,0,0,0,16.36-12.7Zm197.38,94.24a12.49,12.49,0,0,0,1.78,4,12.92,12.92,0,0,0,16.66,4.11l56.44,82.56a13,13,0,0,0-2.19,17,12.59,12.59,0,0,0,4.43,4l-43.89,91.47a12.88,12.88,0,0,0-18,10.78l-99.84,7.63a12.4,12.4,0,0,0-1.88-4.31,12.93,12.93,0,0,0-15.22-4.8l-56.68-82.88a13,13,0,0,0,1-15.93,13.16,13.16,0,0,0-2.93-3l43.41-90.48a12.9,12.9,0,0,0,16.06-12.46Zm64.23-103.91A12.89,12.89,0,0,0,1184,925.28l99.67-7.61a12.7,12.7,0,0,0,2,4.8,13,13,0,0,0,18,3.36l56.15,82.13a13,13,0,0,0-3.38,18,12.79,12.79,0,0,0,5.26,4.4l-43.19,90a12.88,12.88,0,0,0-18.57,11.11l-99.57,7.59a12.92,12.92,0,0,0-17.24-9.57l-56.74-83a13,13,0,0,0,1-15.92A13.33,13.33,0,0,0,1125,1028Zm-15.07-218.78a12.83,12.83,0,0,0,16.76-11.45l99.57-7.61a12.3,12.3,0,0,0,1.77,4,12.94,12.94,0,0,0,16.67,4.14l56.45,82.54a12.94,12.94,0,0,0-2.2,17,12.79,12.79,0,0,0,4.43,4l-44.39,92.52a12.86,12.86,0,0,0-18.94,9.83l-100,7.65a12.57,12.57,0,0,0-1.75-3.89,13,13,0,0,0-13.66-5.28l-56.24-82.23a12.93,12.93,0,0,0,2.18-17,12.72,12.72,0,0,0-4-3.75Z"
              transform="translate(-727.13 -311.67)"/>
    </g>
</svg>
