<svg id="Layer_1" data-name="Layer 1" xmlns="http://www.w3.org/2000/svg" xmlns:xlink="http://www.w3.org/1999/xlink" viewBox="0 0 2054.91 1944.86"><defs><style>.cls-1{fill:url(#linear-gradient);}.cls-2{fill:url(#linear-gradient-2);}.cls-3{fill:url(#linear-gradient-3);}.cls-4{fill:url(#linear-gradient-4);}.cls-5{fill:url(#linear-gradient-5);}.cls-6{fill:url(#linear-gradient-6);}.cls-7{fill:url(#linear-gradient-7);}.cls-8{fill:url(#linear-gradient-8);}.cls-9{fill:url(#linear-gradient-9);}.cls-10{fill:url(#linear-gradient-10);}.cls-11{fill:url(#linear-gradient-11);}.cls-12{fill:url(#linear-gradient-12);}.cls-13{fill:url(#linear-gradient-13);}.cls-14{fill:url(#linear-gradient-14);}.cls-15{fill:url(#linear-gradient-15);}.cls-16{fill:url(#linear-gradient-16);}.cls-17{fill:url(#linear-gradient-17);}.cls-18{fill:url(#linear-gradient-18);}.cls-19{fill:url(#linear-gradient-19);}.cls-20{fill:url(#linear-gradient-20);}.cls-21{fill:url(#linear-gradient-21);}.cls-22{fill:url(#linear-gradient-22);}.cls-23{fill:url(#linear-gradient-23);}.cls-24{fill:url(#linear-gradient-24);}.cls-25{fill:url(#linear-gradient-25);}.cls-26{fill:url(#linear-gradient-26);}.cls-27{fill:url(#linear-gradient-27);}.cls-28{fill:url(#linear-gradient-28);}.cls-29{fill:url(#linear-gradient-29);}.cls-30{fill:url(#linear-gradient-30);}.cls-31{fill:url(#linear-gradient-31);}.cls-32{fill:url(#linear-gradient-32);}.cls-33{fill:url(#linear-gradient-33);}</style><linearGradient id="linear-gradient" x1="75.29" y1="1970.27" x2="75.29" y2="6.22" gradientUnits="userSpaceOnUse"><stop offset="0" stop-color="#cfff85"/><stop offset="1" stop-color="#448042"/></linearGradient><linearGradient id="linear-gradient-2" x1="1229.71" y1="1970.15" x2="1229.71" y2="6.38" xlink:href="#linear-gradient"/><linearGradient id="linear-gradient-3" x1="1193.52" y1="1970.12" x2="1193.52" y2="6.4" xlink:href="#linear-gradient"/><linearGradient id="linear-gradient-4" x1="1265.38" y1="1970.18" x2="1265.38" y2="6.34" xlink:href="#linear-gradient"/><linearGradient id="linear-gradient-5" x1="655.67" y1="1970.25" x2="655.67" y2="6.33" xlink:href="#linear-gradient"/><linearGradient id="linear-gradient-6" x1="825.35" y1="1969.86" x2="825.35" y2="6.5" xlink:href="#linear-gradient"/><linearGradient id="linear-gradient-7" x1="655.66" y1="1970.1" x2="655.66" y2="6.39" xlink:href="#linear-gradient"/><linearGradient id="linear-gradient-8" x1="560.95" y1="1970.39" x2="560.95" y2="6.3" xlink:href="#linear-gradient"/><linearGradient id="linear-gradient-9" x1="656.57" y1="1970.18" x2="656.57" y2="6.36" xlink:href="#linear-gradient"/><linearGradient id="linear-gradient-10" x1="580.79" y1="1970.24" x2="580.79" y2="6.32" xlink:href="#linear-gradient"/><linearGradient id="linear-gradient-11" x1="655.61" y1="1970.22" x2="655.61" y2="6.34" xlink:href="#linear-gradient"/><linearGradient id="linear-gradient-12" x1="934.27" y1="1970.5" x2="934.27" y2="6.29" xlink:href="#linear-gradient"/><linearGradient id="linear-gradient-13" x1="1438.21" y1="1970.44" x2="1438.21" y2="6.34" xlink:href="#linear-gradient"/><linearGradient id="linear-gradient-14" x1="1157.27" y1="1970.14" x2="1157.27" y2="6.36" xlink:href="#linear-gradient"/><linearGradient id="linear-gradient-15" x1="1189.55" y1="1970.19" x2="1189.55" y2="6.36" xlink:href="#linear-gradient"/><linearGradient id="linear-gradient-16" x1="1515.52" y1="1970.18" x2="1515.52" y2="6.35" xlink:href="#linear-gradient"/><linearGradient id="linear-gradient-17" x1="1547.03" y1="1970.21" x2="1547.03" y2="6.28" xlink:href="#linear-gradient"/><linearGradient id="linear-gradient-18" x1="267.74" y1="1970.18" x2="267.74" y2="6.32" xlink:href="#linear-gradient"/><linearGradient id="linear-gradient-19" x1="674.16" y1="1970.16" x2="674.16" y2="6.39" xlink:href="#linear-gradient"/><linearGradient id="linear-gradient-20" x1="721.83" y1="1970.18" x2="721.83" y2="6.36" xlink:href="#linear-gradient"/><linearGradient id="linear-gradient-21" x1="804.34" y1="1970.09" x2="804.34" y2="6.48" xlink:href="#linear-gradient"/><linearGradient id="linear-gradient-22" x1="1894.76" y1="1970.18" x2="1894.76" y2="6.35" xlink:href="#linear-gradient"/><linearGradient id="linear-gradient-23" x1="1044.24" y1="1970.18" x2="1044.24" y2="6.34" xlink:href="#linear-gradient"/><linearGradient id="linear-gradient-24" x1="460.23" y1="1970.14" x2="460.23" y2="6.45" xlink:href="#linear-gradient"/><linearGradient id="linear-gradient-25" x1="427.7" y1="1970.22" x2="427.7" y2="6.28" xlink:href="#linear-gradient"/><linearGradient id="linear-gradient-26" x1="1016.28" y1="1970.15" x2="1016.28" y2="6.37" xlink:href="#linear-gradient"/><linearGradient id="linear-gradient-27" x1="1964.93" y1="1970.23" x2="1964.93" y2="6.28" xlink:href="#linear-gradient"/><linearGradient id="linear-gradient-28" x1="1626.14" y1="1970.19" x2="1626.14" y2="6.35" xlink:href="#linear-gradient"/><linearGradient id="linear-gradient-29" x1="831.07" y1="1970.24" x2="831.07" y2="5.23" xlink:href="#linear-gradient"/><linearGradient id="linear-gradient-30" x1="882.04" y1="1970.19" x2="882.04" y2="6.08" xlink:href="#linear-gradient"/><linearGradient id="linear-gradient-31" x1="860.45" y1="1970.21" x2="860.45" y2="5.65" xlink:href="#linear-gradient"/><linearGradient id="linear-gradient-32" x1="866" y1="1970.17" x2="866" y2="6.5" xlink:href="#linear-gradient"/><linearGradient id="linear-gradient-33" x1="962.22" y1="1970.2" x2="962.22" y2="6.01" xlink:href="#linear-gradient"/></defs><polygon class="cls-1" points="132.6 1202.41 97.18 1212.69 86.84 1177.28 25.12 1195.25 35.44 1230.67 0 1241 17.97 1302.73 53.4 1292.42 63.74 1327.88 125.45 1309.88 115.15 1274.47 150.57 1264.12 132.6 1202.41"/><path class="cls-2" d="M1234.36,748.38c99.59-35,158.69-87.77,171.49-122.09l-14.76-5.48c-9.65,25.84-60.73,77.19-162,112.76-97.36,34.18-162,88.76-175.53,125l14.75,5.48C1077.83,838.54,1131.32,784.58,1234.36,748.38Z" transform="translate(-85.79 0)"/><path class="cls-3" d="M1244.18,753.66c-3.24,1.23-6.56,2.42-9.88,3.61-1.73.61-3.39,1.23-5.09,1.83q7.82,14.42,14.1,28l-37.56-14-20.39,9.68,66.88,25c2.94,7.19,5.52,14.21,7.86,21L1166.81,794l-17.32,10.81,116.67,43.54q2.88,10.36,4.81,19.86l-136.32-50.85-15.5,11.47,155,57.84c.88,6.71,1.44,13,1.64,18.69L1105.7,841.89l-10.4,13.39,180.21,67.26A69.56,69.56,0,0,1,1272,940l14.78,5.48C1298.91,912.81,1290.31,839.83,1244.18,753.66Z" transform="translate(-85.79 0)"/><path class="cls-4" d="M1214.35,731.94c3-1.13,6.07-2.21,9.12-3.29q2.94-1,5.8-2.12c-5.58-10.48-10.52-20.72-14.92-30.63l38.25,14.25,20.39-9.66-67.12-25c-2.77-7.19-5.22-14.11-7.43-20.86l93.08,34.71,17.34-10.76-116.15-43.37q-2.68-10.3-4.56-19.8L1323.7,666l15.48-11.47-154-57.48c-.85-6.69-1.35-12.92-1.53-18.62l169,63L1363,628l-179-66.72a66.09,66.09,0,0,1,3.34-16.48l-14.72-5.5C1160,573.27,1170.8,648.82,1214.35,731.94Z" transform="translate(-85.79 0)"/><path class="cls-5" d="M699.76,612.91a46,46,0,1,1-31.07-57.13A46,46,0,0,1,699.76,612.91Z" transform="translate(-85.79 0)"/><path class="cls-6" d="M848.8,595.26a24.45,24.45,0,1,1-16.45-30.46A24.46,24.46,0,0,1,848.8,595.26Z" transform="translate(-85.79 0)"/><path class="cls-7" d="M861.25,602.81a39.3,39.3,0,0,1-5.85,9.84c30.5,22.53,45.31,43.54,40.92,58.4-9.82,33.23-117,40.2-261-2.39S405.18,562,415,528.71s117-40.19,261,2.39C719.43,544,757.54,558.72,789.43,574a38.68,38.68,0,0,1,5.67-9.83,778.54,778.54,0,0,0-115.79-44.37c-123.77-36.59-260.68-44.53-275.51,5.54S508.23,643.3,632,679.89s260.75,44.57,275.55-5.53C914,652.53,895,627.37,861.25,602.81Z" transform="translate(-85.79 0)"/><path class="cls-8" d="M555.23,434.74a24.47,24.47,0,1,1-18,29.54A24.48,24.48,0,0,1,555.23,434.74Z" transform="translate(-85.79 0)"/><path class="cls-9" d="M555.6,420.29a36.91,36.91,0,0,1,11.45.07c4.25-37.64,15.06-61,30.08-64.63,33.7-8.11,93.38,81.24,128.46,227.19s22.6,252.7-11.09,260.85-93.34-81.3-128.43-227.2c-10.58-44.12-16.85-84.51-19.49-119.77a37.74,37.74,0,0,1-11.33,0c2.8,38.89,9.58,81.26,19.48,122.43,30.17,125.56,91.76,248.07,142.53,235.84S767.14,705.74,737,580.22,645.16,332.15,594.39,344.4C572.27,349.68,560,378.79,555.6,420.29Z" transform="translate(-85.79 0)"/><path class="cls-10" d="M563.07,769.27a24.47,24.47,0,1,1,34.53.86A24.45,24.45,0,0,1,563.07,769.27Z" transform="translate(-85.79 0)"/><path class="cls-11" d="M550.28,776.2a37.65,37.65,0,0,1-5.62-10c-34.76,15.16-60.35,17.46-71,6.33C449.79,747.34,497.39,651,606.21,547.63S813.72,401.7,837.57,426.85,813.86,548.32,705,651.71c-32.82,31.15-64.71,56.77-93.91,76.73a36.73,36.73,0,0,1,5.64,9.82,776.34,776.34,0,0,0,96.33-78.1C806.69,571.24,882,456.67,846,418.81S691.79,450.28,598.16,539.18s-168.95,203.5-133,241.34C480.85,797,512.16,793.15,550.28,776.2Z" transform="translate(-85.79 0)"/><path class="cls-12" d="M897.92,352.46c-7.9,1.74-13.45,6.76-12.48,11.24s8.15,6.69,16.06,4.94l81.71-18c-5.5-4.38-10.87-8.87-16.14-13.41Z" transform="translate(-85.79 0)"/><path class="cls-13" d="M1464.48,227.44l-59.72,13.18c-2.83,6.3-5.83,12.66-8.87,18.93l72.16-15.93c7.85-1.73,13.36-6.8,12.37-11.21S1472.33,225.7,1464.48,227.44Z" transform="translate(-85.79 0)"/><path class="cls-14" d="M1069.79,277l62.13,57.22,29.31-150.76,86,102.16,30.84-38.53,53.64,9.65,73-16.11c33.69-74.93,45.77-149-1.7-194.42-145.3-138.73-253.2,79.19-253.2,79.19s-189.6-152.25-263,34.72c-24,61.19,18.08,123.3,80.17,177.08l65.3-14.39Z" transform="translate(-85.79 0)"/><path class="cls-15" d="M1289.93,265.77l-46.13,57.69-66.17-78.66-27.38,140.82-81.62-75.17-15.49,24.72L983.21,350.6c103.55,83.23,248,143.52,248,143.52s105.61-115.48,164.64-234.57L1323,275.62Z" transform="translate(-85.79 0)"/><path class="cls-16" d="M1661.32,1231.36a60.58,60.58,0,0,0-18.71-32.86c-.87-.79-1.69-1.57-2.55-2.29a61.35,61.35,0,0,0-51.4-12.76l-171.17,35.1a61.56,61.56,0,0,0,24.79,120.59l171.12-35.09a61.84,61.84,0,0,0,48.08-71.89,1.37,1.37,0,0,0-.08-.35A1.53,1.53,0,0,0,1661.32,1231.36Zm-279.17,57.33a48.74,48.74,0,0,1,37.94-57.51L1591.26,1196a48.87,48.87,0,0,1,30.93,3.92c.64.28,1.26.67,1.89,1l-121.86,25,17.29,84.31-79.84,16.34A48.81,48.81,0,0,1,1382.15,1288.69Z" transform="translate(-85.79 0)"/><path class="cls-17" d="M1647.62,1303.7c-.82.59-1.73,1.11-2.58,1.68a42.54,42.54,0,0,1-11.14,13.88l-119.46,96.57a42.76,42.76,0,0,1-25.73,9.47c-.62,0-1.26,0-1.9,0l85-68.76-22-27.17-97,19.88a60.39,60.39,0,0,1-8.74,1.11,48.36,48.36,0,0,0-4.84,7.77A53.17,53.17,0,0,0,1445,1416a2,2,0,0,1,.23.26c.07.09.13.18.23.29a53.46,53.46,0,0,0,27.89,18.12c1,.26,2,.5,2.9.72a53.91,53.91,0,0,0,45.31-10.78L1641,1328a54,54,0,0,0,19.78-37A62.07,62.07,0,0,1,1647.62,1303.7Z" transform="translate(-85.79 0)"/><path class="cls-18" d="M195.3,1794.65l.85-10.84,8-7.17,2.21-41.19L318.8,1634.6l-3.2-3.58,5.89-5.32,6.29,7,5.39-4.82L315.7,1608.4l5.89-5.33,80.93,90.23-5.91,5.29-17.46-19.49-5.39,4.88,6.27,7-5.92,5.32-3.76-4.21L258,1792.9l-38.18-.84-9.06,8-10.88-.56-62.43,56-4.47-4.93Zm17-11.3,42.44.91,109.44-98.17L324,1641.32l-46.9,42.13,28.39,31.67-5.92,5.29-28.4-31.64-5.28,4.71,13.6,15.18-5.92,5.28L260,1698.81l-4.58,4.08,28.41,31.68-5.93,5.31-28.43-31.65-4.56,4.1,13.56,15.18-5.91,5.28L239,1717.64l-4.6,4.13,28.42,31.68-5.92,5.31-28.4-31.67-13.8,12.38Z" transform="translate(-85.79 0)"/><path class="cls-19" d="M622.27,1221.56a90,90,0,0,0,118.06,30.77l-97-150.87A89.93,89.93,0,0,0,622.27,1221.56Zm60,26.77a76.7,76.7,0,0,1-60-89.53l10.11,1.89a66.45,66.45,0,0,0,52,77.56Z" transform="translate(-85.79 0)"/><path class="cls-20" d="M655.66,1093.54l97,150.89a90,90,0,0,0-97-150.89Z" transform="translate(-85.79 0)"/><path class="cls-21" d="M793.35,1121.33a107.74,107.74,0,0,1-29,136.67l-2.45,13.19a77,77,0,0,0,31.47-149.86Zm41.32,85.24a65.78,65.78,0,0,1-26,41.2l-5.21-7.11a56.83,56.83,0,0,0,13.06-78.84l7.24-5A65.54,65.54,0,0,1,834.67,1206.57Z" transform="translate(-85.79 0)"/><path class="cls-22" d="M1974.66,1705.2a14.29,14.29,0,0,0-5.17,6l-31.76-7.83a29.28,29.28,0,0,0-32-32.7l-13.56-65.21a23.39,23.39,0,0,0,4.15-2.09,20.35,20.35,0,1,0-10.1,3.29l13.56,65.29a28,28,0,0,0-7.3,3.47,29.18,29.18,0,0,0-12.36,17.85l-55.8-6.8a16.19,16.19,0,1,0-.75,6l55.78,6.86a29.19,29.19,0,0,0,16.19,26.75l-19.35,51.38a18.82,18.82,0,1,0,12,8.07,17.71,17.71,0,0,0-6.32-5.87l19.4-51.44a29.24,29.24,0,0,0,35.2-19l31.71,7.88a14.6,14.6,0,1,0,6.54-12Z" transform="translate(-85.79 0)"/><path class="cls-23" d="M1044.58,1415.3l-29.16-103.16c3.7-1.27,5.6-5.69,4.32-10.15-1.32-4.68-5.45-7.46-9.42-6.32l-59.58,16.83c-4,1.17-6.06,5.67-4.72,10.31,1.26,4.46,5.16,7.24,9,6.41l29.16,103.17L950.3,1558.67s6.45,22.79,21.6,18.54l160.41-45.34.18,0c15.62-4.46,8.94-28.11,8.94-28.11Zm86,109.22-95.17-86.91-48.5,13.71,5.07-19-32.33-114.47,46-13,32.34,114.52,96.33,88C1134.85,1514.29,1134,1523.37,1130.55,1524.52Z" transform="translate(-85.79 0)"/><path class="cls-24" d="M448.49,1347.54l-30.3,8.1a57.21,57.21,0,0,0-40.44,69.81L403.28,1521a22.8,22.8,0,0,0,27.93,16.12l96.46-25.73a22.81,22.81,0,0,0,16.17-27.93l-25.5-95.55A57.23,57.23,0,0,0,448.49,1347.54Zm87.64,138a14.83,14.83,0,0,1-10.5,18.15l-96.48,25.78A14.87,14.87,0,0,1,411,1518.94l-1.93-7.24,114.54-30.6L501,1396.6l-114.56,30.58-1-3.78a49.11,49.11,0,0,1,34.76-60.05l30.31-8.13A49.16,49.16,0,0,1,510.63,1390Zm-53.6-55.39,8.27,31.07L473,1466l4.77,17.83-31,8.29-4.78-17.8L424.12,1479l-8.31-31,17.83-4.77-4.77-17.82,31.06-8.32,4.77,17.85Z" transform="translate(-85.79 0)"/><path class="cls-25" d="M453.12,1318.38l-1.1-4.08-1.09-4.07a11.46,11.46,0,0,0-14-8.09l-31.42,8.39a11.46,11.46,0,0,0-8.08,14l1.08,4,1.09,4.1,5.19,19.51,53.49-14.32Z" transform="translate(-85.79 0)"/><path class="cls-26" d="M908.89,879.17,845.5,974.75a36.64,36.64,0,0,0,10.3,50.62L922,1069.25c16.73,11.09,30.54,20,30.68,19.84s13.38-3.91,29.49-8.26,38.69-1.66,50.24,6,20.05,15.25,19,16.87,2.7,6.09,8.45,9.88c5.53,3.7,18.61-6.09,29.49-21.9l8.65,5.69,8.26-12.45,9.72,6.46c2.77,1.83,4.32,3.61,4.55,5.25.56,3.52-3.93,8.88-8.24,14.08-6.48,7.79-13.83,16.64-12.28,27.26,1.08,7.34,6.21,14,15.69,20.25,7.76,5.13,15,6.57,21.5,4.19,4.88-1.78,8.88-5.53,12.35-10.74,7-10.64,11.92-27.45,17.56-47.08,6.52-22.57,13.88-48.18,26-66.5l-8.53-5.66c-13,19.62-20.63,46-27.37,69.35-7,24.33-13.69,47.41-23.62,51-3.27,1.22-7.3.19-12.31-3.09-6.78-4.55-10.57-9-11.17-13.19-.94-6.13,4.6-12.82,10-19.28,5.78-6.94,11.71-14.08,10.51-22.1-.68-4.67-3.7-8.78-9-12.3l-9.72-6.47,8.23-12.46-8.61-5.74c10.31-16.17,14.27-32,8.72-35.69-5.71-3.78-11.3-5.57-12.39-3.94s-11.4-3.26-22.93-10.91-22.8-27.41-25.08-43.93-4-30.18-3.9-30.39-13.48-9.41-30.21-20.51l-66.18-43.87A36.63,36.63,0,0,0,908.89,879.17Zm137.34,59.75c.56,5.14,1.65,13.13,3.43,26.16,2.66,19.43,15.64,41.85,29.55,51.08a134.2,134.2,0,0,0,17.26,10l-7.4,11.19c-32.78-7.3-47.71-50-47.71-50s-8.08-31.87-7.62-42.69l-26.4-17.5s-9.58,4.36-22,23-10.47,39.72-26.22,63.47-43.35,39.2-43.35,39.2l-54.34-36a26.29,26.29,0,0,1-7.37-36.46l63.34-95.56a26.33,26.33,0,0,1,36.44-7.4l5.69,3.78-46.2,69.68L931,962.6l46.2-69.7L1020,921.31C1032.87,929.81,1041.8,935.86,1046.23,938.92Z" transform="translate(-85.79 0)"/><path class="cls-27" d="M2121.27,1288.61c24.72-15.28,20.5-49.12,16-67.44-.53-5.51-2.54-25.6-4.59-32.73-1.35-4.74-6.68-16.55-8.09-17.94s-2.77-1.74-8.42.17-6.89,4.16-7.45,6.3,3.47,14.53,5.26,19.17c2.52,6.51,11.78,23.45,14.12,27.74,3.89,16.11,7.45,44.76-11.79,56.67-21.72,13.41-98.61-7-137.31-19.49l1.38-4.49-38.63-12,8.77-37.29-4.73-1.12c6.26-40.46,22.22-117.29,43.77-130.61,19.25-11.92,43.28,4.09,56,14.75,2.79,4,13.78,19.88,18.5,25.06,3.34,3.67,12.58,12.85,14.77,13.27s4.81.3,9-3.86,4.51-5.57,3.91-7.44-8.81-12-12.45-15.27c-5.47-5-22.53-15.81-27.23-18.75-14.38-12.21-42.76-31.09-67.47-15.84-27.1,16.78-42.81,102.31-48.09,136.52l-6-1.42-10,42.44-27.74,17.16,3.41,5.55C1885.26,1275,1866,1285.62,1849,1283c-9.52-1.52-17-6.87-22.94-16.43-20.34-32.88-35.28-75.13-22.84-95.38,6.46-10.52,20.26-15,41-13.18,21.92,1.85,35.37,7.71,38.94,17,3.72,9.67-3.54,22.76-9.49,30.79a23,23,0,1,0,8.15,7.92,16,16,0,0,0-1-1.58c6.49-8.54,17-25.62,11.21-40.54-5-13-20.78-20.82-47-23-24.64-2.09-41.42,3.85-49.92,17.67-15.5,25.28,1.64,71,22.87,105.35,7.36,11.87,17.3,18.89,29.51,20.79,20.13,3.16,41.53-8.41,53.66-16.54l2.39,3.85,27.4-16.91,43.34,13.45,1.85-6.07C2008,1280.4,2093.75,1305.63,2121.27,1288.61Zm-251.87-51.49a13.45,13.45,0,1,1,4.38-18.5A13.45,13.45,0,0,1,1869.4,1237.12Z" transform="translate(-85.79 0)"/><path class="cls-28" d="M1720.78,741.55l-19.25,12-40,24.91,9.21,14.8,29.72-18.54c5.72,1.22,12.42,5.4,15.45,17a104.64,104.64,0,1,1-158.6-71.59h0l32,17.33L1604.83,709l44.67,24.25,18.37-33.83-44.71-24.28-23.36-49.61-38.94-21.16-15.52,28.55-44.7-24.25-18.33,33.83L1527,666.71l-15.5,28.55,23.56,12.81a127.31,127.31,0,0,0,130.77,216.58l27.39,44-25.62,16,4.71,28.58L1770,952.26l-23.63-16.79-25.62,16-27.4-43.92A127.61,127.61,0,0,0,1737.16,782c-1.35-8.65-2.7-25.18,5.11-33.26l21.62-13.49-9.22-14.8Z" transform="translate(-85.79 0)"/><path class="cls-29" d="M840.09,1879.82a15.16,15.16,0,1,0,3.17,21.18A15.1,15.1,0,0,0,840.09,1879.82Z" transform="translate(-85.79 0)"/><path class="cls-30" d="M891.06,1917.52a15.16,15.16,0,1,0,3.17,21.19A15.15,15.15,0,0,0,891.06,1917.52Z" transform="translate(-85.79 0)"/><path class="cls-31" d="M848,1900.62l20.83,15.4a18.41,18.41,0,0,1,4-3l-23.19-17.17A18.88,18.88,0,0,1,848,1900.62Z" transform="translate(-85.79 0)"/><path class="cls-32" d="M922,1897l-19.39,14.1-15.19-11.26,20.17-20.28L915,1885a46.74,46.74,0,0,1-1.72-4.86l-3.56-2.67,2.33-2.34c-.22-1.15-.38-2.33-.51-3.56l-4.16,4.2-18.64-13.83L907.13,1837l9,6.5a44.8,44.8,0,0,1,2.31-4.27l-63.89-46.58,6.71-25.75-16-11.85a7.55,7.55,0,1,0-2.87,3.92l13.34,9.86-24,92.47-24.92,8.82,11.06,8.18a18.92,18.92,0,0,1,4.07-3l-4.93-3.68,16.32-5.78,69.26,51.24,22.61-16.4C924.07,1899.5,923,1898.27,922,1897Zm-68.79-99.28,27.49,20-14.2,27.81-21.57-16Zm-16.73,64.46,7.65-29.55,21,15.56-13,25.56Zm31.28,23.12-13.25-9.81,13-25.56,17.05,12.63Zm18.57-25.08-17.46-12.94,14.19-27.81,21.72,15.82Zm-16.23,26.83,16.83-22.77,18.31,13.57-20.19,20.28Z" transform="translate(-85.79 0)"/><path class="cls-33" d="M989.69,1837.77a39,39,0,1,0,.24,55.19A39,39,0,0,0,989.69,1837.77Zm-13.86,52.46L965,1882.15,956.9,1893,938,1879l8-10.87-10.89-8,14-19,10.88,8,8.06-10.88,18.93,14-8,10.88,10.88,8Z" transform="translate(-85.79 0)"/></svg>