<svg id="Слой_1" data-name="Слой 1" xmlns="http://www.w3.org/2000/svg" xmlns:xlink="http://www.w3.org/1999/xlink" viewBox="0 0 2805.87 3425.36"><defs><style>.cls-1{fill:url(#radial-gradient);}.cls-2{fill:url(#radial-gradient-2);}.cls-3{fill:url(#radial-gradient-3);}.cls-4{fill:url(#radial-gradient-4);}.cls-5{fill:url(#radial-gradient-5);}.cls-6{fill:url(#radial-gradient-6);}.cls-7{fill:url(#radial-gradient-7);}</style><radialGradient id="radial-gradient" cx="3427.09" cy="3455.54" r="4099.36" gradientTransform="translate(83.16) scale(0.95 1)" gradientUnits="userSpaceOnUse"><stop offset="0" stop-color="#498444"/><stop offset="0.59" stop-color="#498444"/><stop offset="0.59" stop-color="#5da343"/><stop offset="1" stop-color="#498444"/></radialGradient><radialGradient id="radial-gradient-2" cx="3427.23" cy="3455.44" r="4099.7" xlink:href="#radial-gradient"/><radialGradient id="radial-gradient-3" cx="3427.17" cy="3455.54" r="4099.58" xlink:href="#radial-gradient"/><radialGradient id="radial-gradient-4" cx="3427.28" cy="3455.48" r="4099.59" xlink:href="#radial-gradient"/><radialGradient id="radial-gradient-5" cx="3427.25" cy="3455.09" r="4098.76" xlink:href="#radial-gradient"/><radialGradient id="radial-gradient-6" cx="3427.18" cy="3455.14" r="4099.1" xlink:href="#radial-gradient"/><radialGradient id="radial-gradient-7" cx="3427.55" cy="3455.23" r="4099.43" xlink:href="#radial-gradient"/></defs><path class="cls-1" d="M704.11,2771.36c-164.56,172.94-164.68,455.23-.33,628.42,165.13,173.48,433.09,173.19,597.6.06l540.74-568.26-597.49-628.41Zm1014,59.64-479.05,503.42c-130,136.59-342.33,137.06-472.83-.17s-129.94-360.66.17-497.43l478.88-503.13,55.24,58.2Z" transform="translate(-460.55 -104.43)"/><path class="cls-2" d="M3140.85,3388.53a16.17,16.17,0,0,1,2.1-2c65.36-68.57,104.41-154.39,117.82-243.49,1.19-8.21,2.38-16.47,3.34-24.46,12.79-128.9-27.44-262.1-120.88-360.48l-515.39-542.23-597.43,628.36,515,542c43.52,45.89,94.28,79.28,148.78,100.52,149.23,61.6,325.29,29.64,444.81-96.17C3139.83,3390.08,3140.23,3389.06,3140.85,3388.53Z" transform="translate(-460.55 -104.43)"/><path class="cls-3" d="M2254.62,2490.8s-3.17-.59-9.33-1.6c-5.73-1.25-14-2.86-24.91-5.36a683.42,683.42,0,0,1-88.62-28.39c-72.72-29.46-179.11-84.81-265.7-199.08-42.44-56.6-77.58-126.94-98.19-205.33-20.48-77.06-27.78-164.62-23-248,3.51-87.13,24.28-177.12,64.86-258.18,40.23-81.42,98.47-149.44,153.14-214.78,54.83-65.18,105.87-131.95,137.68-208.49,32.26-75.81,45.67-159.61,46.13-239.3.22-82.49-11.72-158.37-33.63-229.79a762,762,0,0,0-87.77-187.83c-70.4-107.84-153.59-177.11-213.35-220.15-30.44-20.88-55.18-36.48-72.49-45.71-17.32-9.69-26.49-15-26.49-15l27,14.1c17.82,8.75,42.61,23.33,74,43.21C1875.4,282,1961.47,349,2036.63,456.28a769.32,769.32,0,0,1,95.81,189.08c25,71.25,40.35,153.73,42.44,235.81,3.06,84.15-6.84,172.47-38.25,256.26-30.68,84.1-82.62,158.43-135.15,226.76-52.46,68.56-103.83,135.51-136.26,209.73-32.94,73.62-47.72,153.6-47.72,230.73-1,81.07,10.3,153.26,31.07,220.51,21.22,66.24,53.42,122.66,90.66,167.3C2014.79,2282,2106,2323.8,2168.77,2345a546,546,0,0,0,74.7,19.39c8.44,1.44,14.78,2.33,19.19,2.86,3.56.54,5.6.71,5.6.71Z" transform="translate(-460.55 -104.43)"/><path class="cls-4" d="M1754.64,1741.27c-28.47-32-73.46-69.45-126.44-115.88-27-22.19-58.56-43.38-90.66-67.12a977.67,977.67,0,0,0-89.81-59c22.42-90.47,85.18-454.7-349.74-475.65-496.59-24.16-635.3,162.72-635.3,162.72s-51.27,256,348.21,427.08c399.65,171.22,536,6.78,536,6.78s-74.76-160.15-559.42-331.73c-75.54-26.55-83.87-48.33-81.55-59.81a53.67,53.67,0,0,0,6.85,1.42c32.88,7.91,69.61,11.79,106.46,24.47,36.77,12.49,75.48,25.88,115.61,39.8,40.24,13.75,81.49,28,123.43,42.32,40.23,19.47,81.1,39,121.73,58.8,40.23,20.83,82.34,37.26,120,61.54,37.69,23.93,74.81,47.67,110.52,70.52,36.67,21.43,69,47.14,99.32,71.78,30.34,24.47,59.93,46.37,85.4,68.92,49.24,47.13,91.45,85.4,115.9,115.69,26.2,28,40.13,47.5,40.13,47.67l47.53-42.37S1784.91,1771.45,1754.64,1741.27Z" transform="translate(-460.55 -104.43)"/><path class="cls-5" d="M1970.64,1374c25.3-6.73,61.24-10.6,104.36-16.37,21.28-1.85,44.87-1.79,69.61-2.86a541.28,541.28,0,0,1,66.44.72c17.32-55.76,101.69-270.74,338.48-126.59,270.34,164.5,283.52,313,283.52,313s-55.8,153.61-322.18,101.41-285.45-187.77-285.45-187.77,91.23-57.91,402.77,24.22c48.55,13,59.93,4.58,62.41-2.31a34.6,34.6,0,0,0-4-1.61c-20-7.68-40.58-18.75-64.23-25.29s-48.16-13.22-73.85-20.24-52.24-14.28-79.07-21.78c-27.39-4-55.52-8.09-83.36-12.14-28-3.4-55.57-9.88-83.35-10.6-27.56-.48-54.84-1.37-81.15-2.14-26.33-1.73-51.62.24-75.56,2.56s-46.86,3.21-67.63,6.07c-41.19,7.32-75.83,12.44-98.41,19.64-23,5.53-36.67,10.77-36.67,10.77l-11.43-39S1944.84,1379,1970.64,1374Z" transform="translate(-460.55 -104.43)"/><path class="cls-6" d="M2153.15,970.85c-7.8-17.9-21.78-41-38-68.85-8.66-13.63-19.18-27.38-29.6-42.55a458,458,0,0,0-30.33-38.75c22.08-35.35,99-181.59-84-256.74-209.17-85.88-294.11-27-294.11-27s-57.15,101.77,90.16,235.75S1995.43,857,1995.43,857s-9.9-79.74-193.72-227c-28.52-22.86-29-33.56-26.48-38,.85.66,1.69,1.07,2.71,1.73,12.91,8.28,28.19,15.42,42.23,26.78,13.92,10.77,28.58,22.56,43.85,34.28,15.28,12.14,31.08,24.52,47,36.9,14.55,14.58,29.2,29,44,43.87,14.25,14.93,30,28.38,43,44.57,12.73,16.06,25.41,31.67,37.52,46.9,12.68,14.75,22.92,30.64,32.54,45.82s19.24,28.92,27.05,42.5c14.6,27.67,27.28,50.52,33.61,67.12a270.41,270.41,0,0,1,10.7,26.32l26-10.78S2162,988.35,2153.15,970.85Z" transform="translate(-460.55 -104.43)"/><path class="cls-7" d="M1876.25,292.92c-11.89-9.05-24.62-18-37.24-27.32-12.84-9.46-27.44-16.24-41-24.46-14-7.85-27.84-15.89-41.59-23.45-14.43-6.19-28.7-12.08-42.5-17.8s-27.28-11.6-40-16.6c-12.57-5.35-25.47-7.68-36.91-11.19a10.36,10.36,0,0,1-2.31-.72c-1.19,4.06,1.35,11.91,27.44,23.16C1828.88,266,1852,324,1852,324s-51.44,54.75-188.28-14.64C1526.51,239.9,1549.94,151,1549.94,151s52.8-62.49,226.94-42.67c152.63,17.67,123,144.08,113.23,175.5Z" transform="translate(-460.55 -104.43)"/></svg>